<?xml version="1.0" standalone="no"?><svg xmlns="http://www.w3.org/2000/svg" viewBox="0 0 1440 320"><path fill="#ffffff" fill-opacity="1" d="M0,224L34.3,234.7C68.6,245,137,267,206,250.7C274.3,235,343,181,411,181.3C480,181,549,235,617,234.7C685.7,235,754,181,823,144C891.4,107,960,85,1029,117.3C1097.1,149,1166,235,1234,277.3C1302.9,320,1371,320,1406,320L1440,320L1440,0L1405.7,0C1371.4,0,1303,0,1234,0C1165.7,0,1097,0,1029,0C960,0,891,0,823,0C754.3,0,686,0,617,0C548.6,0,480,0,411,0C342.9,0,274,0,206,0C137.1,0,69,0,34,0L0,0Z"></path></svg>