<?xml version="1.0" encoding="utf-8"?>
<!-- Generator: Adobe Illustrator 21.0.2, SVG Export Plug-In . SVG Version: 6.00 Build 0)  -->
<svg version="1.1" id="Layer_1" xmlns="http://www.w3.org/2000/svg" xmlns:xlink="http://www.w3.org/1999/xlink" x="0px" y="0px"
	 viewBox="0 0 297 300" style="enable-background:new 0 0 297 300;" xml:space="preserve">
<style type="text/css">
	.st0{fill:#231F20;}
	.st1{fill:#FFFFFF;}
	.st2{fill:#5B8BEB;}
	.st3{fill:#AEED76;}
	.st4{fill:#D1D3D4;}
	.st5{fill:#AC83DB;}
	.st6{fill:#57B260;}
	.st7{fill:#595959;}
	.st8{fill:#E5E5E5;}
	.st9{fill:#FFE0BD;}
</style>
<g id="_61_doctor">
	<g id="_126_team_presentation_flatline">
		<path class="st0" d="M67.2,99.4c-0.2,0-0.3-0.1-0.3-0.3l-2.2-32.6c0-0.2,0.1-0.3,0.3-0.3c0.2,0,0.3,0.1,0.3,0.3l0,0l2.2,32.6
			C67.5,99.2,67.4,99.4,67.2,99.4L67.2,99.4z"/>
		<rect x="59.7" y="24.7" class="st1" width="125" height="100.7"/>
		<path class="st0" d="M184.7,125.7h-125c-0.2,0-0.3-0.1-0.3-0.3V24.7c0-0.2,0.1-0.3,0.3-0.3h125c0.2,0,0.3,0.1,0.3,0.3v100.7
			C185,125.6,184.8,125.7,184.7,125.7z M60,125.1h124.4V25H60V125.1z"/>
		<path class="st2" d="M88.5,109.8H78c-0.2,0-0.3-0.1-0.3-0.3l0,0V59.2c0-0.2,0.1-0.3,0.3-0.3l0,0h10.6c0.2,0,0.3,0.1,0.3,0.3v50.3
			C88.8,109.7,88.7,109.8,88.5,109.8z"/>
		<path class="st3" d="M108,109.8H97.4c-0.2,0-0.3-0.1-0.3-0.3l0,0V80c0-0.2,0.1-0.3,0.3-0.3H108c0.2,0,0.3,0.1,0.3,0.3v29.5
			C108.3,109.7,108.2,109.8,108,109.8L108,109.8z"/>
		<path class="st2" d="M127.5,109.8h-10.6c-0.2,0-0.3-0.1-0.3-0.3V66.4c0-0.2,0.1-0.3,0.3-0.3h10.6c0.2,0,0.3,0.1,0.3,0.3l0,0v43.1
			C127.8,109.7,127.6,109.8,127.5,109.8L127.5,109.8z"/>
		<path class="st3" d="M148.7,109.2h-10.6c-0.2,0-0.3-0.1-0.3-0.1l0,0V89c0-0.1,0.1-0.1,0.3-0.1l0,0h10.6c0.2,0,0.3,0.1,0.3,0.1l0,0
			v20C149,109.1,148.9,109.2,148.7,109.2z"/>
		<path class="st4" d="M166.2,41.9h-17.9c-0.2,0-0.3-0.1-0.3-0.3s0.1-0.3,0.3-0.3h0.1h17.9c0.2,0,0.3,0.1,0.3,0.3
			C166.5,41.7,166.4,41.9,166.2,41.9L166.2,41.9L166.2,41.9z"/>
		<path class="st4" d="M166.2,45.8h-17.9c-0.2,0-0.3-0.1-0.3-0.3s0.1-0.3,0.3-0.3h17.9c0.2,0,0.3,0.1,0.3,0.3S166.3,45.8,166.2,45.8
			L166.2,45.8z"/>
		<path class="st4" d="M159.9,49.8h-11.6c-0.2,0-0.3-0.1-0.3-0.3s0.1-0.3,0.3-0.3l0,0h11.6c0.2,0,0.3,0.1,0.3,0.3l0,0
			C160.2,49.7,160.1,49.8,159.9,49.8L159.9,49.8z"/>
		<path class="st4" d="M96.7,33.1H78.8c-0.2,0-0.3-0.2-0.3-0.3s0.1-0.2,0.3-0.3h17.9c0.2,0,0.3,0.2,0.3,0.3
			C97,33,96.8,33.1,96.7,33.1z"/>
		<path class="st4" d="M90.5,37H78.8c-0.2,0-0.3-0.1-0.3-0.3s0.1-0.3,0.3-0.3h11.7c0.2,0,0.3,0.1,0.3,0.3S90.7,37,90.5,37z"/>
		<path class="st5" d="M143,73.1c-5.5,0-10.3-6.2-14.3-11.2c-2.8-3.5-5.1-6.6-6.9-6.5c-1.9,0.1-4.5,1.5-7.2,3.1
			c-3.6,2.1-7.7,4.4-11.5,4.2c-7.1-0.4-20.7-16.3-21.2-17c-0.1-0.1-0.1-0.3,0-0.4l0,0c0.1-0.1,0.3-0.1,0.4,0
			c0.1,0.2,13.9,16.4,20.8,16.8c3.6,0.2,7.6-2.1,11.2-4.2c2.8-1.6,5.4-3.1,7.5-3.2c2.1-0.1,4.4,3,7.4,6.8c3.9,5,8.8,11.3,14.1,11
			c4.7-0.2,6.9-4.2,9.2-8.4c2.1-3.9,4.4-8,8.8-8.8c0.2,0,0.3,0.1,0.3,0.3c0,0.1-0.1,0.3-0.2,0.3c-4.1,0.8-6.3,4.7-8.3,8.5
			c-2.3,4.2-4.7,8.5-9.7,8.8L143,73.1z"/>
		<path class="st4" d="M175.4,109.8h-106c-0.2,0-0.3-0.1-0.3-0.3l0,0c0-0.2,0.1-0.3,0.3-0.3h106c0.2,0,0.3,0.1,0.3,0.3l0,0
			C175.7,109.7,175.6,109.8,175.4,109.8L175.4,109.8z"/>
		<path class="st4" d="M82.3,47.6c-1.1,0-2.1-0.9-2.1-2.1c0-1.1,0.9-2.1,2.1-2.1c1.1,0,2.1,0.9,2.1,2.1l0,0
			C84.4,46.6,83.5,47.5,82.3,47.6z M82.3,44c-0.8,0-1.5,0.7-1.5,1.5s0.7,1.5,1.5,1.5s1.5-0.7,1.5-1.5l0,0C83.8,44.7,83.1,44,82.3,44
			z"/>
		<path class="st4" d="M161.3,57.6c-1.1,0-2.1-0.9-2.1-2.1c0-1.1,0.9-2.1,2.1-2.1c1.1,0,2.1,0.9,2.1,2.1
			C163.3,56.7,162.4,57.6,161.3,57.6L161.3,57.6z M161.3,54.1c-0.8,0-1.5,0.7-1.5,1.5s0.7,1.5,1.5,1.5s1.5-0.7,1.5-1.5l0,0
			C162.7,54.8,162.1,54.1,161.3,54.1L161.3,54.1z"/>
	</g>
	<path class="st4" d="M286.9,235.5H13.1c-0.3,0-0.5-0.2-0.5-0.5s0.2-0.5,0.5-0.5h273.7c0.3,0,0.5,0.2,0.5,0.5
		S287.1,235.5,286.9,235.5z"/>
	<rect x="65.9" y="153.2" class="st1" width="202.1" height="92.2"/>
	<path class="st0" d="M268.1,245.9H65.9c-0.3,0-0.5-0.2-0.4-0.5v-92.2c0-0.3,0.2-0.5,0.4-0.5H268c0.3,0,0.5,0.2,0.5,0.5v92.2
		C268.5,245.7,268.3,245.9,268.1,245.9z M66.4,245h201.2v-91.3H66.4V245z"/>
	<path class="st1" d="M65.5,147.4h203c1.6,0,2.9,1.3,2.9,2.9l0,0c0,1.6-1.3,2.9-2.9,2.9h-203c-1.6,0-2.9-1.3-2.9-2.9l0,0
		C62.6,148.7,63.9,147.4,65.5,147.4z"/>
	<path class="st0" d="M268.5,153.7h-203c-1.9-0.1-3.3-1.7-3.2-3.6c0.1-1.7,1.5-3.1,3.2-3.2h203c1.9,0.1,3.3,1.7,3.2,3.6
		C271.6,152.2,270.3,153.6,268.5,153.7z M65.5,147.8c-1.4-0.1-2.5,1-2.6,2.3c-0.1,1.4,1,2.5,2.3,2.6c0.1,0,0.2,0,0.3,0h203
		c1.4,0.1,2.5-1,2.6-2.3c0.1-1.4-1-2.5-2.3-2.6c-0.1,0-0.2,0-0.3,0H65.5z"/>
	<path class="st6" d="M43.3,200.8c0.1-1.4-0.2-2.9-0.9-4.2c-0.7-0.8-1.3-1.7-1.9-2.6c-0.8-1.7-0.2-3.7-0.4-5.5c-0.2-1.6-0.9-3-2-4.1
		c-1-1-2.2-1.7-3.2-2.7c-1.5-1.7-2-4-2.8-6.1c-1.2-3-3.4-5.5-6.1-7.2c1.7,3.3-2.1,7.6-0.4,10.9c0.5,1.1,1.6,1.8,2,2.9
		c1,2.7-2.2,5.6-1.2,8.3c0.5,1.3,1.9,2.1,2.6,3.4c0.9,1.7,0.2,3.8,0.3,5.7c0.1,2.6,1.7,5,3.6,6.9c1.2,1.1,2.5,2.1,3.8,3.2
		c1.5,1.2,2.2,2.5,3.6,0.6C42.2,207.3,43.2,204.1,43.3,200.8z"/>
	<path class="st6" d="M45,202.3c-0.5-2-0.8-4.3,0-6.2c1-2.2,3.3-3.7,3.6-6.1c0.2-1.6-0.6-3.1-0.3-4.6s1.6-2.6,2.6-3.7
		c2.4-2.6,3.8-6,4-9.5c1.6,1.9,2.9,4,3.8,6.3s0.7,5-0.6,7.1c-0.4,0.5-0.7,1-1,1.6c-0.5,1.5,0.8,2.9,1.5,4.4c0.8,1.7,0.6,3.6-0.5,5.1
		c-1.4,1.7-4,2.3-4.6,4.4c-0.2,0.8-0.2,1.6-0.2,2.3c-0.3,2.8-2.2,5.1-4.9,5.9c-1.6,0.4-1.6-0.2-1.9-1.6
		C46.2,205.9,45.5,204.1,45,202.3z"/>
	<path class="st6" d="M39.9,187.6c-1.1-3.9-1.6-8.1-2.8-12c-1-3.1-2.3-6.1-3.7-8.9l4.9,2.1c1.6,0.7,3.3,1.4,4,3
		c1.3,2.7-1,6.1,0.3,8.7c0.6,0.9,1.2,1.7,1.9,2.4c1.4,2,1.2,4.8,0.4,7.1c-0.3,1-1.8,6.2-3.1,4.8c-0.5-0.6-0.6-2.8-0.8-3.6
		C40.7,190,40.3,188.8,39.9,187.6z"/>
	<path class="st0" d="M42.5,239.9c-1-6.4-4-29.1-4.1-29.4l1-0.1c0,0.2,3.1,22.9,4.1,29.4L42.5,239.9z"/>
	<path class="st0" d="M43.8,246h-1c0-7.7,3.3-36.9,5.1-38.9l0.7,0.7C47.3,209.3,43.9,237.5,43.8,246z"/>
	<path class="st0" d="M45.5,244.6l-1-0.1c0.7-16.5-2.8-51.1-2.8-51.4l1-0.1C42.7,193.3,46.2,228,45.5,244.6z"/>
	<path class="st1" d="M34.2,221.5h18.2l-1.3,20.7c-0.2,3.6-2.9,6.4-6.1,6.4h-3.5c-3.2,0-5.8-2.8-6.1-6.4L34.2,221.5z"/>
	<path class="st0" d="M45.1,249h-3.5c-3.4,0-6.3-3-6.6-6.8l-1.3-20.7c0-0.1,0-0.3,0.1-0.4c0.1-0.1,0.2-0.2,0.4-0.2h18.2
		c0.1,0,0.3,0.1,0.4,0.2c0.1,0.1,0.2,0.2,0.1,0.4l-1.3,20.7C51.4,246,48.5,249,45.1,249z M34.8,222l1.2,20.1
		c0.2,3.3,2.6,5.9,5.6,5.9h3.5c2.9,0,5.3-2.6,5.6-5.9L52,222H34.8z"/>
	<path class="st1" d="M205.4,251.6l-1.2,14.7c0,0-21.4,3.8-27,3.8s-5-3.3,3.5-8.4c6.7-4,11.8-4.5,11.8-4.5l0.7-6.9L205.4,251.6z"/>
	<path class="st0" d="M177.3,270.6c-3,0-3.8-0.9-4-1.7c-0.6-2.3,3.6-5.4,7.3-7.5c3.6-2.2,7.5-3.7,11.6-4.5l0.6-6.5
		c0-0.2,0.3-0.4,0.5-0.4l12.2,1.2c0.2,0,0.4,0.3,0.4,0.5l-1.2,14.7c0,0.2-0.2,0.4-0.4,0.4C203.5,266.9,182.8,270.6,177.3,270.6z
		 M193.7,250.9l-0.6,6.4c0,0.2-0.2,0.4-0.4,0.4c-4.1,0.7-8.1,2.2-11.6,4.4c-5.5,3.3-7.2,5.5-6.9,6.5c0.2,0.7,1.3,1,3.2,1
		c5.1,0,23.8-3.2,26.6-3.8l1-13.8L193.7,250.9z"/>
	<path class="st1" d="M234.7,251.9c0.7,3.1,1,6.2,0.7,9.4c-0.5,4-0.8,9.5,0.1,12.8s5.1,6.7,8.4,4.5s3.1-12.5,2.5-15.2
		s-2-9.8-1.8-13.6L234.7,251.9z"/>
	<path class="st0" d="M241.7,279.7c-0.6,0-1.2-0.1-1.8-0.3c-2.3-0.9-4.1-2.8-4.8-5.2c-1.2-4.1-0.4-11-0.1-13c0.2-3.1,0-6.2-0.7-9.2
		c0-0.1,0-0.2,0.1-0.4c0.1-0.1,0.2-0.2,0.3-0.2l10-2.2c0.1,0,0.3,0,0.4,0.1s0.2,0.2,0.2,0.4c-0.2,3.6,1.2,10.3,1.8,13.2l0.1,0.3
		c0.5,2.5,0.8,13.3-2.7,15.7C243.4,279.4,242.6,279.7,241.7,279.7z M235.2,252.2c0.7,3,0.9,6,0.6,9.1c-0.3,2-1,8.6,0.1,12.6
		c0.7,2.1,2.2,3.8,4.3,4.6c1.1,0.5,2.4,0.3,3.4-0.3c3-2,2.9-12,2.4-14.8l-0.1-0.3c-0.5-2.8-1.8-9-1.8-12.8L235.2,252.2z"/>
	<path class="st0" d="M221,126.8c-1.9-1.2-29-2-29-2s-1.8,90.3,0.5,129.4H206c0,0,13.5-58.4,11.2-79c0,0,15,58.1,15.5,80.8h15.4
		c0,0,2.3-53.3-3.3-76.9S221,126.8,221,126.8z"/>
	<path class="st0" d="M248.1,256.4h-15.4c-0.2,0-0.4-0.2-0.4-0.4c-0.4-18.8-10.9-62.2-14.3-76.2c0.3,23.4-11.4,74-11.5,74.5
		c0,0.2-0.2,0.3-0.4,0.3h-13.6c-0.2,0-0.4-0.2-0.4-0.4c-2.3-38.7-0.5-128.5-0.5-129.4c0-0.1,0.1-0.2,0.1-0.3
		c0.1-0.1,0.2-0.1,0.3-0.1c2.8,0.1,27.3,0.9,29.2,2.1c0.1,0,0.1,0.1,0.1,0.1c0.2,0.3,18.3,29,23.9,52.4s3.4,76.5,3.3,77
		C248.6,256.2,248.4,256.4,248.1,256.4C248.2,256.4,248.1,256.4,248.1,256.4z M233.1,255.6h14.6c0.2-5.1,1.9-54.2-3.3-76.4
		c-5.4-22.6-22.5-50.2-23.7-52c-1.7-0.8-17.9-1.6-28.2-1.9c-0.1,6.9-1.7,91,0.5,128.5h12.8c1.1-4.8,13.3-59,11.1-78.5
		c0-0.2,0.2-0.5,0.4-0.5s0.4,0.1,0.5,0.3C217.8,175.6,232.4,232.7,233.1,255.6L233.1,255.6z"/>
	<path class="st7" d="M241.5,69.7c-0.6-0.9-1.2-1.8-1.7-2.8c-2-3.3-3.5-6.9-4.7-10.5c-1.2-3.8-1-8-2.2-11.7
		c-1.6-4.9-7.1-8.9-11.9-10.2c-10.1-2.9-21.2,2.9-24.3,13c-0.7,2.5-1,5.1-0.9,7.8c-0.3,9.2-0.6,18.3-0.9,27.5
		c-0.3,8.5-1.6,16.9,3.5,24.3c4.5,6.5,12.3,10,20.2,11c11.4,1.4,24.1-2.6,30.2-12.4c3.4-5.6,4.4-12.4,2.6-18.8
		S245.2,75.2,241.5,69.7z"/>
	<path class="st0" d="M223,118.8c-1.5,0-3-0.1-4.5-0.3c-8.9-1.1-16.4-5.2-20.5-11.2c-4.5-6.5-4.1-13.5-3.8-20.9
		c0.1-1.2,0.1-2.4,0.2-3.7l0.9-27.5c0-2.7,0.3-5.3,0.9-7.9c3.1-10.1,14.5-16.2,24.9-13.3c4.7,1.3,10.5,5.2,12.2,10.5
		c0.6,1.9,0.9,3.9,1.1,5.9s0.6,3.9,1.1,5.8c1.1,3.7,2.7,7.2,4.6,10.4c0.5,0.8,1.1,1.7,1.7,2.7l0,0c0.8,1.2,1.6,2.3,2.4,3.5
		c3,4.3,6.1,8.7,7.5,13.9c1.8,6.5,0.8,13.4-2.7,19.1C243.5,115,232.6,118.8,223,118.8z M215.7,34.2c-8.3,0-16.2,5.4-18.6,13.4
		c-0.6,2.5-0.9,5.1-0.9,7.6l-0.9,27.5c0,1.2-0.1,2.5-0.2,3.7c-0.4,7.3-0.7,14.1,3.6,20.4c4,5.8,11.2,9.7,19.9,10.8
		c10.2,1.3,23.4-2,29.8-12.2c3.3-5.5,4.2-12.2,2.5-18.4c-1.4-5-4.5-9.4-7.4-13.6c-0.8-1.2-1.6-2.3-2.4-3.5l0,0
		c-0.7-1-1.2-1.9-1.8-2.8c-2-3.4-3.6-6.9-4.7-10.6c-0.6-1.9-0.9-3.9-1.1-5.9c-0.2-1.9-0.6-3.9-1.1-5.8c-1.5-4.8-7-8.6-11.6-9.9
		C219.1,34.4,217.4,34.2,215.7,34.2L215.7,34.2z"/>
	<path class="st1" d="M212.2,77.4c0,0-13.1,7.4-15.6,20.1s0.3,41.2,0.3,41.2l32.4-1.4c0,0-3.2-35.9,0-46s3.1-12.9,0-13.9
		S217.9,71.1,212.2,77.4z"/>
	<path class="st0" d="M196.9,139.1c-0.2,0-0.4-0.2-0.4-0.4c0-0.3-2.8-28.7-0.3-41.3c2.5-12.3,14.8-19.7,15.8-20.3
		c5-5.4,11.9-2.4,15.7-0.8c0.7,0.3,1.4,0.6,1.9,0.8c3.4,1.1,3.5,4.2,0.3,14.5c-3.1,9.9,0,45.5,0,45.8c0,0.1,0,0.2-0.1,0.3
		s-0.2,0.1-0.3,0.1L196.9,139.1L196.9,139.1z M219,74.8c-2.5-0.1-4.9,1-6.5,2.9l-0.1,0.1c-0.1,0.1-13,7.4-15.4,19.8
		c-2.3,11.6-0.1,37,0.3,40.6l31.5-1.3c-0.4-4.5-2.9-36.2,0.1-45.7c3.3-10.5,2.8-12.5,0.3-13.3c-0.5-0.2-1.2-0.4-1.9-0.8
		C225,76.1,222,74.8,219,74.8z M212.2,77.4L212.2,77.4z"/>
	<path class="st8" d="M212.6,73.1c0,0,1,1.5-1.3,6.5c-2.2,4.1-4.5,22.8-4.9,29.2c-0.9,12.8-4.2,96.2-4.2,96.2l-22.1-1.6
		c0,0,9.8-95.5,12-106.6C194,85.7,201.9,76.6,212.6,73.1z"/>
	<path class="st8" d="M208.9,74.6c0,0-10.6,3.9-14.8,7.9s-22.6,38.2-22.6,38.2l12,6.3l14.6-17.6"/>
	<path class="st0" d="M187.7,121.1c-0.2,0-0.5-0.1-0.6-0.6c-0.1-0.2,0.1-0.5,0.3-0.6c0.1,0,0.2,0,0.3,0c1.1-2.6,3.5-17.6,4.9-27.1
		c0-0.2,0.3-0.4,0.5-0.4s0.4,0.3,0.4,0.5l0,0C189.4,121,188.2,121.1,187.7,121.1L187.7,121.1z"/>
	<path class="st9" d="M211.2,69.7l-0.1,9.9c0,0,1,5.5,7,3.8c3.6-1,6.5-3.6,8-7.1l-0.7-17.2c-0.8-3-1.1-6.1-1-9.2
		c-7.3-0.1-13.1-5.7-13.1-5.7s-2.5,3.8-3.6,5c-0.9,0.9-1.6,1.9-2.3,3c-1,1.9-1,4.3-0.9,6.4c0,2.5,0.3,5,0.8,7.5
		C206.4,70.9,211.2,69.7,211.2,69.7z"/>
	<path class="st0" d="M216.1,84.3c-1,0-2-0.2-2.8-0.8c-1.3-0.9-2.2-2.2-2.5-3.8l0.1-9.4c-1.3,0.2-2.6-0.1-3.8-0.7
		c-1.1-0.7-1.9-1.9-2.1-3.2c-0.5-2.5-0.7-5-0.8-7.5c-0.1-2-0.1-4.6,1-6.6c0.6-1.1,1.4-2.2,2.3-3.1c1.1-1.2,3.5-4.9,3.6-4.9
		c0.1-0.1,0.2-0.2,0.3-0.2s0.3,0,0.4,0.1c0.1,0,5.7,5.4,12.8,5.5c0.1,0,0.2,0.1,0.3,0.1c0.1,0.1,0.1,0.2,0.1,0.3
		c-0.1,2.8,0.1,5.6,0.8,8.3c0.1,0.3,0.1,0.6,0.2,0.9c0,0.1,0.7,17.2,0.7,17.2c0,0.1,0,0.1,0,0.2c-1.5,3.6-4.6,6.3-8.3,7.4
		C217.6,84.1,216.8,84.2,216.1,84.3z M211.6,79.6c0.5,2.5,2.9,4.2,5.5,3.7c0.3-0.1,0.7-0.2,1-0.3c3.4-1,6.2-3.5,7.7-6.7l-0.7-17.1
		c0-0.2-0.1-0.4-0.1-0.7c-0.7-2.6-1-5.4-0.9-8.1c-6.2-0.3-11.1-4.2-12.5-5.4c-1,1.6-2.2,3.1-3.4,4.6c-0.8,0.9-1.6,1.8-2.2,2.9
		c-1,1.8-0.9,4.1-0.9,6.2c0,2.5,0.3,4.9,0.7,7.4c0.2,1.1,0.8,2,1.6,2.7c1.1,0.6,2.4,0.8,3.6,0.5c0.1,0,0.3,0,0.4,0.1
		s0.2,0.2,0.2,0.4L211.6,79.6L211.6,79.6z"/>
	<path class="st0" d="M211.3,74.6c2.4,0,4.8-0.9,6.6-2.5c1.5-1.4,2.3-3.4,2.2-5.4c0,0-4.4,2.9-8.9,3L211.3,74.6z"/>
	<path class="st0" d="M211.5,75h-0.2c-0.2,0-0.4-0.2-0.4-0.4l-0.1-4.9c0-0.2,0.2-0.4,0.4-0.4c4.3-0.1,8.6-2.9,8.6-2.9
		c0.1-0.1,0.3-0.1,0.4,0s0.2,0.2,0.3,0.3c0.1,2.2-0.7,4.3-2.3,5.8C216.4,74.1,214,75,211.5,75z M211.7,70.1v4c2.2,0,4.3-0.9,5.9-2.4
		c1.2-1.1,1.9-2.7,2.1-4.3C217.2,68.9,214.5,69.8,211.7,70.1L211.7,70.1z"/>
	<path class="st9" d="M214.7,55.5c0,0-3.2,4.8-2.4,5.6s2.9,0.3,2.9,0.3"/>
	<path class="st0" d="M213.8,62c-0.7,0.1-1.3-0.2-1.8-0.6c-0.9-0.9,1.1-4.2,2.4-6.1c0.1-0.2,0.4-0.3,0.6-0.1
		c0.2,0.1,0.3,0.4,0.1,0.6c-1.5,2.2-2.7,4.6-2.5,5.1c0.4,0.5,1.8,0.3,2.4,0.1c0.2-0.1,0.5,0.1,0.5,0.3l0,0c0.1,0.2-0.1,0.5-0.3,0.5
		C214.8,61.9,214.3,62,213.8,62z"/>
	
		<ellipse transform="matrix(3.926210e-02 -0.9992 0.9992 3.926210e-02 147.3136 262.4507)" class="st0" cx="210.1" cy="54.6" rx="1" ry="0.5"/>
	
		<ellipse transform="matrix(3.926210e-02 -0.9992 0.9992 3.926210e-02 155.674 269.1488)" class="st0" cx="217.8" cy="53.6" rx="1" ry="0.5"/>
	<path class="st1" d="M212.6,63.9l2.5-0.7c0,0,0.5,3.7-0.9,4S212.6,63.9,212.6,63.9z"/>
	<path class="st0" d="M214,67.7c-0.3,0-0.5-0.1-0.7-0.2c-1-0.8-1.2-3.3-1.2-3.6c0-0.2,0.1-0.4,0.3-0.5l2.5-0.7
		c0.2-0.1,0.5,0.1,0.5,0.3c0,0,0,0,0,0.1c0.1,0.7,0.5,4.1-1.2,4.5C214.2,67.7,214.1,67.7,214,67.7z M213,64.2c0,0.9,0.3,1.8,0.8,2.6
		c0.1,0,0.2,0,0.2,0c0.6-0.1,0.7-1.8,0.6-3L213,64.2z"/>
	<path class="st9" d="M222.2,54.1c0.4-1.2,1-2.4,1.9-3.3c0.9-1,2.3-1.3,3.5-0.9c1.3,0.6,1.7,2.2,1.7,3.7c0,1.6-0.3,3.2-0.9,4.8
		c-0.2,0.9-0.7,1.8-1.4,2.5s-1.8,0.8-2.6,0.4"/>
	<path class="st0" d="M225.4,61.9c-0.4,0-0.9-0.1-1.2-0.4c-0.2-0.1-0.3-0.4-0.1-0.6l0,0c0.1-0.2,0.4-0.3,0.6-0.1l0,0
		c0.7,0.4,1.5,0.2,2-0.3c0.6-0.6,1.1-1.4,1.3-2.3c0.5-1.5,0.8-3,0.9-4.6c0-0.6-0.1-2.6-1.5-3.3c-1.1-0.4-2.3-0.1-3,0.8
		c-0.8,0.9-1.4,2-1.8,3.2c-0.1,0.2-0.4,0.3-0.6,0.3c-0.2-0.1-0.4-0.4-0.3-0.6c0.4-1.3,1.1-2.5,2-3.5c1-1.1,2.6-1.5,4-0.9
		c1.8,0.9,2,3.2,2,4.1c0,1.7-0.3,3.3-0.9,4.9c-0.3,1-0.8,1.9-1.5,2.7C226.9,61.7,226.1,61.9,225.4,61.9z"/>
	<path class="st8" d="M226.7,74.5c0,0-3.3,26.3-3.3,40.3c0,16-0.3,91.7-0.3,91.7l36.6-1.6c0,0-14.9-45.6-16.5-64.2
		c-1-11.7-2-43.4-1.5-51.7S226.7,74.5,226.7,74.5z"/>
	<polygon class="st1" points="190.3,114.7 206.4,150.9 175.1,150.9 159.4,115.5 	"/>
	<path class="st0" d="M206.4,151.3h-31.3c-0.2,0-0.3-0.1-0.4-0.3L159,115.7c-0.1-0.1-0.1-0.3,0-0.4s0.2-0.2,0.4-0.2l30.9-0.8
		c0.2,0,0.4,0.1,0.4,0.3l16.1,36.1c0.1,0.1,0.1,0.3,0,0.4C206.7,151.2,206.6,151.3,206.4,151.3z M175.4,150.4h30.3L190,115.2
		l-29.9,0.8L175.4,150.4z"/>
	<path class="st9" d="M218.4,145.6c-6.6,0.2-13.5-1.4-19.7,1l-4.3,1.6c0.1-1,0.6-1.9,1.5-2.3c0.9-0.4,1.7-0.9,2.5-1.5l-3.6,1.7
		c-0.7,0.3-1.7,0.6-2.1-0.1c1.4-1.4,3-2.6,4.6-3.6c-1.3,0.6-2.6,1.2-4,1.6c-0.9,0.3-2,0.5-2.6-0.2c1.5-1.2,3.2-2.1,5-2.7l-3.4,1
		c-0.4,0.1-0.8,0.2-1.2,0.2c-0.4-0.1-0.8-0.4-0.8-0.9c0.1-0.3,0.3-0.7,0.6-0.8c2.3-1.8,5-3,7.8-3.6c-0.3-0.7-1.7-4.6-1.2-5.2
		s2.4,2.9,5.4,3.2s13.1,0.8,13.1,0.8"/>
	<path class="st0" d="M194.4,148.8c-0.1,0-0.2,0-0.2-0.1c-0.1-0.1-0.2-0.2-0.2-0.4c0-0.5,0.1-1,0.4-1.4c-1,0.3-1.7,0.1-2.1-0.6
		c-0.1-0.2-0.1-0.4,0.1-0.5c0.5-0.5,0.9-0.9,1.4-1.3l-0.3,0.1c-1.4,0.5-2.5,0.4-3.1-0.3c-0.1-0.1-0.1-0.2-0.1-0.4
		c0-0.1,0.1-0.2,0.2-0.3c0.3-0.2,0.6-0.4,0.9-0.6H191c-0.7-0.1-1.1-0.7-1.1-1.3c0.1-0.5,0.4-0.9,0.8-1.2c2.2-1.7,4.8-2.9,7.5-3.5
		c-1.6-4.3-1.1-4.9-0.9-5.2c0.1-0.2,0.3-0.3,0.5-0.3c0.4,0,0.9,0.4,1.5,1c1,1.2,2.3,2,3.8,2.3c2.9,0.3,13,0.8,13.1,0.8
		c0.3,0,0.4,0.3,0.4,0.5s-0.2,0.4-0.4,0.4c-0.4,0-10.2-0.5-13.2-0.8c-1.9-0.2-3.4-1.6-4.3-2.6c-0.2-0.2-0.5-0.5-0.7-0.6
		c0.2,1.6,0.6,3.1,1.3,4.6c0.1,0.1,0.1,0.3,0,0.4c-0.1,0.1-0.2,0.2-0.3,0.2c-2.8,0.6-5.4,1.8-7.6,3.5c-0.2,0.1-0.4,0.3-0.4,0.5
		s0.2,0.3,0.4,0.4c0.3,0,0.7,0,1-0.2l3.4-1c0.2-0.1,0.5,0.1,0.6,0.3l0,0c0.1,0.2-0.1,0.5-0.3,0.6c-1.5,0.5-3,1.2-4.3,2.2
		c0.5,0.1,1.1,0,1.6-0.2c1.4-0.5,2.7-1,4-1.6c0.2-0.1,0.5,0,0.6,0.2s0,0.5-0.2,0.6c-1.5,0.9-2.9,2-4.2,3.2c0.4,0,0.8-0.1,1.2-0.3
		l3.6-1.7c0.2-0.1,0.4,0,0.6,0.1c0.1,0.2,0.1,0.4-0.1,0.6c-0.5,0.4-1.1,0.8-1.7,1.1c-0.3,0.1-0.6,0.3-0.9,0.5
		c-0.5,0.3-0.9,0.7-1.2,1.2l3.5-1.4c4.4-1.7,9.1-1.4,13.6-1.2c2.1,0.1,4.2,0.2,6.2,0.1c0.3,0,0.5,0.2,0.5,0.4c0,0.3-0.2,0.5-0.4,0.5
		c-2.1,0.1-4.2,0-6.3-0.1c-4.5-0.2-9.1-0.5-13.3,1.1l-4.3,1.6C194.6,148.8,194.5,148.8,194.4,148.8z"/>
	<path class="st8" d="M241.2,84.7c0,0,24.2,60.8,15.2,63.8c-3.7,1.3-44.4,2.4-44.4,2.4l-1-16.2l20.4-2.8L241.2,84.7z"/>
	<path class="st0" d="M239.3,131.7c-0.2,0-0.4-0.2-0.5-0.4l-3.4-39.1c-0.1-0.2,0.1-0.5,0.4-0.5c0.2-0.1,0.5,0.1,0.5,0.4v0.1
		l3.4,39.1C239.7,131.4,239.6,131.6,239.3,131.7L239.3,131.7L239.3,131.7z"/>
	<path class="st0" d="M217.7,152.4c-0.3,0-0.4-0.3-0.4-0.5s0.2-0.4,0.4-0.4l27.8-2c0.2,0,0.5,0.2,0.5,0.4l0,0c0,0.3-0.2,0.5-0.4,0.5
		L217.7,152.4L217.7,152.4z"/>
	<path class="st9" d="M167.2,140.1c0.2,0.6,0.4,1.1,0.6,1.6c0.3,1.2,1,2.3,1.8,3.2c1,0.9,2.3,1.4,3.7,1.6c1.5,0.2,2.9,0.5,4.4,0.8
		c0.7,0.2,1.5,0.2,2.2-0.2c0.1-0.1,0.2-0.2,0.3-0.4c0-0.2-0.1-0.4-0.3-0.6c-1.6-1.5-4.2-1.3-6.1-2.5c1.5,0.4,3.1,0.6,4.7,0.4
		c0.8,0,1.6-0.3,2.1-1c-2-1.4-4.7-0.9-6.9-1.9c1.9,0.4,3.9,0.1,5.7-0.6c0.3-0.1,0.7-0.5,0.4-0.7c-0.1-0.1-0.2-0.1-0.4-0.1l-7-0.4
		c1.3,0,2.7-0.3,3.9-0.9c0.6-0.3,1.3-0.8,1.4-1.5c0-0.1,0-0.3-0.1-0.4c-0.1-0.2-0.4-0.1-0.6-0.1c-0.9,0.1-4.6,0.6-5.5,0.8
		c-0.8,0.3-1.7,0.2-2.4-0.2c-0.3-0.3-0.6-0.7-0.8-1.1c-0.8,0.6-1.4,1.6-1.5,2.6C166.9,139,167,139.6,167.2,140.1z"/>
	<path class="st0" d="M178.8,147.8c-0.4,0-0.8-0.1-1.2-0.1c-1.5-0.3-3-0.5-4.4-0.8c-1.4-0.2-2.8-0.7-3.9-1.7
		c-0.9-0.9-1.5-2.1-1.9-3.3c-0.1-0.2-0.2-0.4-0.2-0.6s-0.2-0.6-0.4-1l0,0c-0.2-0.6-0.3-1.2-0.4-1.8c0.1-1.2,0.7-2.2,1.6-2.9
		c0.2-0.2,0.5-0.1,0.6,0.1c0,0,0,0,0,0.1c0.4,1,1.6,1.5,2.6,1.1c0,0,0.1,0,0.1-0.1c0.8-0.1,3.1-0.5,4.6-0.7l1-0.1
		c0.4-0.1,0.7,0,1,0.3c0.2,0.2,0.2,0.4,0.2,0.7c0,0.5-0.4,1.3-1.6,1.9L176,139l3.5,0.2c0.2,0,0.5,0.1,0.6,0.2
		c0.2,0.2,0.3,0.4,0.2,0.6c-0.1,0.4-0.4,0.7-0.8,0.9c-0.6,0.3-1.3,0.5-1.9,0.6c1.2,0.1,2.3,0.5,3.2,1.1c0.2,0.1,0.3,0.4,0.1,0.6
		c-0.6,0.8-1.5,1.2-2.4,1.2l-0.7,0.1c0.8,0.2,1.6,0.6,2.3,1.2c0.3,0.2,0.5,0.6,0.4,1c-0.1,0.3-0.2,0.5-0.5,0.6
		C179.8,147.7,179.3,147.8,178.8,147.8z M167.6,139.9c0.1,0.3,0.2,0.6,0.3,0.9s0.2,0.5,0.3,0.7c0.3,1.1,0.9,2.1,1.7,3
		c1,0.8,2.2,1.3,3.4,1.4c1.5,0.2,3,0.5,4.4,0.8c0.6,0.2,1.3,0.2,1.9-0.1l0.1-0.1c0-0.1-0.1-0.1-0.1-0.1c-0.9-0.7-2-1.2-3.1-1.4
		c-1-0.2-2-0.6-2.9-1.1c-0.2-0.1-0.3-0.4-0.1-0.6c0.1-0.2,0.3-0.2,0.5-0.2c1.5,0.4,3,0.6,4.6,0.4c0.5,0,1-0.2,1.4-0.4
		c-1-0.4-2.1-0.7-3.2-0.8c-1.1-0.1-2.2-0.4-3.2-0.8c-0.2-0.1-0.3-0.4-0.2-0.6c0.1-0.2,0.3-0.3,0.5-0.3c1.8,0.3,3.7,0.1,5.4-0.6
		l-6.8-0.4c-0.2,0-0.4-0.2-0.4-0.5l0,0c0-0.2,0.2-0.4,0.4-0.4c1.3,0,2.5-0.3,3.7-0.9c0.5-0.2,1.1-0.6,1.1-1.1c0,0,0,0-0.2,0l-1,0.1
		c-1.4,0.2-3.8,0.6-4.5,0.7c-0.9,0.3-1.9,0.2-2.8-0.3c-0.2-0.2-0.4-0.4-0.6-0.7c-0.5,0.5-0.8,1.2-0.9,1.9
		C167.3,139,167.4,139.5,167.6,139.9L167.6,139.9z"/>
	<path class="st0" d="M211.1,135.2c-0.2,0-0.4-0.2-0.5-0.4c0-0.3,0.2-0.5,0.4-0.5l31.5-3.5c0.3,0,0.5,0.2,0.5,0.4s-0.1,0.5-0.4,0.5
		l0,0L211.1,135.2L211.1,135.2z"/>
	<path class="st0" d="M236.7,188.5c-1.9,0-3.7-0.8-5-2.2c-3-3.6-2.2-15.9-2.1-16.4c0-0.2,0.2-0.4,0.5-0.4h14.8
		c0.3,0,0.4,0.3,0.4,0.5s-0.2,0.4-0.4,0.4h-14.3c-0.1,2.2-0.6,12.3,1.9,15.3c1.6,1.7,4,2.3,6.2,1.5c1.8-0.6,4.7-2.6,4.8-9.3
		c0-0.2,0.2-0.4,0.5-0.4l0,0c0.3,0,0.5,0.2,0.5,0.5c-0.1,7.2-3.5,9.4-5.4,10.1C238.2,188.4,237.5,188.5,236.7,188.5z"/>
	<path class="st0" d="M192.2,186.2c-1.6,0-3.1-0.9-3.9-2.2c-2.3-3.6-1.7-15.8-1.6-16.4c0-0.2,0.2-0.4,0.5-0.4h11.3
		c0.3,0,0.5,0.2,0.5,0.5s-0.2,0.5-0.5,0.5h-10.9c-0.1,2.2-0.4,12.4,1.5,15.4c0.8,1.4,2.5,2.1,4.1,1.7c2.5-0.7,4.1-4.3,4.1-9.5
		c0-0.3,0.2-0.5,0.5-0.4l0,0c0.3,0,0.5,0.2,0.4,0.5c-0.1,8.1-3.4,10-4.8,10.4C193,186.2,192.6,186.2,192.2,186.2z"/>
	<circle class="st0" cx="226.2" cy="98.1" r="2.8"/>
	<path class="st0" d="M226.2,101.2c-1.8,0-3.2-1.4-3.2-3.2s1.4-3.2,3.2-3.2s3.2,1.4,3.2,3.2C229.4,99.8,228,101.3,226.2,101.2
		C226.2,101.3,226.2,101.3,226.2,101.2z M226.2,95.7c-1.3,0-2.3,1-2.3,2.3s1,2.3,2.3,2.3s2.3-1,2.3-2.3
		C228.5,96.8,227.5,95.7,226.2,95.7z"/>
	<circle class="st0" cx="227.5" cy="97.2" r="2.2"/>
	<path class="st0" d="M227.5,99.9c-1.5,0-2.6-1.2-2.6-2.6s1.2-2.6,2.6-2.6s2.6,1.2,2.6,2.6C230.1,98.7,228.9,99.9,227.5,99.9
		L227.5,99.9z M227.5,95.5c-1,0-1.8,0.8-1.8,1.7c0,1,0.8,1.8,1.7,1.8c1,0,1.8-0.8,1.8-1.7l0,0C229.2,96.3,228.4,95.5,227.5,95.5z"/>
	<path class="st0" d="M205.2,90.5L205.2,90.5c-0.3,0-0.5-0.2-0.4-0.5c0.1-0.7,1.8-16.5,9.2-18c0.2,0,0.5,0.1,0.5,0.3
		c0,0.2-0.1,0.5-0.3,0.5c-6.8,1.4-8.5,17.1-8.5,17.2C205.6,90.3,205.4,90.5,205.2,90.5z"/>
	<path class="st0" d="M226.7,97.1L226.7,97.1c-0.3,0-0.5-0.3-0.5-0.5l0,0c1.9-16.4-0.5-22.8-0.5-22.9c-0.1-0.2,0-0.5,0.3-0.6
		s0.5,0,0.6,0.3s2.4,6.7,0.6,23.4C227.2,96.9,227,97.1,226.7,97.1z"/>
	<path class="st0" d="M209.8,108.5c-0.3,0-0.5-0.2-0.5-0.5s0.2-0.5,0.5-0.5c0.9,0,1.6-0.7,1.6-1.6v-9.7c0-3.1-2.6-5.7-5.7-5.7h-1.1
		c-3.1,0-5.7,2.6-5.7,5.7v9.7c0,0.9,0.7,1.6,1.6,1.6c0.3,0,0.5,0.2,0.5,0.5s-0.2,0.5-0.5,0.5c-1.4,0-2.6-1.2-2.6-2.6v-9.7
		c0-3.7,3-6.7,6.7-6.7h1.1c3.7,0,6.7,3,6.7,6.7v9.7C212.4,107.3,211.3,108.5,209.8,108.5z"/>
	<path class="st0" d="M201.2,106.5L201.2,106.5c0.3,0,0.5,0.2,0.5,0.5v2c0,0.3-0.2,0.5-0.5,0.5l0,0c-0.3,0-0.5-0.2-0.5-0.5v-2
		C200.7,106.7,200.9,106.5,201.2,106.5z"/>
	<path class="st0" d="M201.2,110c-0.6,0-1-0.4-1-1v-2c0-0.6,0.4-1,1-1s1,0.4,1,1v2C202.2,109.6,201.8,110,201.2,110z M201.2,106.9
		C201.2,106.9,201.1,107,201.2,106.9l-0.1,2.1c0,0.1,0.2,0.1,0.2,0L201.2,106.9C201.3,107,201.3,106.9,201.2,106.9z"/>
	<path class="st0" d="M209.6,106.5L209.6,106.5c0.3,0,0.5,0.2,0.5,0.5v2c0,0.3-0.2,0.5-0.5,0.5l0,0c-0.3,0-0.5-0.2-0.5-0.5v-2
		C209.1,106.7,209.3,106.5,209.6,106.5z"/>
	<path class="st0" d="M209.6,110c-0.6,0-1-0.4-1-1v-2c0.1-0.5,0.7-0.9,1.2-0.7c0.4,0.1,0.6,0.4,0.7,0.7v2
		C210.6,109.5,210.1,110,209.6,110z M209.6,106.9C209.6,106.9,209.5,107,209.6,106.9l-0.1,2.1c0,0.1,0.2,0.1,0.2,0L209.6,106.9
		C209.7,107,209.7,106.9,209.6,106.9z"/>
	<path class="st1" d="M227.5,99.9L227.5,99.9c-1.1-0.1-2-0.6-2.5-1.5c-0.3-0.9-0.2-2,0.3-2.8c0.1-0.2,0.4-0.3,0.7-0.2
		c0.2,0.1,0.3,0.4,0.2,0.7l0,0c-0.4,0.6-0.5,1.3-0.3,1.9c0.2,0.5,0.8,0.8,1.7,0.9c0.3,0,0.5,0.3,0.5,0.5S227.8,100,227.5,99.9
		L227.5,99.9z"/>
	<path class="st0" d="M208.2,60.5c-3.3,0-5.9-2.6-5.9-5.9c0-3.3,2.6-5.9,5.9-5.9s5.9,2.6,5.9,5.9l0,0
		C214.1,57.9,211.5,60.5,208.2,60.5z M208.2,49.6c-2.8,0-5,2.2-5,5s2.2,5,5,5s5-2.2,5-5C213.2,51.9,211,49.6,208.2,49.6z"/>
	<path class="st0" d="M219.5,59.6c-3.3,0-5.9-2.6-5.9-5.9c0-3.3,2.6-5.9,5.9-5.9s5.9,2.6,5.9,5.9l0,0
		C225.4,57,222.8,59.6,219.5,59.6z M219.5,48.7c-2.8,0-5,2.2-5,5s2.2,5,5,5s5-2.2,5-5S222.3,48.7,219.5,48.7z"/>
	<polygon class="st0" points="168.4,114.2 171,118.8 184.2,118.3 181.8,113.7 	"/>
	<path class="st0" d="M171,119.3c-0.2,0-0.3-0.1-0.4-0.2l-2.6-4.7c-0.1-0.1-0.1-0.3,0-0.4s0.2-0.2,0.4-0.2l13.4-0.4
		c0.2,0,0.3,0.1,0.4,0.2l2.5,4.6c0.1,0.1,0.1,0.3,0,0.4s-0.2,0.2-0.4,0.2L171,119.3L171,119.3z M169.1,114.6l2.2,3.8l12.2-0.5
		l-2-3.7L169.1,114.6z"/>
	<path class="st0" d="M175.2,111.7c-0.5-0.2-1.1-0.2-1.6,0c-0.7,0.3-1.1,0.9-1.1,1.7c0,0.4,0.2,0.9,0.4,1.3s0.5,0.8,0.9,1.1
		c1.2,1,3.9,0.8,3.8-1.2c-0.1-0.6-0.3-1.1-0.6-1.6C176.5,112.3,175.9,111.9,175.2,111.7z"/>
	<path class="st0" d="M175.6,116.7c-0.8,0-1.5-0.2-2.1-0.7c-0.4-0.3-0.8-0.7-1-1.2c-0.3-0.4-0.4-1-0.4-1.5c0-0.9,0.6-1.8,1.4-2.1
		c0.6-0.2,1.3-0.2,1.9,0l0,0c0.8,0.2,1.5,0.7,1.9,1.4c0.4,0.5,0.6,1.1,0.7,1.8c0.1,0.8-0.3,1.6-1.1,2
		C176.5,116.6,176,116.7,175.6,116.7z M174.3,112c-0.2,0-0.4,0-0.5,0.1c-0.5,0.2-0.9,0.7-0.9,1.2c0,0.4,0.1,0.7,0.3,1.1
		s0.4,0.7,0.7,0.9c0.7,0.5,1.7,0.6,2.5,0.3c0.4-0.2,0.7-0.7,0.6-1.2c-0.1-0.5-0.2-0.9-0.5-1.3c-0.4-0.5-0.9-0.9-1.5-1l0,0
		C174.8,112.1,174.6,112,174.3,112z"/>
</g>
</svg>
