<?xml version="1.0" encoding="utf-8"?>
<!-- Generator: Adobe Illustrator 21.0.2, SVG Export Plug-In . SVG Version: 6.00 Build 0)  -->
<svg version="1.1" id="Layer_1" xmlns="http://www.w3.org/2000/svg" xmlns:xlink="http://www.w3.org/1999/xlink" x="0px" y="0px"
	 viewBox="0 0 64 64" style="enable-background:new 0 0 64 64;" xml:space="preserve">
<style type="text/css">
	.st0{fill:#40240F;}
	.st1{fill:#13969D;}
	.st2{fill:#F2C4B2;}
	.st3{fill:#34C1AD;}
	.st4{fill:#F2B59D;}
	.st5{fill:#D9896D;}
	.st6{fill:#43251A;}
	.st7{fill:#107C82;}
	.st8{fill:#E3E3E3;}
</style>
<title></title>
<g id="_30-Doctor">
	<path class="st0" d="M23,11.6V17h-1c-1.1,0-2,0.9-2,2v-5C20.7,12.9,21.8,12.1,23,11.6z"/>
	<path class="st0" d="M44,14v5c0-1.1-0.9-2-2-2h-1v-5.4C42.2,12.1,43.3,12.9,44,14z"/>
	<polygon class="st1" points="53.2,52 54,55 51,55 45,55 45,52 53,52 	"/>
	<polygon class="st2" points="51,55 51,63 45,63 45,58 45,55 	"/>
	<path class="st3" d="M50,40l-10.1-2.9L32,43l-7.9-5.9L14,40l-3.2,12H19v11h26V52h8l0.2,0L50,40z M40,60h-3c-1.1,0-2-0.9-2-2v-6h7v6
		C42,59.1,41.1,60,40,60z"/>
	<path class="st2" d="M44,19v1.4c0,1-0.5,1.9-1.3,2.5L41,24c-2.8-1.3-5.9-2-9-2c-3.1,0-6.2,0.7-9,2l-1.7-1.1
		c-0.8-0.6-1.3-1.5-1.3-2.5V19c0-1.1,0.9-2,2-2h1v-5.4c2.8-1.2,5.9-1.7,9-1.6c3.1-0.1,6.2,0.4,9,1.6V17h1C43.1,17,44,17.9,44,19z"/>
	<path class="st3" d="M41,11.6c-2.8-1.2-5.9-1.7-9-1.6c-3.1-0.1-6.2,0.4-9,1.6c-1.2,0.5-2.3,1.3-3,2.4V9c0-4.4,3.6-8,8-8h8
		c4.4,0,8,3.6,8,8v5C43.3,12.9,42.2,12.1,41,11.6z"/>
	<path class="st1" d="M42,52v6c0,1.1-0.9,2-2,2h-3c-1.1,0-2-0.9-2-2v-6H42z"/>
	<polygon class="st1" points="39.9,37.1 32,43 24.1,37.1 28,36 32,39 36,36 	"/>
	<path class="st1" d="M36,30.1c-2.5,1.2-5.5,1.2-8,0c-2.5-1.2-4.3-3.4-5-6.1c2.8-1.3,5.9-2,9-2c3.1,0,6.2,0.7,9,2
		C40.3,26.7,38.5,28.9,36,30.1z"/>
	<path class="st4" d="M36,30.1V36l-4,3l-4-3v-5.9C30.5,31.3,33.5,31.3,36,30.1z"/>
	<rect x="13" y="55" class="st2" width="6" height="8"/>
	<polygon class="st1" points="19,52 19,55 13,55 10,55 10.8,52 	"/>
	<path class="st5" d="M41,18v4l0.9-0.4c0.7-0.3,1.1-1,1.1-1.8V19c0-0.6-0.4-1-1-1H41z"/>
	<path class="st5" d="M23,18v4l-0.9-0.4c-0.7-0.3-1.1-1-1.1-1.8V19c0-0.6,0.4-1,1-1H23z"/>
	<ellipse class="st5" cx="32" cy="21" rx="0.5" ry="1"/>
	<path class="st6" d="M34.4,14C34.4,14,34.4,14,34.4,14c-0.2,0-0.4-0.3-0.4-0.5c0-0.1,0-1.5,2-1.5s2,1.4,2,1.5
		c0,0.2-0.1,0.3-0.2,0.4c-0.1,0.1-0.3,0-0.4-0.1c-0.1-0.1-0.1-0.2-0.2-0.2c-0.1-0.1-0.1-0.1-0.2-0.1c-0.2-0.1-0.4-0.2-0.6-0.3
		c-0.5-0.1-1.1,0-1.5,0.3C34.8,13.7,34.6,13.9,34.4,14z"/>
	<path class="st6" d="M29.6,14C29.6,14,29.6,14,29.6,14c0.2,0,0.4-0.3,0.4-0.5c0-0.1,0-1.5-2-1.5s-2,1.4-2,1.5
		c0,0.2,0.1,0.3,0.2,0.4c0.1,0.1,0.3,0,0.4-0.1c0.1-0.1,0.1-0.2,0.2-0.2c0.1-0.1,0.1-0.1,0.2-0.1c0.2-0.1,0.4-0.2,0.6-0.3
		c0.5-0.1,1.1,0,1.5,0.3C29.2,13.7,29.4,13.9,29.6,14z"/>
	<ellipse class="st6" cx="36.5" cy="18.5" rx="1" ry="2"/>
	<ellipse class="st6" cx="27.5" cy="18.5" rx="1" ry="2"/>
	<path class="st1" d="M41,9.6c-2.8-1.2-5.9-1.7-9-1.6c-3.1-0.1-6.2,0.4-9,1.6c-1.2,0.5-2.3,1.3-3,2.4v2c0.7-1.1,1.8-1.9,3-2.4
		c2.8-1.2,5.9-1.7,9-1.6c3.1-0.1,6.2,0.4,9,1.6c1.2,0.5,2.3,1.3,3,2.4v-2C43.3,10.9,42.2,10.1,41,9.6z"/>
	<rect x="35" y="52" class="st7" width="7" height="2"/>
	<path class="st8" d="M22.5,37v19.6l-2.7,0.9c-0.2,0.1-0.3,0.3-0.3,0.5v5h1v-4.6l2.5-0.8l2.5,0.8V63h1v-5c0-0.2-0.1-0.4-0.3-0.5
		l-2.7-0.9V37c0-1.4,1.1-2.5,2.5-2.5h2v-1h-2C24.1,33.5,22.5,35.1,22.5,37z"/>
	<path class="st8" d="M38,33.5h-2v1h2c1.4,0,2.5,1.1,2.5,2.5v15h1V37C41.5,35.1,39.9,33.5,38,33.5z"/>
</g>
</svg>
