<?xml version="1.0" encoding="utf-8"?>
<!-- Generator: Adobe Illustrator 21.0.2, SVG Export Plug-In . SVG Version: 6.00 Build 0)  -->
<svg version="1.1" id="Layer_1" xmlns="http://www.w3.org/2000/svg" xmlns:xlink="http://www.w3.org/1999/xlink" x="0px" y="0px"
	 viewBox="0 0 64 64" style="enable-background:new 0 0 64 64;" xml:space="preserve">
<style type="text/css">
	.st0{fill:#34C1AD;}
	.st1{fill:#8F312C;}
	.st2{fill:#5E3616;}
	.st3{fill:#D47470;}
	.st4{fill:#F2B59D;}
	.st5{fill:#E7544C;}
	.st6{fill:#B8514D;}
	.st7{fill:#B54F4A;}
	.st8{fill:#3B220E;}
	.st9{fill:#CEE5DD;}
	.st10{fill:#66B9DE;}
	.st11{fill:#55ADD4;}
	.st12{fill:#75D5FF;}
	.st13{fill:#D4D4D4;}
	.st14{fill:#BFBFBF;}
	.st15{fill:#E3E3E3;}
	.st16{fill:#FFFFFF;}
</style>
<title></title>
<g id="_07-Fever">
	<path class="st0" d="M48,63H6l14-3c0,0,2,2,7,2s7-2,7-2L48,63z"/>
	<path class="st1" d="M31,49h-8c0,0,0-3,4-3S31,49,31,49z"/>
	<path class="st2" d="M8,37c0,0.7,0.1,1.3,0.2,1.9L8,39c0,0-3-2-3-8s4-8,4-8c-3.4,0.1-6.6-1.9-8-5c4.6-1,9-2.6,13-5c7-4,10-4,14-4
		c5,0,9,5,9,5s0.9-1.9,4.7-2c4-0.1,7.3,5,7.3,9v10.9c0,0.7-0.2,1.4-0.6,2.1L46,38l-0.1,0c0-0.3,0.1-0.7,0.1-1v-1c0-1.7-1.3-3-3-3h-2
		v-4c-1.2-0.7-2.3-1.6-3-2.9V22c-1-0.4-2-0.7-3-0.9c-2.6-0.7-5.3-1-8-1.1c-2.7,0-5.4,0.4-8,1.1c-1,0.3-2,0.6-3,0.9v3.5L13,28v5h-2
		c-1.7,0-3,1.3-3,3V37z"/>
	<path class="st3" d="M27,29c3.8,0,7.5,0.7,11,2v-4.9c0.7,1.2,1.8,2.2,3,2.9v4h2c1.7,0,3,1.3,3,3v1c0,0.3,0,0.7-0.1,1
		c-0.2,2.8-2.2,5.2-4.9,6c-0.8,4-3.4,7.4-7,9.2c-4.4,2.3-9.6,2.3-14,0c-3.6-1.9-6.2-5.3-7-9.2c-2.4-0.7-4.2-2.6-4.8-5.1
		C8.1,38.3,8,37.7,8,37v-1c0-1.7,1.3-3,3-3h2v-5l3-2.5V31C19.5,29.7,23.2,29,27,29z M23,49h8c0,0,0-3-4-3S23,49,23,49z"/>
	<path class="st4" d="M34,53.2V60c0,0-2,2-7,2s-7-2-7-2v-6.8C24.4,55.6,29.6,55.6,34,53.2z"/>
	<path class="st4" d="M34,53.2c-4.4,2.3-9.6,2.3-14,0V60c0.4,0.3,0.8,0.6,1.3,0.9L34,55.4V53.2z"/>
	<path class="st3" d="M41,29c-4-2-5-8-5-8c-0.9,2.7-3.2,4.6-6,5l1-4c-2.1,2.7-4.8,4.9-8,6.2c-1.3,0.5-2.6,0.7-4,0.8v-6l-6,5v5h28V29
		z"/>
	<path class="st2" d="M9,23c0,0-4,2-4,8s3,8,3,8l0.2-0.1C8.1,38.3,8,37.7,8,37v-1c0-1.7,1.3-3,3-3h2v-5l-5,2C6,27,9,23,9,23z"/>
	<path class="st2" d="M41,29v4h2c1.7,0,3,1.3,3,3v-5C44.1,31,42.4,30.3,41,29z"/>
	<path class="st5" d="M28,7h-2c0-1,0.5-2,1.3-2.7C27.8,3.8,28,3.5,28,3s-0.2-0.8-0.7-1.3l1.4-1.4C29.5,1,30,2,30,3
		c0,1-0.5,2-1.3,2.7C28.2,6.2,28,6.5,28,7z"/>
	<path class="st5" d="M36,7h-2c0-1,0.5-2,1.3-2.7C35.8,3.8,36,3.5,36,3s-0.2-0.8-0.7-1.3l1.4-1.4C37.5,1,38,2,38,3
		c0,1-0.5,2-1.3,2.7C36.2,6.2,36,6.5,36,7z"/>
	<path class="st5" d="M20,7h-2c0-1,0.5-2,1.3-2.7C19.8,3.8,20,3.5,20,3s-0.2-0.8-0.7-1.3l1.4-1.4C21.5,1,22,2,22,3
		c0,1-0.5,2-1.3,2.7C20.2,6.2,20,6.5,20,7z"/>
	<path class="st2" d="M32,36c-0.1-1.1,0.4-2.2,1.4-2.8c0.6,0.3,1.3,0.5,1.9,0.6c0.5,0.7,0.7,1.4,0.7,2.2c0,1.7-0.9,3-2,3
		S32,37.7,32,36z"/>
	<path class="st2" d="M20.6,33.2c0.9,0.6,1.5,1.7,1.4,2.8c0,1.7-0.9,3-2,3s-2-1.3-2-3c0-0.8,0.2-1.6,0.7-2.2
		C19.3,33.6,20,33.4,20.6,33.2z"/>
	<path class="st6" d="M41,42v-7h1c1.1,0,2,0.9,2,2v1.1c0,1.7-1.1,3.3-2.7,3.8L41,42z"/>
	<path class="st6" d="M13,42v-7h-1c-1.1,0-2,0.9-2,2v1.1c0,1.7,1.1,3.3,2.7,3.8L13,42z"/>
	<ellipse class="st7" cx="27" cy="40" rx="1" ry="2"/>
	<path class="st3" d="M39,27.4c-0.4-0.4-0.7-0.8-1-1.3V31c-3.5-1.3-7.2-2-11-2c-3.8,0-7.5,0.7-11,2v-5.5l-1,0.8L13,28v2l2-2v5
		c3.9-1.3,7.9-2,12-2c4.1,0,8.1,0.7,12,2v-3.9c0.6,0.4,1.3,0.7,2,0.9v-1C40.2,28.6,39.6,28.1,39,27.4z"/>
	<path class="st8" d="M38,35c-1,0-1.9-0.1-2.9-0.3c-0.7-0.1-1.5-0.4-2.2-0.7c-0.7-0.3-1.4-0.8-2-1.4c-0.4-0.4-0.4-1,0-1.4
		c0.4-0.4,1-0.4,1.4,0c0.4,0.4,0.9,0.7,1.4,0.9c0.6,0.2,1.1,0.4,1.7,0.5c0.8,0.2,1.7,0.2,2.5,0.2c0.6,0,1,0.4,1,1S38.6,35,38,35z"/>
	<path class="st8" d="M16,35c-0.6,0-1-0.4-1-1s0.4-1,1-1c0.8,0,1.7-0.1,2.5-0.2c0.6-0.1,1.2-0.3,1.7-0.5c0.5-0.2,1-0.5,1.4-0.9
		c0.4-0.4,1-0.4,1.4,0s0.4,1,0,1.4c-0.6,0.6-1.3,1-2,1.4c-0.7,0.3-1.4,0.5-2.2,0.7C17.9,34.9,17,35,16,35z"/>
	<path class="st9" d="M38,31c-3.5-1.3-7.2-2-11-2c-3.8,0-7.5,0.7-11,2v-9c1-0.4,2-0.7,3-0.9V27c2.6-0.7,5.3-1.1,8-1
		c2.7-0.1,5.4,0.3,8,1v-5.9c1,0.3,2,0.6,3,0.9V31z"/>
	<path class="st10" d="M35,21.1V27c-2.6-0.7-5.3-1.1-8-1c-2.7-0.1-5.4,0.3-8,1v-5.9c2.6-0.7,5.3-1,8-1.1C29.7,20,32.4,20.4,35,21.1z
		"/>
	<path class="st11" d="M27,27c3,0,6,0.3,9,1v-6.7c-0.3-0.1-0.6-0.2-1-0.3V27c-2.6-0.7-5.3-1.1-8-1c-2.7-0.1-5.4,0.3-8,1v-5.9
		c-0.4,0.1-0.7,0.2-1,0.3V28C21,27.3,24,27,27,27z"/>
	<path class="st12" d="M35,25v-3.9c-2.6-0.7-5.3-1-8-1.1c-2.3,0-4.6,0.3-6.8,0.8C21.4,23.1,27.5,24.8,35,25z"/>
	<path class="st13" d="M61,8v3h-8V5c0-2.2,1.8-4,4-4s4,1.8,4,4V8z"/>
	<path class="st5" d="M61,28.5c2.5,2.2,2.7,6,0.5,8.5c-2.2,2.5-6,2.7-8.5,0.5c-2.5-2.2-2.7-6-0.5-8.5c0.1-0.2,0.3-0.3,0.5-0.5V11h8
		V28.5z"/>
	<path class="st14" d="M56,5c0-1.6,1-3.1,2.5-3.7c-2-0.8-4.4,0.1-5.2,2.2C53.1,4,53,4.5,53,5v6h3V5z"/>
	<path class="st5" d="M54,33c0-1.7,0.7-3.3,2-4.5V11h-3v17.5c-2.5,2.2-2.7,6-0.5,8.5c1.5,1.7,3.8,2.4,6,1.8C55.9,38.1,54,35.7,54,33
		z"/>
	<path class="st15" d="M61,28.5V5c0-2.2-1.8-4-4-4s-4,1.8-4,4v23.5c-2.5,2.2-2.7,6-0.5,8.5c2.2,2.5,6,2.7,8.5,0.5
		c2.5-2.2,2.7-6,0.5-8.5C61.3,28.8,61.2,28.7,61,28.5z M57,38c-2.8,0-5-2.2-5-5c0-1.4,0.6-2.8,1.7-3.7c0.2-0.2,0.3-0.5,0.3-0.7V5
		c0-1.7,1.3-3,3-3s3,1.3,3,3v23.5c0,0.3,0.1,0.6,0.3,0.7c2.1,1.8,2.2,5,0.4,7C59.8,37.4,58.4,38,57,38z"/>
	<path class="st15" d="M59,25h2l0,0v2l0,0h-2c-0.6,0-1-0.4-1-1l0,0C58,25.4,58.4,25,59,25z"/>
	<path class="st15" d="M59,19h2l0,0v2l0,0h-2c-0.6,0-1-0.4-1-1l0,0C58,19.4,58.4,19,59,19z"/>
	<path class="st15" d="M59,13h2l0,0v2l0,0h-2c-0.6,0-1-0.4-1-1l0,0C58,13.4,58.4,13,59,13z"/>
	<path class="st15" d="M59,7h2l0,0v2l0,0h-2c-0.6,0-1-0.4-1-1l0,0C58,7.4,58.4,7,59,7z"/>
	<path class="st16" d="M59.9,34c0.7,0.2,1.1-0.9,1.1-1.5c0-0.9-0.5-1.8-1.3-2.2c-0.6-0.3-1.2-0.3-1.8-0.2c-0.3,0-0.5,0.1-0.7,0.3
		C57,30.6,57,30.9,57,31.1c0.1,0.1,0.2,0.3,0.3,0.4l2,2.1C59.5,33.8,59.7,33.9,59.9,34z"/>
	<path class="st15" d="M35,60.2L34,60c0,0-2,2-7,2s-7-2-7-2l-1,0.2c0,0.2,0.1,0.4,0.3,0.5c0.1,0.1,2.4,2.3,7.7,2.3s7.6-2.2,7.7-2.3
		C34.8,60.6,34.9,60.4,35,60.2z"/>
</g>
</svg>
