<?xml version="1.0" encoding="utf-8"?>
<!-- Generator: Adobe Illustrator 21.0.2, SVG Export Plug-In . SVG Version: 6.00 Build 0)  -->
<svg version="1.1" id="_440_soap_flatline" xmlns="http://www.w3.org/2000/svg" xmlns:xlink="http://www.w3.org/1999/xlink" x="0px"
	 y="0px" viewBox="0 0 400 300" style="enable-background:new 0 0 400 300;" xml:space="preserve">
<style type="text/css">
	.st0{fill:#FFFFFF;}
	.st1{fill:#231F20;}
	.st2{fill:#3A52A4;}
	.st3{fill:#D1D3D4;}
	.st4{fill:#FFE0BD;}
</style>
<path class="st0" d="M320.1,150c0,22-6,43.6-17.5,62.4c-1.4,2.3-2.9,4.5-4.4,6.7c-38.1,54.3-113.1,67.3-167.3,29.2
	C103,228.6,84.8,198,80.7,164.1c-0.5-4.7-0.8-9.4-0.8-14.1c0-66.3,53.8-120.1,120.1-120.1S320.1,83.7,320.1,150L320.1,150z"/>
<path class="st1" d="M200,270.6c-61.1,0-112.6-45.7-119.8-106.4c-0.5-4.7-0.8-9.4-0.8-14.2c0-66.6,54-120.6,120.6-120.6
	s120.6,54,120.6,120.6c0,8.5-0.9,17-2.7,25.4c-2.8,13.2-7.9,25.8-14.9,37.2c-1.4,2.3-2.9,4.5-4.4,6.7
	C276.1,251.4,239.3,270.5,200,270.6z M200,30.4C134,30.4,80.4,84,80.4,150S134,269.6,200,269.6c38.9,0,75.4-19,97.8-50.8
	c1.5-2.1,3-4.4,4.4-6.6c34.3-56.5,16.3-130-40.2-164.3C243.3,36.4,221.9,30.4,200,30.4L200,30.4z"/>
<path class="st2" d="M222.3,117.2c0,0,7.9,7.8,7.9,21.9s-37.9,66.7-73.4,82.4c0,0-28.5-12.7-40.4-31.7c0,0,30.4-71.9,38.1-85.6
	s34.6-8.8,45.4-4.9S222.3,117.2,222.3,117.2z"/>
<path class="st1" d="M156.8,222c-0.1,0-0.1,0-0.2,0c-5.5-2.6-10.8-5.5-15.8-8.8c-7.9-5.1-18.6-13.2-24.8-23.1
	c-0.1-0.1-0.1-0.3,0-0.5c0.3-0.7,30.5-72.1,38.1-85.6c3.4-6.1,11-9.3,22-9.3l0,0c8.2,0.1,16.3,1.5,24,4.2
	c10.7,3.8,22.1,17.2,22.7,18c0.4,0.4,8,8.4,8,22.2c0,15-38.6,67.3-73.7,82.8C157,222,156.9,222,156.8,222z M116.9,189.7
	c11.3,17.6,37.3,30,39.9,31.2c15.4-6.9,33.5-22,49.6-41.5c13.5-16.4,23.3-33.3,23.3-40.3c0-13.7-7.6-21.5-7.7-21.5l0,0
	c-0.1-0.1-11.8-14-22.3-17.7c-11.4-4.1-37.4-8.3-44.7,4.7S118.8,185.1,116.9,189.7z"/>
<path class="st0" d="M228.4,107.3l-6.1,9.9c0,0-6.3,1.3-14.9-5.9c-4.7-4-7.7-12-7.7-12l7.7-8.2L228.4,107.3z"/>
<path class="st1" d="M221,117.8c-2.4,0-7.5-0.7-13.9-6.1c-4.8-4-7.7-11.9-7.8-12.2c-0.1-0.2,0-0.4,0.1-0.5l7.7-8.2
	c0.2-0.2,0.5-0.2,0.7-0.1l21,16.1c0.2,0.2,0.3,0.4,0.1,0.7l-6.1,9.9c-0.1,0.1-0.2,0.2-0.3,0.2C221.9,117.8,221.5,117.8,221,117.8z
	 M200.4,99.4c0.6,1.4,3.3,8.1,7.4,11.5c7.4,6.2,13.1,6,14.2,5.8l5.8-9.4l-20.2-15.6L200.4,99.4z"/>
<path class="st3" d="M219.9,95.7c0,0,8.3,7.5,8.6,10.8s-8.9,0-14.1-4.9s-9.1-9.2-6.9-10.5S213.9,92.1,219.9,95.7z"/>
<path class="st1" d="M226.9,108.4c-3.1,0-9.1-2.8-12.8-6.3c-5.6-5.2-7.9-8.2-7.7-10c0.1-0.5,0.4-1,0.8-1.3c2.3-1.4,6.3,0.5,12.9,4.6
	l0.1,0.1c0.3,0.3,8.4,7.7,8.8,11.1c0.1,0.7-0.2,1.3-0.9,1.6C227.8,108.3,227.3,108.4,226.9,108.4z M209,91.3c-0.4,0-0.9,0.1-1.2,0.3
	c-0.2,0.1-0.3,0.3-0.4,0.5c-0.1,1.4,2.3,4.5,7.4,9.2c4.3,4,11.2,6.8,13,5.9c0.2-0.1,0.3-0.2,0.3-0.6c-0.3-2.6-6.1-8.4-8.4-10.5
	C215.5,93.6,211.4,91.3,209,91.3z"/>
<path class="st1" d="M232.7,95l-8.9,8.9c0,0-2.6,0-7.6-4c-4.1-3.3-4.2-6.8-4.2-6.8l6.7-8.4L232.7,95z"/>
<path class="st1" d="M223.7,104.4c-0.1,0-2.8,0-7.9-4.1c-4.3-3.4-4.4-7-4.4-7.2c0-0.1,0-0.3,0.1-0.3l6.7-8.4
	c0.2-0.2,0.5-0.3,0.7-0.1l14,10.3c0.1,0.1,0.2,0.2,0.2,0.4c0,0.2,0,0.3-0.1,0.4l-8.9,8.9C224,104.4,223.9,104.4,223.7,104.4z
	 M212.5,93.3c0.1,0.7,0.7,3.5,4,6.2c4,3.2,6.4,3.8,7.1,3.9l8.3-8.3l-13.1-9.6L212.5,93.3z"/>
<path class="st0" d="M221.5,72.3c0,0,22.5,13.1,32.5,34.1l-4.2,2.9c0,0-13.6-10.4-19.3-14.2s-14-8-16.2-12.2S211,68.3,221.5,72.3z"
	/>
<path class="st1" d="M249.8,109.8c-0.1,0-0.2,0-0.3-0.1s-13.6-10.5-19.3-14.2c-1.3-0.8-2.6-1.7-4.1-2.5c-5.2-3.2-10.5-6.4-12.3-9.8
	c-1.5-2.9-2.4-8.3-0.1-10.8c1.6-1.8,4.2-2,7.9-0.6h0.1c0.2,0.1,22.7,13.4,32.7,34.3c0.1,0.2,0,0.5-0.2,0.6l-4.2,2.9
	C250,109.8,249.9,109.8,249.8,109.8z M217.4,71.9c-1.1-0.1-2.2,0.4-2.9,1.2c-2,2.2-1.1,7.1,0.2,9.7c1.6,3.2,7.1,6.5,11.9,9.4
	c1.5,0.9,2.8,1.7,4.1,2.6c5.2,3.4,17.1,12.4,19.1,14l3.6-2.4c-9.8-20-31.1-32.9-32.1-33.5C220.1,72.3,218.8,72,217.4,71.9z"/>
<path class="st0" d="M249.8,106.5c0,0-18-13.5-22.3-17.6c-2.8-2.8-5.4-5.9-7.6-9.2"/>
<path class="st1" d="M249.8,107c-0.1,0-0.2,0-0.3-0.1c-0.7-0.6-18.1-13.5-22.3-17.7c-2.9-2.8-5.4-5.9-7.7-9.2
	c-0.2-0.2-0.1-0.5,0.1-0.7c0.2-0.2,0.5-0.1,0.7,0.1c2.2,3.3,4.8,6.3,7.6,9.1c4.2,4.1,22.1,17.4,22.2,17.6c0.2,0.2,0.3,0.5,0.1,0.7
	C250.1,107,250,107,249.8,107L249.8,107z"/>
<path class="st4" d="M186.4,93.6c0,0,9,6.6,11.8,11.5s5.6,40.6,1.2,44.9s-10.1,3.4-13.1-10.9c0,0,5.6,18.9-1.2,22.3s-10-7-10-7
	s-0.6,10.9-6.5,9.3s-9.6-14.2-9-22.9l-6.2-6.2c0,0-9.1,11.1-21.2,13.3s-16.5-1.8-16.5-1.8l-31.9,10.2l6.5-41c0,0,18.5-3.4,31-15.9
	s27.8-26.5,44-26.5s29.5-14.3,37.4-12.8s43.5,22.8,38.1,27.7c-8,7.2-34.6-9.8-34.6-9.8L186.4,93.6z"/>
<path class="st1" d="M169.7,164.4c-0.4,0-0.8-0.1-1.2-0.2c-6-1.6-10-13.9-9.4-23.2l-5.7-5.7c-1.8,2-10.3,11.1-21.2,13
	s-15.6-1-16.7-1.8l-31.7,10.2c-0.2,0.1-0.3,0-0.5-0.1c-0.1-0.1-0.2-0.3-0.2-0.4l6.5-41c0-0.2,0.2-0.4,0.4-0.4
	c0.2,0,18.5-3.6,30.8-15.8c12.9-12.9,28-26.6,44.3-26.6c8.8,0,16.6-4.2,23.5-7.9c5.5-3,10.3-5.6,14-4.8c7.1,1.4,36.9,18.8,38.9,26.1
	c0.3,0.9,0.1,1.8-0.6,2.4c-7.8,7-31.8-7.6-34.9-9.5l-18.9,14.9c2,1.5,9,6.9,11.5,11.3c2.6,4.7,5.9,40.8,1.2,45.5
	c-2.1,2.1-4.3,2.9-6.4,2.2c-1.8-0.6-3.4-2.1-4.8-4.7c0.7,5.6,0.6,12-3.4,14c-1.5,0.9-3.4,1-5,0.3c-2.5-1.1-4.1-3.8-4.9-5.7
	c-0.4,2.2-1.2,5.6-3.3,7.1C171.4,164.1,170.6,164.4,169.7,164.4z M153.4,134.1c0.1,0,0.3,0.1,0.4,0.1l6.2,6.2
	c0.1,0.1,0.1,0.2,0.1,0.4c-0.6,8.9,3.2,20.9,8.6,22.4c0.9,0.3,2,0.1,2.8-0.4c2.8-2,3.1-8.4,3.1-8.4c0-0.2,0.2-0.4,0.4-0.5
	c0.2,0,0.5,0.1,0.5,0.4c0,0.1,1.7,5.5,5.1,7c1.4,0.6,2.9,0.4,4.2-0.3c4.6-2.3,3.1-12.2,1.9-17.8c-0.4-1.2-0.7-2.5-1-3.9
	c-0.1-0.3,0.1-0.5,0.4-0.6l0,0c0.3-0.1,0.5,0.1,0.6,0.3s0.5,1.8,1,4.1c1.8,6.1,4.1,8.1,5.9,8.6c2.1,0.6,4.1-0.7,5.4-2
	c4.1-4.1,1.4-39.4-1.3-44.3S186.2,94.1,186.1,94c-0.1-0.1-0.2-0.2-0.2-0.4c0-0.2,0.1-0.3,0.2-0.4l19.7-15.6c0.2-0.1,0.4-0.1,0.6,0
	c0.3,0.2,26.4,16.7,34,9.8c0.4-0.4,0.5-0.9,0.3-1.4c-1.9-6.8-31.3-24-38.2-25.4c-3.4-0.7-8,1.8-13.4,4.7c-6.6,3.6-14.9,8.1-23.9,8.1
	c-16,0-30.9,13.6-43.6,26.3c-11.5,11.5-28.3,15.4-30.9,16l-6.3,39.9l31.2-10c0.2-0.1,0.4,0,0.5,0.1c0,0,4.4,3.9,16.1,1.8
	s20.9-13,20.9-13.1C153.1,134.2,153.2,134.2,153.4,134.1L153.4,134.1z"/>
<path class="st1" d="M186.4,139.6c-0.3,0-0.5-0.2-0.5-0.4c-0.7-6.7-2.3-20-3.9-22.5c-2-3.2-16.9-15.5-17.1-15.6
	c-0.2-0.2-0.2-0.5-0.1-0.7c0.2-0.2,0.5-0.2,0.7-0.1l0,0c0.6,0.5,15.2,12.6,17.3,15.8s4,22.2,4.1,23
	C186.9,139.3,186.7,139.6,186.4,139.6L186.4,139.6z"/>
<path class="st1" d="M175.1,154.9c-0.3,0-0.5-0.2-0.5-0.5c0-0.2-1-17.9-3.4-25.6s-14.6-16.5-14.8-16.6c-0.2-0.2-0.2-0.5-0.1-0.7
	c0.2-0.2,0.4-0.2,0.6-0.1c0.5,0.4,12.6,9.1,15.1,17.1s3.4,25.1,3.4,25.8C175.7,154.6,175.5,154.8,175.1,154.9L175.1,154.9z"/>
<path class="st1" d="M153.4,135.1h-0.1c-0.3-0.1-8.2-2.1-10.4-6c-0.1-0.2-0.1-0.5,0.2-0.7s0.5-0.1,0.7,0.2l0,0
	c2,3.5,9.7,5.5,9.7,5.5c0.3,0,0.5,0.3,0.4,0.6S153.7,135.1,153.4,135.1L153.4,135.1z"/>
<path class="st1" d="M119.4,151.1l-38.6,13c-0.5-4.7-0.8-9.4-0.8-14.1c0-14.2,2.5-28.2,7.4-41.5l25.1-4.3
	C112.4,104.2,118.8,149.8,119.4,151.1z"/>
<path class="st1" d="M80.7,164.7c-0.1,0-0.2,0-0.3-0.1c-0.1-0.1-0.2-0.2-0.2-0.4c-0.6-4.7-0.8-9.4-0.8-14.2
	c0-14.2,2.5-28.3,7.4-41.7c0.1-0.2,0.2-0.3,0.4-0.3l25.1-4.3c0.1,0,0.3,0,0.4,0.1s0.2,0.2,0.2,0.4c2.5,18.1,6.5,45.5,7,46.7
	c0.1,0.3,0,0.6-0.3,0.7l0,0l-38.6,13C80.9,164.6,80.8,164.7,80.7,164.7z M87.7,109c-4.8,13.1-7.2,27-7.2,41c0,4.5,0.2,9,0.7,13.4
	l37.5-12.7c-1.1-4.9-5.7-37.7-6.8-45.9L87.7,109z"/>
<path class="st0" d="M278.5,163.7c0.8-1.5,1.3-3.1,1.6-4.8c0.5-2.7-0.1-5.4-1.6-7.6c-2.6-3.6-7.6-4.5-11.9-5.9
	c-1-0.2-1.8-0.8-2.3-1.6c-0.3-0.9-0.1-1.9,0.4-2.6c1.3-2.3,3.6-4.1,4.2-6.7c0.2-0.6,0.1-1.3-0.1-1.9c-0.8-1.6-3-1.5-4.7-1.2
	c-2.6,0.5-5.8,1.6-8.4,1.5s-2.3-2.1-1.9-4.6c0.3-1.9,0.5-4.1-0.8-5.4c-0.2-0.2-0.4-0.3-0.6-0.3c-0.2,0-0.5,0.1-0.7,0.2
	c-1.3,0.5-2.4,1.2-3.5,2.1s-1.7,2.2-1.8,3.6c0.1,0.7,0.1,1.4,0,2.1c-0.4,1.3-1.9,1.8-3.1,2.4c-1.6,0.8-3.1,2.3-3,4.1
	s2.3,4.2,1.8,5.7c-0.8,2.5-3.5,0.9-5.3,0.9c-2.2,0-3.8,2.3-3.9,4.4c0,0.7,0,1.5-0.1,2.2c-0.4,1.2-1.3,2.2-2.6,2.6
	c-3.6,1.5-7.7,0.6-11.5,1.6c-3.1,0.9-6.2,3.6-5.8,6.9c0.3,1.1,0.5,2.2,0.6,3.2c-0.2,2.8-3.7,3.8-6,5.3c-4.4,2.9-4.9,10-1.1,13.5
	c5.9,5.4,21.7,3.4,29,2.6c8.1-0.9,16.9-1.4,24.4-4.7c7.1-3.1,13.2-8.3,17.3-14.9C277.5,165.5,278,164.6,278.5,163.7z"/>
<path class="st1" d="M220.8,187.4c-6,0-11.8-0.8-15-3.8c-3.7-3.8-3.6-9.8,0.1-13.5c0.3-0.3,0.7-0.6,1-0.9c0.6-0.4,1.3-0.8,1.9-1.1
	c1.9-1,3.7-2,3.9-3.8c0-0.6-0.1-1.2-0.3-1.8c-0.1-0.4-0.2-0.9-0.3-1.3c-0.4-3.6,2.9-6.5,6.2-7.4c1.7-0.4,3.5-0.6,5.2-0.6
	c2.1,0.1,4.2-0.3,6.2-0.9c1.1-0.4,1.9-1.2,2.3-2.3c0.1-0.5,0.1-0.9,0.1-1.4c0-0.2,0-0.5,0-0.7c0.1-2.3,1.8-4.9,4.4-4.9
	c0.6,0,1.2,0.1,1.8,0.3c1.8,0.4,2.7,0.4,3.1-0.8c0.2-0.7-0.4-1.8-0.8-2.8c-0.5-0.8-0.8-1.8-1-2.7c-0.1-2.1,1.7-3.7,3.3-4.5l0.6-0.3
	c1-0.5,2.1-1,2.3-1.9c0.1-0.4,0.1-0.8,0-1.2c0-0.3,0-0.5,0-0.8c0.1-1.5,0.8-2.9,2-3.9c1.1-0.9,2.3-1.6,3.6-2.2
	c0.3-0.2,0.6-0.2,0.9-0.2c0.3,0.1,0.6,0.2,0.9,0.5c1.6,1.5,1.4,3.9,1,5.9v0.3c-0.2,1.4-0.5,2.6,0,3.2c0.4,0.4,0.9,0.6,1.5,0.5
	c1.9-0.1,3.8-0.4,5.6-0.9c1-0.2,1.9-0.5,2.7-0.6c3.5-0.6,4.8,0.5,5.3,1.5c0.3,0.7,0.4,1.5,0.2,2.2c-0.5,1.7-1.4,3.2-2.5,4.5
	c-0.6,0.7-1.2,1.5-1.7,2.4c-0.5,0.6-0.6,1.4-0.4,2.2c0.5,0.7,1.2,1.2,2,1.3c0.8,0.3,1.6,0.5,2.5,0.8c3.6,1.1,7.4,2.2,9.7,5.3
	c1.6,2.3,2.2,5.2,1.6,8c-0.3,1.7-0.8,3.4-1.6,4.9l0,0c-0.4,0.9-0.9,1.8-1.5,2.6c-4.3,6.7-10.4,11.9-17.7,15.1
	c-6.4,2.8-13.7,3.6-20.7,4.3l-3.8,0.4l-0.8,0.1C230,187,225.4,187.4,220.8,187.4z M236.6,144L236.6,144c-1.9,0-3.3,2.1-3.4,4
	c0,0.2,0,0.5,0,0.7c0,0.5,0,1.1-0.1,1.6c-0.4,1.4-1.5,2.5-2.9,3c-2.1,0.7-4.3,1.1-6.5,1c-1.7,0-3.4,0.2-5,0.6
	c-3,0.8-5.8,3.4-5.4,6.3c0.1,0.4,0.1,0.8,0.2,1.2c0.2,0.7,0.3,1.4,0.3,2.1c-0.2,2.4-2.3,3.5-4.4,4.6c-0.7,0.4-1.3,0.7-1.9,1.1
	c-3.8,2.8-4.5,8.2-1.7,11.9c0.2,0.3,0.4,0.6,0.7,0.8c5.6,5.1,20.7,3.4,27.9,2.5l0.7-0.1c1.3-0.1,2.5-0.3,3.8-0.4
	c6.9-0.7,14.1-1.5,20.4-4.2c7-3.1,13-8.2,17.1-14.8c0.5-0.8,1-1.6,1.4-2.5l0,0c0.7-1.5,1.3-3,1.5-4.6c0.5-2.5,0-5.1-1.5-7.3
	c-2-2.8-5.6-3.9-9.1-4.9c-0.9-0.2-1.7-0.5-2.5-0.8c-1.1-0.2-2-0.9-2.6-1.9c-0.3-1-0.2-2.2,0.5-3.1c0.5-0.9,1.1-1.7,1.8-2.5
	c1.1-1.2,1.9-2.6,2.4-4.1c0.1-0.5,0.1-1.1-0.1-1.6c-0.6-1.3-2.6-1.2-4.2-0.9c-0.8,0.1-1.7,0.4-2.6,0.6c-1.9,0.6-3.9,0.9-5.9,0.9
	c-0.8,0-1.6-0.3-2.2-0.9c-0.7-0.9-0.5-2.4-0.2-4l0.1-0.3c0.3-1.8,0.5-3.8-0.7-5c-0.1-0.2-0.2-0.2-0.3-0.2s-0.3,0-0.4,0.1
	c-1.2,0.5-2.4,1.2-3.4,2s-1.6,1.9-1.7,3.2c0,0.2,0,0.4,0,0.7c0.1,0.5,0,1-0.1,1.6c-0.4,1.3-1.7,1.9-2.9,2.5l-0.5,0.2
	c-1.3,0.6-2.8,1.9-2.8,3.6c0.1,0.8,0.4,1.6,0.9,2.3c0.6,1.2,1.2,2.5,0.9,3.6c-0.7,2.2-2.7,1.8-4.2,1.4
	C237.6,144.1,237.1,144,236.6,144z"/>
<path class="st4" d="M314.1,177.3l-1.2,13.7c-2.7,7.5-6.2,14.7-10.3,21.4l-21.3-5.4l-3.1-0.8c0,0-14,10-49.1,3.6
	c-7.9-1.4-42.6-22.5-52.6-27.7s-7.4-12.9,1.3-12c4.5,0.5,19.6,2.4,33,4.1l10.8,1.4h0.2h0.2l6.7,0.9c-6.9-1.7-9.1-6.1-3.8-11.1
	c6.6-6.1,32.4-15.7,41.1-16.2c5-0.2,9.9,3.6,14,7.9c3.1,3.1,5.8,6.4,7.9,8.3c2.4,1.8,5,3.3,7.7,4.5
	C303.7,173.6,314.1,177.3,314.1,177.3z"/>
<path class="st1" d="M302.6,212.9h-0.1l-24.2-6.1c-1.9,1.2-16.1,9.6-49.2,3.5c-5.7-1-25.1-12.1-39.3-20.2
	c-5.7-3.2-10.6-6.1-13.5-7.6c-6-3.1-7.3-6.8-6.6-9.2c0.8-2.7,4-4.1,8.2-3.7c5.3,0.5,24.9,3.1,33,4.1l10.8,1.4l0.4,0.1l2.6,0.3
	c-1.4-0.7-2.5-2-3-3.6c-0.4-1.5-0.2-3.9,3-6.8c6.7-6.2,32.5-15.9,41.4-16.3c5.6-0.3,10.9,4.4,14.4,8c1.4,1.4,2.8,2.9,4,4.2
	c1.5,1.6,2.8,3.1,3.9,4.1c2.3,1.8,4.9,3.2,7.6,4.4c7.8,3.6,18.2,7.3,18.3,7.3c0.2,0.1,0.4,0.3,0.3,0.5l-1.3,13.7v0.1
	c-2.7,7.5-6.2,14.7-10.3,21.5C303,212.8,302.8,212.9,302.6,212.9z M278.2,205.7h0.1l24.1,6.1c4-6.7,7.4-13.7,10-21l1.2-13.2
	c-1.9-0.7-11-4-18-7.2c-2.8-1.2-5.4-2.7-7.9-4.6c-1.1-1-2.4-2.5-4-4.1c-1.2-1.3-2.5-2.8-3.9-4.2c-3.4-3.4-8.5-8-13.6-7.7
	c-8.6,0.4-34.4,10.1-40.8,16c-2.2,2.1-3.2,4.1-2.7,5.9c0.5,2,2.7,3.5,6.2,4.4c0.3,0,0.5,0.3,0.4,0.6s-0.3,0.5-0.6,0.4l-6.7-0.9h-0.4
	l-10.8-1.4c-8.2-1.1-27.7-3.6-33-4.1c-3.6-0.4-6.4,0.8-7.1,3c-0.6,1.9,0.7,5.2,6.1,8c2.9,1.5,7.8,4.3,13.5,7.6
	c14.1,8,33.4,19.1,38.9,20.1c18,3.3,30.3,2.2,37.4,0.6c7.7-1.6,11.2-4.1,11.3-4.1C278,205.7,278.1,205.7,278.2,205.7z"/>
<path class="st1" d="M228.4,177.1c-0.2,0-0.4-0.1-0.5-0.3c-0.1-0.3,0-0.5,0.3-0.6c1-0.4,23.4-8.8,32.8-7c0.3,0.1,0.4,0.3,0.4,0.6
	c-0.1,0.3-0.3,0.4-0.6,0.4c-9.1-1.7-32,6.9-32.2,7C228.5,177.2,228.5,177.1,228.4,177.1z"/>
<path class="st1" d="M239.8,199.6c-12.7,0-29.2-6.3-40.1-10.4c-3.4-1.4-6.8-2.6-10.3-3.6c-4.7-1.1-7.6-2.8-8.5-5
	c-0.6-1.6-0.3-3.3,0.9-5.2c3-4.6,36.6-0.7,40.4-0.2c0.3,0,0.5,0.3,0.4,0.6s-0.3,0.5-0.6,0.4c-14.7-1.8-37.4-3.3-39.4-0.2
	c-1.1,1.6-1.4,3.1-0.9,4.3c0.8,1.9,3.4,3.4,7.8,4.4c3.5,1,7,2.2,10.4,3.6c10.9,4.1,27.3,10.4,39.8,10.4h0.5c0.3,0,0.5,0.2,0.5,0.5
	s-0.2,0.5-0.5,0.5h-0.4V199.6z"/>
<path class="st1" d="M317.4,175.3c-2.8,13.1-7.8,25.6-14.8,37.1c-1.4,2.3-2.9,4.5-4.4,6.7l-18.2-8.6l1.4-3.5l14.4-37.1l1-2.5
	C296.8,167.5,308,171.6,317.4,175.3z"/>
<path class="st1" d="M298.2,219.6c-0.1,0-0.2,0-0.2-0.1l-18.2-8.5c-0.3-0.1-0.4-0.4-0.3-0.7l16.8-43c0.1-0.3,0.4-0.4,0.7-0.3l0,0
	c0.1,0.1,11.4,4.2,20.6,7.8c0.2,0.1,0.4,0.4,0.3,0.6c-2.8,13.2-7.8,25.8-14.9,37.3c-1.4,2.3-2.9,4.5-4.4,6.7
	C298.6,219.5,298.4,219.6,298.2,219.6z M280.7,210.2l17.4,8.1c1.4-2,2.8-4.1,4.1-6.3c4.1-6.8,7.5-13.9,10.2-21.3
	c1.8-4.9,3.3-10,4.4-15.1c-8-3.1-17.5-6.6-19.7-7.5L280.7,210.2z"/>
<path class="st3" d="M251,148.7c-1.8,0-3.6-0.5-5.2-1.4c-0.2-0.2-0.2-0.5,0-0.7s0.4-0.2,0.6-0.1c0.2,0.2,6.2,4.1,12.7-2.8
	c0.2-0.2,0.5-0.2,0.7,0l0,0c0.2,0.2,0.2,0.5,0,0.7l0,0C256.7,147.8,253.5,148.7,251,148.7z"/>
<path class="st3" d="M221.5,166.4c-2.4,0-4.3-1.9-4.4-4.3c0-0.1,0-0.1,0-0.2c0-0.3,0.2-0.5,0.5-0.5s0.5,0.2,0.5,0.5
	c0,1.8,1.4,3.4,3.2,3.4c0.3,0,0.7,0,1-0.1s0.6,0.1,0.6,0.4c0.1,0.3-0.1,0.6-0.4,0.6C222.2,166.3,221.9,166.4,221.5,166.4z"/>
</svg>
