<?xml version="1.0" encoding="utf-8"?>
<!-- Generator: Adobe Illustrator 21.0.2, SVG Export Plug-In . SVG Version: 6.00 Build 0)  -->
<svg version="1.1" id="Layer_1" xmlns="http://www.w3.org/2000/svg" xmlns:xlink="http://www.w3.org/1999/xlink" x="0px" y="0px"
	 viewBox="0 0 414 282" style="enable-background:new 0 0 414 282;" xml:space="preserve">
<g id="Page-1">
	<g id="_x30_02---Virus" transform="translate(-1)">
		<path id="Shape" d="M289.3,35.3c-5,0-9.1,4.1-9.1,9.1s4.1,9.1,9.1,9.1s9.1-4.1,9.1-9.1C298.5,39.4,294.4,35.3,289.3,35.3z"/>
		<path id="Shape_1_" d="M517.5,215.9c-6.4-3.1-11.6-8.1-15-14.3c-5-9.8-11.9-24.1-18.7-40.4c-7.5,5.3-15.5,9.9-23.9,13.8
			c11.8,15.4,21.1,29.4,26,37.1c3.5,5.6,5.1,12.2,4.5,18.8c-0.5,7.8,4.1,15,11.3,18s15.5,1,20.7-4.9c5.1-5.9,6-14.4,2.1-21.1
			C522.9,219.9,520.5,217.4,517.5,215.9L517.5,215.9z"/>
		<path id="Shape_2_" d="M276.9,202.3c-3.1,5.8-8,10.5-14,13.3c-7,3.5-11,11.1-9.9,18.8c1.1,7.7,6.9,14,14.6,15.5s15.4-2,19.4-8.7
			c1.7-2.9,2.6-6.3,2.5-9.6c-0.5-7.1,1.2-14.1,4.9-20.1c6-9.2,14.9-22.4,25.6-36.4c-8.3-3.9-16.3-8.5-23.9-13.8
			C289,177.9,282,192.4,276.9,202.3L276.9,202.3z"/>
		<path id="Shape_3_" d="M262.3-163.6c6.3,3.1,11.6,8.1,15,14.3c5,9.8,11.9,24.1,18.7,40.4c7.6-5.3,15.5-9.9,23.9-13.8
			c-11.1-14.5-20.1-27.9-26.1-37.1c-3.5-5.6-5.1-12.2-4.5-18.7c0.5-7.8-4.1-15-11.3-18s-15.5-1-20.7,4.9c-5.2,5.9-6,14.4-2.1,21.2
			C256.9-167.6,259.4-165.2,262.3-163.6z"/>
		<path id="Shape_4_" d="M502.9-150.1c3.1-5.8,8.1-10.5,14-13.3c7-3.5,11-11.1,9.9-18.8c-1.1-7.7-6.9-14-14.6-15.5
			c-7.7-1.5-15.4,2-19.4,8.7c-1.7,2.9-2.6,6.3-2.5,9.6c0.5,7.1-1.2,14.1-4.9,20.1c-6,9.2-14.9,22.4-25.6,36.4
			c8.3,3.9,16.3,8.5,23.9,13.8C490.8-125.8,497.8-140.3,502.9-150.1z"/>
		<circle id="Oval" cx="362.5" cy="-28.7" r="27.4"/>
		<path id="Shape_5_" d="M225.9,39.9c-0.4-4.6-0.6-9.1-0.6-13.8c0-4.6,0.2-9.2,0.6-13.8c-18.1,2.4-34.1,3.5-45.1,4
			c-6.6,0.2-13.1-1.7-18.5-5.5c-7.6-5.2-17.9-4-24,2.9s-6.1,17.3,0,24.2c5.9,6.7,15.8,8.3,23.6,3.7c5.9-3.9,12.8-6,19.9-5.8
			C192.6,36.5,208.5,37.6,225.9,39.9L225.9,39.9z"/>
		<circle id="Oval_1_" cx="463" cy="-1.3" r="9.1"/>
		<path id="Shape_6_" d="M641.6,14.3c-6-6.7-15.8-8.3-23.6-3.7c-5.9,4-12.8,6-19.9,5.8c-11-0.6-26.8-1.7-44.3-4
			c0.4,4.6,0.6,9.2,0.6,13.8c0,4.6-0.2,9.2-0.6,13.8c19.3-2.5,36.1-3.6,45.1-4c6.6-0.2,13.1,1.7,18.5,5.5c7.6,5.2,17.8,3.9,23.9-3
			S647.6,21.2,641.6,14.3L641.6,14.3z"/>
		<path id="Shape_7_" d="M604.9,129.1c-3-1.8-6.4-2.6-9.9-2.4c-6.9,0.5-13.9-1.2-19.8-4.9c-14.5-9.4-28.2-19.1-40.7-28.9
			c-6.1-4.8-8.4-13-5.9-20.3c10.1-30.1,10.1-62.7,0-92.9c-2.5-7.4-0.2-15.5,5.9-20.3c16.3-12.8,31.5-23,41.3-29.3
			c5.6-3.5,12.3-5.1,18.9-4.5c4.8,0.2,9.5-1.4,13.2-4.6c5.5-4.8,7.5-12.5,5.2-19.4c-2.3-6.9-8.5-11.8-15.8-12.5
			c-7.3-0.6-14.2,3.1-17.7,9.5c-3.1,6.3-8,11.5-14.2,14.8c-9.4,4.8-32.3,14.9-45.1,20.4c-7.3,3.1-15.8,1.2-21-4.8
			c-21-23.7-49.1-39.9-80-46.3c-7.8-1.5-13.8-7.9-14.7-15.8c-1.6-14.2-4.4-39.6-4.9-50.2c-0.2-6.5,1.7-12.9,5.5-18.3
			c4.3-6.5,4-15.1-0.8-21.2c-4.8-6.2-12.9-8.7-20.3-6.2s-12.4,9.4-12.4,17.2c0,3.4,0.9,6.7,2.7,9.6c3.9,5.8,6,12.7,5.8,19.8
			c-0.5,10.5-3.3,35.3-4.9,49.2c-0.9,7.9-6.9,14.3-14.7,15.8c-31,6.3-59.1,22.6-80.1,46.3c-5.2,6-13.7,7.9-21,4.8
			c-13.1-5.7-36.4-15.9-45.8-20.8c-5.8-3.1-10.5-8-13.3-14c-2.8-5.4-8.1-9.1-14.1-9.8c-6-0.8-12.1,1.5-16.1,6.1
			c-3.6,4.1-5.2,9.7-4.3,15.1s4.2,10.1,9,12.8c3,1.7,6.4,2.6,9.8,2.4c6.9-0.5,13.9,1.2,19.8,4.9c14.5,9.4,28.2,19.1,40.7,28.9
			c6.1,4.8,8.4,13,5.9,20.4c-10.1,30.1-10.1,62.7,0,92.8c2.5,7.3,0.2,15.5-5.9,20.3c-16.3,12.8-31.5,23-41.3,29.3
			c-5.6,3.5-12.3,5-18.9,4.5c-4.8-0.2-9.5,1.4-13.2,4.6c-7,6.2-8.2,16.7-2.7,24.3c5.5,7.6,15.8,9.9,23.9,5.2c3-1.7,5.4-4.2,7-7.2
			c3.1-6.3,8-11.5,14.2-14.8c9.4-4.8,32.3-14.9,45.1-20.4c2.3-1,4.7-1.5,7.2-1.5c5.3,0,10.3,2.3,13.8,6.3
			c21,23.7,49.1,39.9,80.1,46.3c7.8,1.5,13.8,7.9,14.7,15.8c1.6,14.1,4.4,39.5,4.9,50.1c0.2,6.5-1.7,13-5.5,18.4
			c-4.3,6.5-4,15.1,0.8,21.2c4.8,6.2,12.9,8.7,20.4,6.2s12.4-9.4,12.4-17.3c0-3.4-0.9-6.8-2.7-9.6c-3.9-5.8-6-12.7-5.7-19.7
			c0.7-13.4,2.2-34.1,5.7-56.1c0.5-4,3.6-7.2,7.6-7.9c33.4-5.3,63.9-22,86.3-47.4c5.2-6,13.7-7.9,21-4.8c13.1,5.7,36.5,16,45.8,20.8
			c5.8,3.1,10.5,8,13.2,14c2.8,5.4,8.1,9.1,14.1,9.9s12.1-1.5,16.1-6.1c3.6-4.1,5.2-9.7,4.3-15.1
			C612.9,136.4,609.7,131.8,604.9,129.1L604.9,129.1z M289.3,71.8c-15.1,0-27.4-12.3-27.4-27.4S274.2,17,289.3,17
			s27.4,12.3,27.4,27.4C316.8,59.6,304.5,71.8,289.3,71.8z M316.8-28.7c0-25.2,20.5-45.7,45.7-45.7s45.7,20.5,45.7,45.7
			S387.7,17,362.5,17C337.2,17,316.8-3.5,316.8-28.7z M399,144.9c-30.3,0-54.9-24.6-54.9-54.9s24.6-54.9,54.9-54.9
			s54.9,24.6,54.9,54.9C453.9,120.4,429.3,144.9,399,144.9z M463,26.1c-15.1,0-27.4-12.3-27.4-27.4c0-15.1,12.3-27.4,27.4-27.4
			s27.4,12.3,27.4,27.4C490.5,13.8,478.2,26.1,463,26.1z"/>
		<path id="Shape_8_" d="M399,53.6c-20.2,0-36.6,16.4-36.6,36.6s16.4,36.6,36.6,36.6s36.6-16.4,36.6-36.6
			C435.6,69.9,419.2,53.6,399,53.6z"/>
	</g>
</g>
</svg>
