<?xml version="1.0" encoding="utf-8"?>
<!-- Generator: Adobe Illustrator 21.0.2, SVG Export Plug-In . SVG Version: 6.00 Build 0)  -->
<svg version="1.1" id="Layer_1" xmlns="http://www.w3.org/2000/svg" xmlns:xlink="http://www.w3.org/1999/xlink" x="0px" y="0px"
	 viewBox="0 0 686 511.9" style="enable-background:new 0 0 686 511.9;" xml:space="preserve">
<g id="Page-1">
	<g id="_x30_02---Virus" transform="translate(-1)">
		<path id="Shape" d="M330.4,265.1c-5,0-9.1,4.1-9.1,9.1c0,5,4.1,9.1,9.1,9.1c5,0,9.1-4.1,9.1-9.1
			C339.6,269.2,335.5,265.1,330.4,265.1z"/>
		<path id="Shape_1_" d="M558.6,445.7c-6.4-3.1-11.6-8.1-15-14.3c-5-9.8-11.9-24.1-18.7-40.4c-7.5,5.3-15.5,9.9-23.9,13.8
			c11.8,15.4,21.1,29.4,26,37.1c3.5,5.6,5.1,12.2,4.5,18.8c-0.5,7.8,4.1,15,11.3,18s15.5,1,20.7-4.9c5.1-5.9,6-14.4,2.1-21.1
			C564,449.7,561.6,447.3,558.6,445.7L558.6,445.7z"/>
		<path id="Shape_2_" d="M318,432.1c-3.1,5.8-8,10.5-14,13.3c-7,3.5-11,11.1-9.9,18.8c1.1,7.7,6.9,14,14.6,15.5
			c7.7,1.5,15.4-2,19.4-8.7c1.7-2.9,2.6-6.3,2.5-9.6c-0.5-7.1,1.2-14.1,4.9-20.1c6-9.2,14.9-22.4,25.6-36.4
			c-8.3-3.9-16.3-8.5-23.9-13.8C330.1,407.8,323.1,422.3,318,432.1L318,432.1z"/>
		<path id="Shape_3_" d="M303.4,66.2c6.3,3.1,11.6,8.1,15,14.3c5,9.8,11.9,24.1,18.7,40.4c7.6-5.3,15.5-9.9,23.9-13.8
			c-11.1-14.5-20.1-27.9-26.1-37.1c-3.5-5.6-5.1-12.2-4.5-18.7c0.5-7.8-4.1-15-11.3-18s-15.5-1-20.7,4.9s-6,14.4-2.1,21.2
			C298,62.2,300.5,64.6,303.4,66.2z"/>
		<path id="Shape_4_" d="M544,79.7c3.1-5.8,8.1-10.5,14-13.3c7-3.5,11-11.1,9.9-18.8s-6.9-14-14.6-15.5s-15.4,2-19.4,8.7
			c-1.7,2.9-2.6,6.3-2.5,9.6c0.5,7.1-1.2,14.1-4.9,20.1c-6,9.2-14.9,22.4-25.6,36.4c8.3,3.9,16.3,8.5,23.9,13.8
			C531.9,104,538.9,89.5,544,79.7z"/>
		<circle id="Oval" cx="403.6" cy="201.1" r="27.4"/>
		<path id="Shape_5_" d="M267,269.7c-0.4-4.6-0.6-9.1-0.6-13.8c0-4.6,0.2-9.2,0.6-13.8c-18.1,2.4-34.1,3.5-45.1,4
			c-6.6,0.2-13.1-1.7-18.5-5.5c-7.6-5.2-17.9-4-24,2.9s-6.1,17.3,0,24.2c5.9,6.7,15.8,8.3,23.6,3.7c5.9-3.9,12.8-6,19.9-5.8
			C233.7,266.3,249.6,267.4,267,269.7L267,269.7z"/>
		<circle id="Oval_1_" cx="504.1" cy="228.5" r="9.1"/>
		<path id="Shape_6_" d="M682.7,244.1c-6-6.7-15.8-8.3-23.6-3.7c-5.9,4-12.8,6-19.9,5.8c-11-0.6-26.8-1.7-44.3-4
			c0.4,4.6,0.6,9.2,0.6,13.8c0,4.6-0.2,9.2-0.6,13.8c19.3-2.5,36.1-3.6,45.1-4c6.6-0.2,13.1,1.7,18.5,5.5c7.6,5.2,17.8,3.9,23.9-3
			S688.7,251,682.7,244.1L682.7,244.1z"/>
		<path id="Shape_7_" d="M646,358.9c-3-1.8-6.4-2.6-9.9-2.4c-6.9,0.5-13.9-1.2-19.8-4.9c-14.5-9.4-28.2-19.1-40.7-28.9
			c-6.1-4.8-8.4-13-5.9-20.3c10.1-30.1,10.1-62.7,0-92.9c-2.5-7.4-0.2-15.5,5.9-20.3c16.3-12.8,31.5-23,41.3-29.3
			c5.6-3.5,12.3-5.1,18.9-4.5c4.8,0.2,9.5-1.4,13.2-4.6c5.5-4.8,7.5-12.5,5.2-19.4c-2.3-6.9-8.5-11.8-15.8-12.5
			c-7.3-0.6-14.2,3.1-17.7,9.5c-3.1,6.3-8,11.5-14.2,14.8c-9.4,4.8-32.3,14.9-45.1,20.4c-7.3,3.1-15.8,1.2-21-4.8
			c-21-23.7-49.1-39.9-80-46.3c-7.8-1.5-13.8-7.9-14.7-15.8c-1.6-14.2-4.4-39.6-4.9-50.2c-0.2-6.5,1.7-12.9,5.5-18.3
			c4.3-6.5,4-15.1-0.8-21.2c-4.8-6.2-12.9-8.7-20.3-6.2s-12.4,9.4-12.4,17.2c0,3.4,0.9,6.7,2.7,9.6c3.9,5.8,6,12.7,5.8,19.8
			c-0.5,10.5-3.3,35.3-4.9,49.2c-0.9,7.9-6.9,14.3-14.7,15.8c-31,6.3-59.1,22.6-80.1,46.3c-5.2,6-13.7,7.9-21,4.8
			c-13.1-5.7-36.4-15.9-45.8-20.8c-5.8-3.1-10.5-8-13.3-14c-2.8-5.4-8.1-9.1-14.1-9.8c-6-0.8-12.1,1.5-16.1,6.1
			c-3.6,4.1-5.2,9.7-4.3,15.1c0.9,5.4,4.2,10.1,9,12.8c3,1.7,6.4,2.6,9.8,2.4c6.9-0.5,13.9,1.2,19.8,4.9
			c14.5,9.4,28.2,19.1,40.7,28.9c6.1,4.8,8.4,13,5.9,20.4c-10.1,30.1-10.1,62.7,0,92.8c2.5,7.3,0.2,15.5-5.9,20.3
			c-16.3,12.8-31.5,23-41.3,29.3c-5.6,3.5-12.3,5-18.9,4.5c-4.8-0.2-9.5,1.4-13.2,4.6c-7,6.2-8.2,16.7-2.7,24.3
			c5.5,7.6,15.8,9.9,23.9,5.2c3-1.7,5.4-4.2,7-7.2c3.1-6.3,8-11.5,14.2-14.8c9.4-4.8,32.3-14.9,45.1-20.4c2.3-1,4.7-1.5,7.2-1.5
			c5.3,0,10.3,2.3,13.8,6.3c21,23.7,49.1,39.9,80.1,46.3c7.8,1.5,13.8,7.9,14.7,15.8c1.6,14.1,4.4,39.5,4.9,50.1
			c0.2,6.5-1.7,13-5.5,18.4c-4.3,6.5-4,15.1,0.8,21.2c4.8,6.2,12.9,8.7,20.4,6.2s12.4-9.4,12.4-17.3c0-3.4-0.9-6.8-2.7-9.6
			c-3.9-5.8-6-12.7-5.7-19.7c0.7-13.4,2.2-34.1,5.7-56.1c0.5-4,3.6-7.2,7.6-7.9c33.4-5.3,63.9-22,86.3-47.4c5.2-6,13.7-7.9,21-4.8
			c13.1,5.7,36.5,16,45.8,20.8c5.8,3.1,10.5,8,13.2,14c2.8,5.4,8.1,9.1,14.1,9.9c6,0.8,12.1-1.5,16.1-6.1c3.6-4.1,5.2-9.7,4.3-15.1
			C654,366.3,650.8,361.6,646,358.9L646,358.9z M330.4,301.6c-15.1,0-27.4-12.3-27.4-27.4c0-15.1,12.3-27.4,27.4-27.4
			c15.1,0,27.4,12.3,27.4,27.4C357.9,289.4,345.6,301.6,330.4,301.6z M357.9,201.1c0-25.2,20.5-45.7,45.7-45.7
			c25.2,0,45.7,20.5,45.7,45.7s-20.5,45.7-45.7,45.7C378.3,246.8,357.9,226.3,357.9,201.1z M440.1,374.8
			c-30.3,0-54.9-24.6-54.9-54.9c0-30.3,24.6-54.9,54.9-54.9c30.3,0,54.9,24.6,54.9,54.9C495,350.2,470.4,374.8,440.1,374.8z
			 M504.1,255.9c-15.1,0-27.4-12.3-27.4-27.4c0-15.1,12.3-27.4,27.4-27.4s27.4,12.3,27.4,27.4C531.6,243.6,519.3,255.9,504.1,255.9z
			"/>
		<path id="Shape_8_" d="M440.1,283.4c-20.2,0-36.6,16.4-36.6,36.6c0,20.2,16.4,36.6,36.6,36.6c20.2,0,36.6-16.4,36.6-36.6
			C476.7,299.7,460.3,283.4,440.1,283.4z"/>
	</g>
</g>
<g id="Page-1_1_">
	<g id="_x30_02---Virus_1_" transform="translate(-1)">
		<path id="Shape_17_" d="M71.7,85.1c-1.6,0-2.9,1.3-2.9,2.9s1.3,2.9,2.9,2.9c1.6,0,2.9-1.3,2.9-2.9S73.3,85.1,71.7,85.1z"/>
		<path id="Shape_16_" d="M144.5,142.8c-2-1-3.7-2.6-4.8-4.6c-1.6-3.1-3.8-7.7-6-12.9c-2.4,1.7-5,3.2-7.6,4.4
			c3.8,4.9,6.7,9.4,8.3,11.9c1.1,1.8,1.6,3.9,1.4,6c-0.1,2.5,1.3,4.8,3.6,5.7c2.3,0.9,5,0.3,6.6-1.6s1.9-4.6,0.7-6.8
			C146.3,144.1,145.5,143.3,144.5,142.8L144.5,142.8z"/>
		<path id="Shape_15_" d="M67.7,138.5c-1,1.9-2.6,3.3-4.5,4.2c-2.2,1.1-3.5,3.5-3.2,6s2.2,4.5,4.6,4.9c2.4,0.5,4.9-0.6,6.2-2.8
			c0.5-0.9,0.8-2,0.8-3.1c-0.2-2.3,0.4-4.5,1.6-6.4c1.9-3,4.8-7.2,8.2-11.6c-2.7-1.3-5.2-2.7-7.6-4.4
			C71.6,130.7,69.4,135.3,67.7,138.5L67.7,138.5z"/>
		<path id="Shape_14_" d="M63.1,21.6c2,1,3.7,2.6,4.8,4.6c1.6,3.1,3.8,7.7,6,12.9c2.4-1.7,5-3.2,7.6-4.4c-3.5-4.6-6.4-8.9-8.3-11.9
			c-1.1-1.8-1.6-3.9-1.4-6c0.1-2.5-1.3-4.8-3.6-5.7c-2.3-0.9-5-0.3-6.6,1.6s-1.9,4.6-0.7,6.8C61.4,20.3,62.1,21.1,63.1,21.6z"/>
		<path id="Shape_13_" d="M139.9,25.9c1-1.9,2.6-3.3,4.5-4.2c2.2-1.1,3.5-3.5,3.2-6s-2.2-4.5-4.6-4.9c-2.4-0.5-4.9,0.6-6.2,2.8
			c-0.6,0.9-0.8,2-0.8,3.1c0.2,2.3-0.4,4.5-1.6,6.4c-1.9,3-4.8,7.2-8.2,11.6c2.7,1.3,5.2,2.7,7.6,4.4
			C136,33.7,138.3,29.1,139.9,25.9z"/>
		<circle id="Oval_3_" cx="95.1" cy="64.7" r="8.8"/>
		<path id="Shape_12_" d="M51.5,86.6c-0.1-1.5-0.2-2.9-0.2-4.4c0-1.5,0.1-2.9,0.2-4.4c-5.8,0.8-10.9,1.1-14.4,1.3
			c-2.1,0.1-4.2-0.5-5.9-1.8c-2.4-1.7-5.7-1.3-7.7,0.9s-2,5.5,0,7.7c1.9,2.1,5,2.6,7.5,1.2c1.9-1.3,4.1-1.9,6.3-1.8
			C40.8,85.5,45.9,85.9,51.5,86.6L51.5,86.6z"/>
		<circle id="Oval_2_" cx="127.2" cy="73.5" r="2.9"/>
		<path id="Shape_11_" d="M184.2,78.4c-1.9-2.1-5-2.6-7.5-1.2c-1.9,1.3-4.1,1.9-6.3,1.8c-3.5-0.2-8.6-0.6-14.1-1.3
			c0.1,1.5,0.2,2.9,0.2,4.4c0,1.5-0.1,2.9-0.2,4.4c6.2-0.8,11.5-1.1,14.4-1.3c2.1-0.1,4.2,0.6,5.9,1.8c2.4,1.6,5.7,1.2,7.6-1
			C186.1,83.9,186.1,80.6,184.2,78.4L184.2,78.4z"/>
		<path id="Shape_10_" d="M172.5,115.1c-1-0.6-2-0.8-3.1-0.8c-2.2,0.2-4.4-0.4-6.3-1.6c-4.6-3-9-6.1-13-9.2
			c-1.9-1.5-2.7-4.1-1.9-6.5c3.2-9.6,3.2-20,0-29.7c-0.8-2.3,0-4.9,1.9-6.5c5.2-4.1,10-7.3,13.2-9.4c1.8-1.1,3.9-1.6,6-1.4
			c1.5,0.1,3-0.5,4.2-1.5c1.7-1.5,2.4-4,1.7-6.2c-0.7-2.2-2.7-3.8-5-4c-2.3-0.2-4.5,1-5.6,3c-1,2-2.6,3.7-4.5,4.7
			c-3,1.5-10.3,4.7-14.4,6.5c-2.3,1-5,0.4-6.7-1.5c-6.7-7.6-15.7-12.7-25.6-14.8c-2.5-0.5-4.4-2.5-4.7-5.1c-0.5-4.5-1.4-12.6-1.6-16
			c-0.1-2.1,0.6-4.1,1.8-5.8c1.4-2.1,1.3-4.8-0.2-6.8c-1.5-2-4.1-2.8-6.5-2c-2.4,0.8-4,3-4,5.5c0,1.1,0.3,2.2,0.9,3.1
			c1.3,1.9,1.9,4.1,1.8,6.3c-0.2,3.4-1,11.3-1.6,15.7c-0.3,2.5-2.2,4.6-4.7,5c-9.9,2-18.9,7.2-25.6,14.8c-1.7,1.9-4.4,2.5-6.7,1.5
			C58,51,50.6,47.7,47.6,46.1c-1.9-1-3.3-2.6-4.2-4.5c-0.9-1.7-2.6-2.9-4.5-3.1c-1.9-0.2-3.8,0.5-5.1,1.9c-1.2,1.3-1.7,3.1-1.4,4.8
			c0.3,1.7,1.3,3.2,2.9,4.1c0.9,0.6,2,0.8,3.1,0.8c2.2-0.2,4.4,0.4,6.3,1.6c4.6,3,9,6.1,13,9.2c1.9,1.5,2.7,4.2,1.9,6.5
			c-3.2,9.6-3.2,20,0,29.6c0.8,2.3,0,4.9-1.9,6.5c-5.2,4.1-10,7.4-13.2,9.4c-1.8,1.1-3.9,1.6-6,1.4c-1.5-0.1-3,0.4-4.2,1.5
			c-2.2,2-2.6,5.3-0.9,7.8c1.7,2.4,5,3.2,7.6,1.7c1-0.5,1.7-1.3,2.2-2.3c1-2,2.6-3.7,4.5-4.7c3-1.5,10.3-4.7,14.4-6.5
			c0.7-0.3,1.5-0.5,2.3-0.5c1.7,0,3.3,0.7,4.4,2c6.7,7.6,15.7,12.8,25.6,14.8c2.5,0.5,4.4,2.5,4.7,5.1c0.5,4.5,1.4,12.6,1.6,16
			c0.1,2.1-0.6,4.1-1.8,5.9c-1.4,2.1-1.3,4.8,0.2,6.8c1.5,2,4.1,2.8,6.5,2c2.4-0.8,4-3,4-5.5c0-1.1-0.3-2.2-0.9-3.1
			c-1.3-1.9-1.9-4.1-1.8-6.3c0.2-4.3,0.7-10.9,1.8-17.9c0.2-1.3,1.2-2.3,2.4-2.5c10.7-1.7,20.4-7,27.6-15.1c1.7-1.9,4.4-2.5,6.7-1.5
			c4.2,1.8,11.6,5.1,14.6,6.7c1.9,1,3.3,2.6,4.2,4.5c0.9,1.7,2.6,2.9,4.5,3.2c1.9,0.2,3.9-0.5,5.1-1.9c1.2-1.3,1.7-3.1,1.4-4.8
			C175,117.5,174,116,172.5,115.1L172.5,115.1z M71.7,96.8c-4.8,0-8.8-3.9-8.8-8.8c0-4.8,3.9-8.8,8.8-8.8c4.8,0,8.8,3.9,8.8,8.8
			C80.5,92.9,76.5,96.8,71.7,96.8z M80.5,64.7c0-8.1,6.5-14.6,14.6-14.6s14.6,6.5,14.6,14.6s-6.5,14.6-14.6,14.6
			C87,79.3,80.5,72.8,80.5,64.7z M106.7,120.2c-9.7,0-17.5-7.8-17.5-17.5s7.8-17.5,17.5-17.5s17.5,7.8,17.5,17.5
			C124.2,112.3,116.4,120.1,106.7,120.2z M127.2,82.2c-4.8,0-8.8-3.9-8.8-8.8c0-4.8,3.9-8.8,8.8-8.8s8.8,3.9,8.8,8.8
			C135.9,78.3,132,82.2,127.2,82.2z"/>
		<path id="Shape_9_" d="M106.7,91c-6.4,0-11.7,5.2-11.7,11.7c0,6.4,5.2,11.7,11.7,11.7s11.7-5.2,11.7-11.7
			C118.4,96.2,113.2,91,106.7,91z"/>
	</g>
</g>
<g id="Page-1_2_">
	<g id="_x30_02---Virus_2_" transform="translate(-1)">
		<path id="Shape_26_" d="M147.3,436.7c-0.7,0-1.2,0.6-1.2,1.2c0,0.7,0.6,1.2,1.2,1.2s1.2-0.6,1.2-1.2
			C148.5,437.3,148,436.7,147.3,436.7z"/>
		<path id="Shape_25_" d="M178.2,461.2c-0.9-0.4-1.6-1.1-2-1.9c-0.7-1.3-1.6-3.3-2.5-5.5c-1,0.7-2.1,1.3-3.2,1.9
			c1.6,2.1,2.9,4,3.5,5c0.5,0.8,0.7,1.7,0.6,2.5c-0.1,1.1,0.6,2,1.5,2.4c1,0.4,2.1,0.1,2.8-0.7s0.8-1.9,0.3-2.9
			C179,461.8,178.6,461.4,178.2,461.2L178.2,461.2z"/>
		<path id="Shape_24_" d="M145.6,459.4c-0.4,0.8-1.1,1.4-1.9,1.8c-0.9,0.5-1.5,1.5-1.3,2.5c0.1,1,0.9,1.9,2,2.1
			c1,0.2,2.1-0.3,2.6-1.2c0.2-0.4,0.3-0.8,0.3-1.3c-0.1-1,0.2-1.9,0.7-2.7c0.8-1.3,2-3,3.5-4.9c-1.1-0.5-2.2-1.2-3.2-1.9
			C147.3,456.1,146.3,458.1,145.6,459.4L145.6,459.4z"/>
		<path id="Shape_23_" d="M143.6,409.8c0.9,0.4,1.6,1.1,2,1.9c0.7,1.3,1.6,3.3,2.5,5.5c1-0.7,2.1-1.3,3.2-1.9c-1.5-2-2.7-3.8-3.5-5
			c-0.5-0.8-0.7-1.7-0.6-2.5c0.1-1.1-0.6-2-1.5-2.4c-1-0.4-2.1-0.1-2.8,0.7c-0.7,0.8-0.8,1.9-0.3,2.9
			C142.9,409.2,143.2,409.5,143.6,409.8z"/>
		<path id="Shape_22_" d="M176.3,411.6c0.4-0.8,1.1-1.4,1.9-1.8c0.9-0.5,1.5-1.5,1.3-2.5c-0.1-1-0.9-1.9-2-2.1
			c-1-0.2-2.1,0.3-2.6,1.2c-0.2,0.4-0.4,0.8-0.3,1.3c0.1,1-0.2,1.9-0.7,2.7c-0.8,1.3-2,3-3.5,4.9c1.1,0.5,2.2,1.2,3.2,1.9
			C174.6,414.9,175.6,412.9,176.3,411.6z"/>
		<circle id="Oval_5_" cx="157.2" cy="428.1" r="3.7"/>
		<path id="Shape_21_" d="M138.7,437.4c-0.1-0.6-0.1-1.2-0.1-1.9s0-1.2,0.1-1.9c-2.5,0.3-4.6,0.5-6.1,0.5c-0.9,0-1.8-0.2-2.5-0.7
			c-1-0.7-2.4-0.5-3.3,0.4c-0.8,0.9-0.8,2.3,0,3.3c0.8,0.9,2.1,1.1,3.2,0.5c0.8-0.5,1.7-0.8,2.7-0.8
			C134.2,436.9,136.3,437.1,138.7,437.4L138.7,437.4z"/>
		<circle id="Oval_4_" cx="170.9" cy="431.8" r="1.2"/>
		<path id="Shape_20_" d="M195.1,433.9c-0.8-0.9-2.1-1.1-3.2-0.5c-0.8,0.5-1.7,0.8-2.7,0.8c-1.5-0.1-3.6-0.2-6-0.5
			c0.1,0.6,0.1,1.2,0.1,1.9c0,0.6,0,1.2-0.1,1.9c2.6-0.3,4.9-0.5,6.1-0.5c0.9,0,1.8,0.2,2.5,0.7c1,0.7,2.4,0.5,3.2-0.4
			S195.9,434.8,195.1,433.9L195.1,433.9z"/>
		<path id="Shape_19_" d="M190.1,449.5c-0.4-0.2-0.9-0.4-1.3-0.3c-0.9,0.1-1.9-0.2-2.7-0.7c-2-1.3-3.8-2.6-5.5-3.9
			c-0.8-0.7-1.1-1.8-0.8-2.8c1.4-4.1,1.4-8.5,0-12.6c-0.3-1,0-2.1,0.8-2.8c2.2-1.7,4.3-3.1,5.6-4c0.8-0.5,1.7-0.7,2.6-0.6
			c0.7,0,1.3-0.2,1.8-0.6c0.7-0.7,1-1.7,0.7-2.6s-1.2-1.6-2.1-1.7s-1.9,0.4-2.4,1.3c-0.4,0.9-1.1,1.6-1.9,2c-1.3,0.6-4.4,2-6.1,2.8
			c-1,0.4-2.1,0.2-2.9-0.6c-2.8-3.2-6.7-5.4-10.9-6.3c-1.1-0.2-1.9-1.1-2-2.1c-0.2-1.9-0.6-5.4-0.7-6.8c0-0.9,0.2-1.8,0.7-2.5
			c0.6-0.9,0.5-2-0.1-2.9c-0.6-0.8-1.8-1.2-2.8-0.8c-1,0.3-1.7,1.3-1.7,2.3c0,0.5,0.1,0.9,0.4,1.3c0.5,0.8,0.8,1.7,0.8,2.7
			c-0.1,1.4-0.4,4.8-0.7,6.7c-0.1,1.1-0.9,1.9-2,2.1c-4.2,0.9-8,3.1-10.9,6.3c-0.7,0.8-1.9,1.1-2.8,0.7c-1.8-0.8-4.9-2.2-6.2-2.8
			c-0.8-0.4-1.4-1.1-1.8-1.9c-0.4-0.7-1.1-1.2-1.9-1.3c-0.8-0.1-1.6,0.2-2.2,0.8c-0.5,0.6-0.7,1.3-0.6,2c0.1,0.7,0.6,1.4,1.2,1.7
			c0.4,0.2,0.9,0.3,1.3,0.3c0.9-0.1,1.9,0.2,2.7,0.7c2,1.3,3.8,2.6,5.5,3.9c0.8,0.7,1.1,1.8,0.8,2.8c-1.4,4.1-1.4,8.5,0,12.6
			c0.3,1,0,2.1-0.8,2.8c-2.2,1.7-4.3,3.1-5.6,4c-0.8,0.5-1.7,0.7-2.6,0.6c-0.7,0-1.3,0.2-1.8,0.6c-1,0.8-1.1,2.3-0.4,3.3
			c0.7,1,2.1,1.3,3.2,0.7c0.4-0.2,0.7-0.6,1-1c0.4-0.9,1.1-1.6,1.9-2c1.3-0.6,4.4-2,6.1-2.8c0.3-0.1,0.6-0.2,1-0.2
			c0.7,0,1.4,0.3,1.9,0.9c2.8,3.2,6.7,5.4,10.9,6.3c1.1,0.2,1.9,1.1,2,2.1c0.2,1.9,0.6,5.4,0.7,6.8c0,0.9-0.2,1.8-0.7,2.5
			c-0.6,0.9-0.5,2,0.1,2.9c0.6,0.8,1.8,1.2,2.8,0.8s1.7-1.3,1.7-2.3c0-0.5-0.1-0.9-0.4-1.3c-0.5-0.8-0.8-1.7-0.8-2.7
			c0.1-1.8,0.3-4.6,0.8-7.6c0.1-0.5,0.5-1,1-1.1c4.5-0.7,8.7-3,11.7-6.4c0.7-0.8,1.9-1.1,2.9-0.7c1.8,0.8,4.9,2.2,6.2,2.8
			c0.8,0.4,1.4,1.1,1.8,1.9c0.4,0.7,1.1,1.2,1.9,1.3c0.8,0.1,1.6-0.2,2.2-0.8c0.5-0.6,0.7-1.3,0.6-2
			C191.2,450.5,190.7,449.8,190.1,449.5L190.1,449.5z M147.3,441.7c-2.1,0-3.7-1.7-3.7-3.7c0-2.1,1.7-3.7,3.7-3.7
			c2.1,0,3.7,1.7,3.7,3.7C151,440,149.3,441.7,147.3,441.7z M151,428.1c0-3.4,2.8-6.2,6.2-6.2c3.4,0,6.2,2.8,6.2,6.2
			c0,3.4-2.8,6.2-6.2,6.2C153.8,434.2,151,431.5,151,428.1z M162.2,451.6c-4.1,0-7.4-3.3-7.4-7.4s3.3-7.4,7.4-7.4
			c4.1,0,7.4,3.3,7.4,7.4C169.6,448.3,166.3,451.6,162.2,451.6z M170.9,435.5c-2.1,0-3.7-1.7-3.7-3.7c0-2.1,1.7-3.7,3.7-3.7
			s3.7,1.7,3.7,3.7C174.6,433.8,172.9,435.5,170.9,435.5z"/>
		<path id="Shape_18_" d="M162.2,439.2c-2.7,0-5,2.2-5,5s2.2,5,5,5s5-2.2,5-5S164.9,439.2,162.2,439.2z"/>
	</g>
</g>
</svg>
