<?xml version="1.0" encoding="utf-8"?>
<!-- Generator: Adobe Illustrator 21.0.2, SVG Export Plug-In . SVG Version: 6.00 Build 0)  -->
<svg version="1.1" id="Layer_1" xmlns="http://www.w3.org/2000/svg" xmlns:xlink="http://www.w3.org/1999/xlink" x="0px" y="0px"
	 viewBox="0 0 400 300" style="enable-background:new 0 0 400 300;" xml:space="preserve">
<style type="text/css">
	.st0{fill:#FFFFFF;}
	.st1{fill:#231F20;}
	.st2{fill:#FFB6C1;}
	.st3{fill:#D1D3D4;}
	.st4{fill:none;stroke:#000000;stroke-miterlimit:10;}
	.st5{fill:#FFFFFF;stroke:#000000;stroke-miterlimit:10;}
	.st6{fill:none;stroke:#ED6666;stroke-miterlimit:10;}
	.st7{fill:none;stroke:#141010;stroke-miterlimit:10;}
</style>
<g id="_446_coughing_flatline">
	<path class="st0" d="M186.1,109.5c8.6,2.6,17.8,3.1,26.6,1.7c15.2-2.4,25.7,1.6,25.7,1.6c3.3-9,11.5-15.9,11.5-15.9
		s-15.4-8.7-29.3-4s-30.1,2.3-30.1,2.3L186.1,109.5z"/>
	<path class="st1" d="M238.2,113.3c-0.1,0-10.5-3.9-25.4-1.6c-9,1.5-18.2,0.9-26.9-1.7c-0.3-0.1-0.4-0.4-0.3-0.6l4.4-14.3
		c0.1-0.2,0.3-0.4,0.6-0.3c0.2,0,16.2,2.3,29.9-2.3c14-4.7,29.6,3.9,29.7,4c0.1,0.1,0.2,0.2,0.2,0.4c0,0.2,0,0.3-0.2,0.4
		c-0.1,0.1-8.2,6.9-11.4,15.7c0,0.1-0.1,0.2-0.2,0.3c-0.1,0-0.1,0-0.2,0C238.4,113.3,238.3,113.3,238.2,113.3z M220.8,93.4
		c-12.6,4.2-27.2,2.7-29.9,2.4l-4.2,13.4c8.4,2.4,17.3,2.9,25.9,1.5c8.5-1.4,17.2-0.9,25.5,1.5c2.9-7.5,9-13.4,10.9-15.1
		C246,95.5,232.7,89.4,220.8,93.4z"/>
	<path class="st0" d="M121.1,111.6c-0.2,0.9-0.2,1.8,0,2.6c0.2,0.9,0.7,1.6,1.5,2.1c1.5,0.8,3.3-0.2,4.4-1.4
		c2.1-2.2,3.1-5.3,2.6-8.4c-0.1-0.7-0.3-1.3-0.7-1.9C124.4,99,121.6,108.3,121.1,111.6z"/>
	<path class="st1" d="M122.3,116.8c-0.9-0.5-1.5-1.4-1.8-2.4c-0.2-0.9-0.2-1.9,0-2.8c0.3-2.1,1.9-8.3,4.9-9.1c1.3-0.3,2.5,0.4,3.8,2
		l0,0c0.4,0.6,0.7,1.3,0.8,2.1c0.5,3.2-0.5,6.4-2.7,8.8c-0.9,1-2.2,1.7-3.6,1.8C123.2,117.1,122.8,117,122.3,116.8z M125.7,103.5
		c-2.2,0.6-3.8,5.6-4.2,8.2c-0.2,0.8-0.2,1.6,0,2.4c0.1,0.7,0.6,1.4,1.2,1.8c1.2,0.6,2.8-0.2,3.8-1.3c2-2.1,2.9-5.1,2.5-8
		c-0.1-0.6-0.3-1.2-0.6-1.6l0,0c-0.8-1.1-1.6-1.7-2.4-1.7C126,103.4,125.8,103.4,125.7,103.5z M128.9,104.8L128.9,104.8z"/>
	<path class="st0" d="M105.8,144.1c0,0-6.5-22.3-5.7-26.4s2.1-10,4-12.6s1.8-0.3,2.8-2.5s3.1-1.1,4-1.4s1-1.3,1.9-3s3-1.2,4.1-1
		s0.8-1.1,2.5-1.1s8.5,8.2,7.4,12.4s-6.6,6.7-6.6,6.7c-0.6,2.3-1.1,4.5-1.4,6.8c0,1.2,1.3,11.1,1.3,11.1L105.8,144.1z"/>
	<path class="st1" d="M105.6,144.6c-0.2-0.1-0.3-0.2-0.3-0.3c-0.3-0.9-6.5-22.5-5.7-26.7s2.2-10.1,4.1-12.8c1-1.4,1.6-1.6,2.1-1.6
		h0.1c0,0,0.1-0.1,0.5-0.8c0.9-2,2.6-1.8,3.6-1.7c0.2,0,0.5,0,0.7,0c0.3-0.1,0.5-0.4,0.8-1.2c0.2-0.4,0.4-1,0.7-1.6
		c1.1-1.9,3.3-1.5,4.5-1.3h0.1c0.3,0.1,0.3,0,0.5-0.2c0.4-0.6,1.1-0.9,1.9-0.8c1.1,0,3.1,2.1,4.5,3.9c1,1.3,4.3,5.9,3.4,9.2
		c-1,4-5.6,6.4-6.7,6.9c-0.6,2.1-1,4.3-1.3,6.5c0,1,0.8,7.6,1.3,11.1c0,0.2-0.1,0.4-0.2,0.5L106,144.5c-0.1,0.1-0.2,0.1-0.3,0.1
		L105.6,144.6z M118.2,122c0.3-2.4,0.8-4.7,1.4-7c0-0.2,0.1-0.3,0.3-0.3c0,0,5.4-2.3,6.4-6.3c0.6-2.2-1.4-5.8-3.3-8.3
		s-3.3-3.5-3.7-3.5c-0.4-0.1-0.8,0.1-1.1,0.5c-0.3,0.5-0.9,0.7-1.5,0.6h-0.1c-1.5-0.2-2.8-0.4-3.5,0.8c-0.3,0.5-0.5,1-0.7,1.5
		c-0.4,0.9-0.7,1.6-1.5,1.8c-0.4,0.1-0.7,0.1-1.1,0c-1.2-0.1-2.1-0.1-2.6,1.1s-0.9,1.4-1.4,1.4c-0.2,0-0.5,0-1.4,1.2
		c-1.9,2.6-3.2,8.3-4,12.4c-0.6,3.1,3.2,17.6,5.5,25.5l13.5-10.3C119.2,131.3,118.2,123.2,118.2,122z"/>
	<path class="st1" d="M109.4,124.8C109.4,124.8,109.4,124.8,109.4,124.8c-0.2-0.2-0.1-0.5,0.1-0.7c2.3-1.5,1.2-4.2,1.1-4.4
		c-0.1-0.2,0-0.5,0.2-0.6c0.2-0.1,0.4-0.1,0.6,0c1.1,1,2.1,1.4,2.6,1.2c0.9-0.3,1.3-2.1,1.6-3.9c0.6-3-4.4-8.4-5.3-9
		c-0.2-0.1-0.3-0.2-0.3-0.4c0,0,0,0,0,0c0-0.3,0.2-0.5,0.5-0.5c0.2,0,0.5,0,2.2,1.9c1.4,1.6,4.5,5.5,3.9,8.2
		c-0.4,2.3-0.9,4.2-2.2,4.7c-0.9,0.2-1.8,0-2.5-0.5c0.2,1.6-0.5,3.3-1.9,4.2c-0.1,0.1-0.2,0.1-0.3,0.1
		C109.6,125,109.5,124.9,109.4,124.8z"/>
	<path class="st0" d="M107.9,116.5c3.2,0.6,3.5-2.3,3.5-2.3"/>
	<path class="st1" d="M107.8,117c-0.3,0-0.5-0.3-0.4-0.6s0.3-0.5,0.6-0.4c0.7,0.2,1.5,0.1,2.1-0.3c0.5-0.4,0.8-0.9,0.8-1.5
		c0-0.3,0.3-0.5,0.5-0.5c0.3,0,0.5,0.3,0.5,0.5c-0.1,0.9-0.5,1.7-1.2,2.2c-0.6,0.4-1.3,0.6-2,0.6C108.4,117,108.1,117,107.8,117z"/>
	<path class="st1" d="M110.7,119.7c-0.1-1.1-0.7-2.6-1.4-2.6c-0.3,0-0.5-0.2-0.5-0.5c0-0.3,0.2-0.5,0.5-0.5l0,0
		c1.8,0,2.3,3.2,2.3,3.5c0,0,0,0,0,0c0,0.3-0.2,0.5-0.4,0.5h-0.1C110.9,120.1,110.7,119.9,110.7,119.7z"/>
	<path class="st1" d="M116,117C116,116.9,116,116.9,116,117c-0.2-0.1-0.4-0.4-0.2-0.7c0.1-0.2,0.4-0.3,0.7-0.2
		c0.1,0,0.1,0.1,0.2,0.1c1.2,0.5,2.6,0,3.1-1.2c1.3-2.6,1.4-2.9,0.7-4.4c-0.6-1.3-5.5-6.3-7.3-8.1c0,0,0,0,0,0
		c-0.2-0.2-0.2-0.5,0-0.7c0,0,0,0,0,0c0.2-0.2,0.5-0.2,0.7,0c0.7,0.7,6.8,6.7,7.6,8.4c0.8,1.9,0.6,2.6-0.8,5.2c-0.5,1.2-1.7,2-3,2
		C117,117.4,116.4,117.2,116,117z"/>
	<path class="st1" d="M120.7,115.9c-0.2-0.1-0.3-0.3-0.3-0.4c0-0.1,0.1-0.3,0.2-0.4c1.4-1.1,3.8-3.6,4.2-5.4
		c0.4-1.7-3.3-6.3-5.7-8.8c0,0,0,0,0,0c-0.2-0.2-0.2-0.5,0-0.7c0,0,0,0,0,0c0.2-0.2,0.5-0.2,0.7,0c0.7,0.7,6.6,7,5.9,9.8
		c-0.6,2.6-4.2,5.6-4.6,5.9l-0.3-0.4l0.3,0.4c-0.1,0.1-0.2,0.1-0.3,0.1C120.8,115.9,120.7,115.9,120.7,115.9z"/>
	<polygon class="st1" points="214,267.7 187.8,120.9 146.9,125.8 161.3,267.7 	"/>
	<path class="st2" d="M272.9,267.7l1.9-0.2c0,0-29.1-89.6-45-127.1s-40.9-41.1-40.9-41.1s-9.6,10-8.3,30.5
		C181.7,147,196,239,198.9,267.7L272.9,267.7z"/>
	<path class="st2" d="M156.4,139.1l3.8-3.7l-13.2-9.7c0,0-6.9-0.1-7.4,12.7s11.8,95.5,11.2,101.9c-0.7,7.8-5.1,21.6-7,27.3h27.5
		C169.5,235,156.4,139.1,156.4,139.1z"/>
	<path class="st2" d="M152,207.6c0,0-8.9,16.6-26.6,23.2s-27-89.1-27-89.1l23.2-11.9l11,31.9l9.7-30.4L152,207.6z"/>
	<path class="st0" d="M224.8,221.2l-12.9-19.3c0,0-5.8,3.4-11.4,2.8s-16.7-5.3-19.1-5.3s-16.7,2.2-19.1,3.3s-4.7,2.9-2.2,4.7
		s10.4,0.1,14.8-0.5s12,1.5,12,1.5c-3.5,0.4-7.6,1.9-13.7,4.1s-11.3,6.2-8.5,9.7s12.2-3.9,17.4-5s7.9,0.5,7.9,0.5
		c-4.8,1.5-12.1,6.3-15.4,9.8s-3.2,5.2,0.3,5.7s8-4.5,11.8-6.6s10-3.4,10-3.4c-0.8,0.7-11.1,14-8.3,16.3s14.2-11.9,14.2-11.9
		s4-0.4,8.8-0.6C216,226.9,224.8,221.2,224.8,221.2z"/>
	<path class="st1" d="M187.9,239.9c-0.4-0.4-0.7-0.9-0.7-1.5c-0.1-3.4,5.5-11.3,7.9-14.3c-2.9,0.7-5.7,1.7-8.4,3
		c-1.3,0.8-2.6,1.7-3.8,2.7c-2.8,2.1-5.8,4.4-8.3,4c-1.1-0.2-2.6-0.6-3.1-1.7s0.4-2.6,2.4-4.9c4.2-4,9-7.3,14.4-9.5
		c-2.1-0.5-4.2-0.5-6.3,0c-2.2,0.7-4.4,1.6-6.5,2.7c-4.6,2.3-9.3,4.6-11.4,2.1c-0.8-0.9-1.1-2.1-0.8-3.3c0.8-3.1,5.5-5.7,9.5-7.2
		l0.4-0.1c3.6-1.4,7.2-2.6,10.9-3.6c-2.6-0.6-6.7-1.3-9.4-0.9c-0.8,0.1-1.7,0.2-2.6,0.4c-4.5,0.7-10.3,1.6-12.5,0.1
		c-0.8-0.4-1.3-1.3-1.3-2.2c0.1-1.2,1.3-2.3,3.6-3.4c2.5-1.2,16.9-3.4,19.3-3.4l0,0c1.2,0,3.9,0.9,7.3,2c4.1,1.4,8.8,2.9,11.9,3.2
		c5.4,0.6,11.1-2.7,11.1-2.7c0.2-0.1,0.5-0.1,0.7,0.1l12.9,19.3c0.1,0.1,0.1,0.2,0.1,0.4c0,0.1-0.1,0.2-0.2,0.3
		c-0.4,0.2-9,5.7-13.9,5.9l0,0c-4.1,0.1-7.7,0.5-8.6,0.6c-2,2.5-10.1,12.1-13.8,12.1C188.5,240.2,188.2,240.1,187.9,239.9z
		 M211.1,226.4c4-0.1,11.1-4.3,12.9-5.4l-12.4-18.3c-1.4,0.8-6.4,3.2-11.3,2.6c-3.2-0.4-7.9-1.9-12.1-3.3c-3.1-1-6-2-7-2l0,0
		c-2.6,0-16.7,2.2-18.9,3.3c-1.9,0.9-2.9,1.8-3,2.5c0,0.4,0.3,0.9,0.9,1.3c1.9,1.3,7.6,0.4,11.8-0.2c0.9-0.1,1.8-0.3,2.6-0.4
		c4.5-0.6,11.9,1.4,12.2,1.5c0.2,0.1,0.4,0.3,0.4,0.5c0,0.2-0.2,0.4-0.4,0.4c-3.4,0.3-7.3,1.8-13.2,3.9l-0.4,0.1
		c-4.8,1.8-8.3,4.3-8.9,6.5c-0.2,0.8,0,1.7,0.6,2.4c1.6,1.9,6.2-0.4,10.2-2.4c2.1-1.2,4.4-2.1,6.7-2.8c5.3-1.2,8.1,0.5,8.2,0.6
		c0.1,0.1,0.2,0.2,0.2,0.3c0.1,0.3-0.1,0.5-0.3,0.6c-4.5,1.4-11.7,6-15.2,9.7c-2.2,2.3-2.4,3.4-2.2,3.8s0.9,0.8,2.2,1
		c2.1,0.3,4.9-1.8,7.6-3.8c1.3-1,2.6-1.9,3.9-2.7c3.8-2.2,9.9-3.4,10.1-3.5c0.2-0.1,0.4,0.1,0.6,0.3c0.1,0.2,0.1,0.4-0.1,0.6
		c-0.6,0.6-8.7,11-8.6,14.7c0,0.3,0.1,0.6,0.3,0.8c1.7,1.3,8.9-6.1,13.5-11.8c0.1-0.1,0.2-0.2,0.3-0.2
		C202.4,227.1,206.4,226.6,211.1,226.4L211.1,226.4z"/>
	<path class="st1" d="M179.7,108.3c-5.2,3.7-35,10.1-33.5,5.6c1.9-5.5,35-24.4,35-24.4S184.9,104.6,179.7,108.3z"/>
	<path class="st1" d="M146.3,115.2c-0.5-0.3-0.7-1-0.5-1.5c1.9-5.7,33.8-23.9,35.2-24.7c0,0,0.1,0,0.1-0.1c0.3-0.1,0.5,0.1,0.6,0.4
		c0.1,0.6,3.7,15.5-1.7,19.3c-3.8,2.7-21.7,7.2-30,7.2C148.7,116.1,147.4,115.8,146.3,115.2z M146.7,114.1
		C146.7,114.1,146.7,114.1,146.7,114.1c-0.1,0.1,0,0.3,0.1,0.4c2.5,1.9,26.9-2.6,32.6-6.6c4.3-3,2.1-14.7,1.5-17.6
		C171.3,95.8,148.2,109.8,146.7,114.1z"/>
	<path class="st0" d="M137,69.3c1.8,1.9,2.1,5.2,0,7.1c-1.1,1-2.2,1.6-3.7,2.1c-0.7,0.2-1.4,0.3-2,0.6c-2.1,0.7-4.5-0.4-5.7-2.3
		c0.5,2.1,1,4.2,1.4,6c1.3,6.2,2.7,13.1,5.9,18.6c5.5,9.3,16.5,6,16.5,6l6,18.8c0,0,8.4,12,20.1,3.9s9.9-18.8,9.9-18.8L178.3,89
		c-1.5-4.4-2.9-8.8-4.3-13.3c-0.4-1.6-1-3.1-1.8-4.5c-1.9-2.6-5.9-2.6-7.4-5.4c-1-1.8-0.3-4.2-1.5-5.9s-3.5-1.6-4.8-3
		c-1.6-1.8-1.4-5.3-3.7-5.8c-2.5-0.6-4.3,3.5-6.9,3c-1-0.2-1.8-1.1-2.8-1.3c-1.4-0.4-2.9,0.6-3.7,1.8c-0.8,1.2-1.2,2.7-2,3.9
		c-1.6,2.5-4.4,3.9-7.3,3.7c0.6,1.8-0.7,3.7-2.4,4.5c-1.6,0.6-3.2,0.9-4.9,0.9c-0.2,1.9,0,3.9,0.3,6c0.2-2,1.5-3.6,3.6-4.3
		c0.6-0.2,1.2-0.3,1.8-0.5c0.1,0,0.1-0.1,0.2-0.1C132.6,67.5,135.4,67.5,137,69.3z M159.4,68.6c-0.9,2.7-3.4,4.1-6.2,3.5
		c1.2,0.2-0.8,0.1-0.4,0c-0.4,0.1-0.9,0.2-1.3,0.3c-1.2,0.3-2.3,0.6-3.5,0.8c-2.6,0.4-5.5-0.7-6.2-3.5c-0.1-0.6-0.2-1.3-0.1-1.9
		c-2.5-2.5-1.7-7.7,2.3-8.6c0.4-0.3,0.9-0.7,1.4-0.9c0.6-0.3,1.2-0.5,1.8-0.6c0.4-0.3,0.9-0.6,1.5-0.8c0.7-0.2,1.5-0.4,2.2-0.6
		c1.2-0.4,2.8-0.1,3.9,0.5c1,0.6,2,1.8,2.3,3c0.2,1.1,0.2,2.1-0.2,3C159,63.9,160.1,66.5,159.4,68.6z M139.6,93
		c0-0.3-0.1-0.5-0.1-0.8c0-3,2.3-4.7,5-5c4.4-0.5,9-0.2,13.2,1.2c3.4,1.1,5.1,5.7,2.2,8.4c-2,1.8-4.2,2.8-6.6,3.5
		c-1,2.3-3.4,3.2-5.9,2.8c-2-0.3-4-0.5-6-1.1C137.8,100.7,136.5,95.1,139.6,93z"/>
	<path class="st1" d="M127.8,96.8c0.3,0,0.6-0.2,0.8-0.4c0.1,0.1,0.1,0.2,0.2,0.4c4.6,7.9,13.3,6.4,15.5,5.9
		c0.4,0.1,0.7,0.1,1.1,0.2c0,0,0,0,0,0l6,18.7c1.5,1.9,3.4,3.6,5.5,4.8c4.5,2.5,9.2,2.1,13.8-1.1c11.2-7.9,9.7-18.3,9.7-18.3
		l-8.7-26.7c-1-2.9-1.9-5.9-2.9-8.8c-0.1-0.4-0.2-0.7-0.3-1.1c-0.2-0.8-0.5-1.6-0.9-2.4c0.3-0.2,0.5-0.4,0.8-0.6
		c0.5,0.9,0.8,1.8,1,2.7c0.1,0.4,0.2,0.7,0.3,1.1c1,2.9,1.9,5.9,2.9,8.8l8.8,26.8c0,0.1,1.6,11.1-10.1,19.3
		c-2.4,1.8-5.4,2.8-8.4,2.9c-0.7,0-1.4-0.1-2.1-0.2c-6.2-1.1-10.1-6.5-10.2-6.7c0,0-0.1-0.1-0.1-0.1l-5.9-18.3
		c-2.2,0.5-11.7,2.1-16.6-6.4c-0.1-0.1-0.2-0.3-0.2-0.4C127.8,96.8,127.8,96.8,127.8,96.8z"/>
	<path class="st1" d="M119.6,63.2c0-0.3,0.2-0.4,0.5-0.5c0.2,0,0.4,0,0.7,0c0.1,0.3,0.2,0.6,0.3,0.9c-0.2,0-0.3,0-0.5,0
		c-0.2,3.5,0.8,7.7,1.6,11.4c0.3,1.1,0.5,2.2,0.7,3.2l0.1,0.5c1,4.8,2,9.7,3.9,14.2c-0.2,0.1-0.4,0.2-0.5,0.4
		c-0.1,0.1-0.1,0.2-0.2,0.3c-2-4.7-3.1-9.9-4.1-14.7l-0.1-0.5c-0.2-1-0.5-2.1-0.7-3.2C120.3,71.4,119.3,66.9,119.6,63.2z"/>
	<path class="st1" d="M151,121.8L151,121.8z"/>
	<path class="st0" d="M167.4,69.9c-0.1,0.2-0.2,0.7-0.3,0.9c1.1-2.2,1-3.5,3.2-5c1.5-1,3.1-2,4.9-1.9c1.5,0.2,2.9,1,3.8,2.2
		c0.9,1.2,1.4,2.7,1.7,4.1c0.8,4.1-0.1,8.3-3.2,11.2c-2.1,2-5,3-7.9,2.9"/>
	<path class="st1" d="M169.6,84.7C169.6,84.7,169.6,84.7,169.6,84.7c-0.3,0-0.5-0.2-0.5-0.5c0-0.3,0.2-0.5,0.5-0.5
		c2.8,0.1,5.5-0.9,7.6-2.8c2.7-2.6,3.8-6.4,3-10.7c-0.2-1.4-0.8-2.8-1.6-3.9c-0.8-1.1-2-1.9-3.4-2c-1.6-0.1-3,0.8-4.6,1.9
		c-1.1,0.7-1.9,1.8-2.3,3.1c-0.2,0.6-0.5,1.1-0.7,1.7c0,0,0,0.1-0.1,0.1c-0.1,0.2-0.4,0.3-0.7,0.2c-0.2-0.1-0.3-0.4-0.2-0.7l0,0
		c0-0.1,0.1-0.2,0.1-0.3c0-0.2,0.1-0.4,0.2-0.6c0-0.1,0.1-0.1,0.2-0.2c0.1-0.2,0.1-0.3,0.2-0.5c0.4-1.5,1.4-2.7,2.7-3.5
		c1.4-0.9,3.2-2.1,5.2-2c1.7,0.2,3.2,1,4.1,2.4c0.9,1.3,1.5,2.8,1.8,4.3c0.9,4.6-0.3,8.8-3.3,11.6c-2.1,2-4.9,3.1-7.8,3.1
		L169.6,84.7z"/>
	<path class="st1" d="M149.5,107.4c9.1-1.6,14.1-9.7,14.1-9.7s2.2,4.4-1.3,12.1s-10.3,5.4-10.3,5.4L149.5,107.4z"/>
	<path class="st1" d="M151.9,115.8c-0.2,0-0.3-0.2-0.3-0.3l-2.5-7.8c-0.1-0.1-0.1-0.3,0-0.4c0.1-0.1,0.2-0.2,0.3-0.2
		c8.7-1.6,13.7-9.4,13.7-9.5c0.1-0.1,0.3-0.2,0.4-0.2c0.2,0,0.3,0.1,0.4,0.3c0.1,0.2,2.3,4.7-1.2,12.5c-2.3,5.1-6.1,6-8.5,6
		C153.5,116.1,152.7,116,151.9,115.8z M163.4,98.8c-1.6,2.1-6.1,7.5-13.3,9l2.3,7.1c1.2,0.3,6.5,1.2,9.4-5.2
		C164.4,104.2,163.9,100.4,163.4,98.8L163.4,98.8z"/>
	<path class="st1" d="M152,115.3L152,115.3z"/>
	<path class="st0" d="M147.4,85.2c0,0-4.2,2.8-6.4,1.6s1-13.8,1-13.8"/>
	<path class="st1" d="M143.8,87.4c-0.1,0-0.2,0-0.4,0.1c-0.3,0.1-0.7,0.1-1,0.1c-0.6,0-1.1-0.1-1.6-0.4c-2.4-1.3-0.1-11.4,0.7-14.4
		c0.1-0.3,0.3-0.4,0.6-0.4c0.3,0.1,0.4,0.3,0.4,0.6c-1.5,5.9-2.4,12.6-1.2,13.2c1.6,0.9,4.8-0.8,5.8-1.6c0,0,0,0,0,0
		c0.2-0.2,0.5-0.1,0.7,0.1c0.2,0.2,0.1,0.5-0.1,0.7C147.6,85.7,145.8,86.9,143.8,87.4z"/>
	<path class="st0" d="M162.3,114.5c-3.2,0.9-6.6,0.8-9.7-0.5c-1.3-0.7-2.6-1.3-4-1.8c-1.1-0.2-2.2-0.2-3.2,0.2
		c-2.8,1.1-4.2,4.3-3.1,7.1c0.3,0.7,0.6,1.3,0.8,2.1c0.2,1.7-1.2,3.1-1.6,4.7c-1,4.1,3.8,10.4,7.3,12c5.3,2.5,11.5,3.2,17.3,3.3
		c18.9,0.4,33.4-33.2,32.8-41.3s-8.1-5.5-8.1-5.5c-0.8-5-9.6-5.3-9.6-5.3c-0.1,4.6-3.3,12.1-6.1,15.4c-2.4,2.8-4.6,5.3-7.3,7.2
		C166.1,113.1,164.3,114,162.3,114.5z"/>
	<path class="st1" d="M166,142.1c-4.7-0.1-11.6-0.5-17.5-3.3c-3.7-1.7-8.7-8.2-7.6-12.6c0.2-0.7,0.5-1.4,0.8-2
		c0.5-0.8,0.8-1.7,0.8-2.6c-0.1-0.4-0.2-0.9-0.5-1.3c-0.1-0.2-0.2-0.4-0.3-0.7c-0.4-1.1-0.5-2.3-0.3-3.4c0.7-3.2,3.9-5.3,7.2-4.6
		c1,0.3,2,0.7,2.9,1.2c0.4,0.2,0.8,0.4,1.2,0.6c3,1.2,6.3,1.4,9.4,0.5c1.9-0.5,3.7-1.3,5.3-2.4l0,0c2.7-1.8,4.8-4.2,7.1-7l0.1-0.1
		c2.7-3,5.9-10.3,6-15c0,0,0,0,0,0c0-0.3,0.2-0.5,0.5-0.4c0.4,0,8.6,0.3,9.9,5.2c1.9-0.5,3.9-0.3,5.6,0.7c1.6,1,2.4,2.9,2.6,5.4
		c0.5,5.9-6.2,22.8-16,33.1c-5.5,5.8-11.2,8.8-16.9,8.8L166,142.1z M191,95.3c-0.1,0-0.3,0-0.4-0.1c-0.1-0.1-0.2-0.2-0.2-0.3
		c-0.6-3.9-6.8-4.7-8.6-4.8c-0.3,4.9-3.5,12.1-6.2,15.2l-0.1,0.1c-2.1,2.7-4.6,5.1-7.3,7.2l0,0c-1.7,1.1-3.6,2-5.6,2.5
		c-3.3,1-6.8,0.8-10-0.6c-0.4-0.2-0.9-0.4-1.3-0.7c-0.8-0.5-1.7-0.9-2.6-1.1c-1-0.2-2-0.1-2.9,0.2c-2.6,1-3.8,3.9-2.8,6.5
		c0.1,0.2,0.2,0.4,0.3,0.6c0.3,0.5,0.4,1,0.5,1.6c0,1.1-0.3,2.2-0.9,3.2c-0.3,0.5-0.6,1.1-0.7,1.7c-1,3.7,3.7,9.9,7,11.5
		c5.7,2.7,12.5,3.2,17.1,3.2c5.5,0.1,11.1-2.7,16.5-8.4c9.9-10.4,16.1-27.2,15.8-32.3c-0.2-2.2-0.9-3.8-2.2-4.7
		c-0.9-0.5-1.9-0.8-2.9-0.8C192.5,94.9,191.7,95,191,95.3z"/>
	<path class="st0" d="M156.1,118.1c1.2,8.3,4.5,15.5,8,23.5c6.5,14.8-7.2,37-7.2,37c7.9-5.1,22.2-2.1,22.2-2.1
		c8.9-15.8,4.3-32.3-2.1-39.7c-5.1-5.9-7.9-9.7-7.4-24.1c0-2,1.1-3.8,2.8-4.7C172.4,108,154.9,109.8,156.1,118.1z"/>
	<path class="st1" d="M156.5,179c-0.2-0.2-0.2-0.4-0.1-0.6c0.2-0.2,13.5-22.2,7.2-36.6l-0.5-1.1c-3.3-7.5-6.4-14.5-7.6-22.5
		c-0.2-1.6,0.2-3.2,1.2-4.5c3.9-4.9,15-6.2,15.5-6.2c0.2,0,0.5,0.1,0.5,0.4c0.1,0.2-0.1,0.5-0.3,0.6c-1.6,0.8-2.6,2.5-2.5,4.3
		c-0.4,14.2,2.2,17.9,7.3,23.8c3.6,4.2,6.1,10.3,6.9,16.9c1,8.1-0.7,16.2-4.7,23.3c-0.1,0.2-0.3,0.3-0.5,0.2c-0.1-0.1-14.1-3-21.8,2
		c-0.1,0.1-0.2,0.1-0.3,0.1C156.7,179.1,156.6,179.1,156.5,179z M169.8,175.1c3,0,6,0.3,8.9,0.9c4.8-8.7,8.2-26.6-2.2-38.8
		c-5.3-6.1-8-9.9-7.5-24.5c0-1.5,0.5-2.9,1.5-4c-3.3,0.5-10.2,2.1-12.9,5.5c-0.9,1-1.2,2.4-1,3.7c1.1,7.9,4.2,14.9,7.5,22.3l0.5,1.1
		c3.4,7.8,1.3,17.6-1.1,24.4c-1.4,4-3.1,7.8-5.2,11.5C161.9,175.7,165.8,175,169.8,175.1L169.8,175.1z"/>
	<path class="st2" d="M223.8,182.9l25.2,36c0,0,45.1-21.1,53.2-38.7s-65.5-63.3-103.3-79.8L223.8,182.9z"/>
	<path class="st1" d="M229.3,228.8l-17.9-26.6c-0.1-0.2-0.1-0.5,0.1-0.6l42.8-40.3c0.2-0.2,0.5-0.2,0.7,0c0.2,0.2,0.2,0.5,0,0.7
		l-42.5,40l17.4,25.9c14.5-7.3,48.5-26.1,48.9-26.3c0,0,0.1,0,0.1-0.1c0.3-0.1,0.5,0,0.7,0.3s0,0.5-0.3,0.7
		c-0.3,0.2-35,19.3-49.3,26.5c-0.1,0-0.1,0-0.2,0C229.6,229,229.4,229,229.3,228.8z"/>
	<path class="st1" d="M240.6,174.7c-0.2-0.2-19-20.8-28.7-31.4c0,0,0,0,0-0.1c-0.2-0.2-0.1-0.5,0.1-0.7s0.5-0.1,0.7,0.1
		c9.7,10.6,28.5,31.1,28.7,31.4c0,0,0,0,0,0c0.2,0.2,0.2,0.5,0,0.7c-0.1,0.1-0.2,0.1-0.3,0.1C240.9,174.9,240.7,174.8,240.6,174.7z"
		/>
	<path class="st3" d="M173.2,126.4C173.2,126.4,173.2,126.4,173.2,126.4c-0.2-0.2-0.1-0.5,0.1-0.7c10.4-7.2,15.9-27.6,16-27.8
		c0.1-0.3,0.4-0.4,0.6-0.4c0.3,0.1,0.4,0.4,0.4,0.6c-0.2,0.8-5.7,21-16.4,28.4c-0.1,0.1-0.2,0.1-0.3,0.1
		C173.5,126.7,173.3,126.6,173.2,126.4z"/>
	<path class="st3" d="M152.4,131.8c-3-1.4-5.8-5.6-5.9-5.8c0,0,0,0,0,0c-0.1-0.2-0.1-0.5,0.2-0.7c0.2-0.1,0.5-0.1,0.7,0.2
		c0,0,2.7,4.2,5.5,5.4c0,0,0,0,0,0c0.2,0.1,0.4,0.4,0.2,0.7c-0.1,0.2-0.3,0.3-0.5,0.3C152.6,131.9,152.5,131.8,152.4,131.8z"/>
	<path class="st3" d="M176.8,164C176.8,164,176.8,164,176.8,164c-0.3-0.1-0.4-0.3-0.4-0.6c0-0.1,2.1-10.3-0.8-17.4
		c-0.1,2.6-0.6,5.2-1.5,7.8c0,0,0,0.1,0,0.1c-0.1,0.2-0.4,0.3-0.7,0.2c-0.2-0.1-0.3-0.4-0.2-0.7c1-3.1,1.5-6.3,1.4-9.5
		c0-0.2,0.1-0.3,0.2-0.4c0.2-0.2,0.6-0.1,0.7,0.2c4.2,7.4,1.9,19.5,1.8,20c0,0.2-0.3,0.4-0.5,0.4L176.8,164z"/>
	<path class="st3" d="M180.2,130c-0.1-0.2,0-0.5,0.2-0.7c6.2-3.5,7.9-14.3,7.9-14.4c0-0.3,0.3-0.5,0.6-0.4s0.5,0.3,0.4,0.6
		c-0.1,0.5-1.9,11.4-8.4,15.1c-0.1,0-0.2,0.1-0.2,0.1C180.4,130.3,180.3,130.2,180.2,130z"/>
	<path class="st3" d="M235.6,103.5c-0.1,0-11.7-3.8-20.6-3.4c0,0,0,0-0.1,0c-0.3,0-0.5-0.2-0.5-0.5c0-0.3,0.2-0.5,0.5-0.5
		c9.1-0.4,20.9,3.4,21,3.4c0,0,0,0,0,0c0.3,0.1,0.4,0.4,0.3,0.6c-0.1,0.2-0.3,0.3-0.5,0.3L235.6,103.5z"/>
	<path class="st1" d="M149.9,234.4c-0.1-0.8-7.2-76.6-8.3-87.6c0-0.3,0.2-0.5,0.4-0.6s0.5,0.2,0.6,0.4c1.1,11,8.2,86.8,8.3,87.6
		c0,0.3-0.2,0.5-0.4,0.6h-0.1C150.1,234.8,149.9,234.6,149.9,234.4z"/>
	<path class="st1" d="M139.2,186.5l-17.9-56.4c-0.1-0.3,0.1-0.5,0.3-0.6c0.3-0.1,0.5,0.1,0.6,0.3l17.9,56.4c0.1,0.3-0.1,0.5-0.3,0.6
		h-0.1C139.5,186.8,139.3,186.7,139.2,186.5z"/>
	<path class="st4" d="M167.6,70.9c0-10.9-13-19.7-29-19.7"/>
	<path class="st5" d="M130.9,67.5c4.3,0,7.8-7.3,7.8-16.4"/>
	<path class="st4" d="M130.2,52.1c0,9.1-2.2,16.4-4.8,16.4"/>
	<path class="st4" d="M126.1,53.4c0,8.4-0.2,15.2-0.5,15.2"/>
	<path class="st4" d="M131.1,66.9c1.8-7.9,1.9-14.5,0.2-14.9"/>
	<path class="st4" d="M113.9,59.4c0-15.9,16.1-28.7,35.9-28.7"/>
	<path class="st4" d="M113.9,59.4c0,8.4-4.1,15.2-9.1,15.2"/>
	<path class="st4" d="M121.8,53.9c0,11.4-7.1,20.6-16,20.6"/>
	<path class="st4" d="M187.8,66.2c0-19.6-17-35.5-38-35.5"/>
	<path class="st4" d="M187.8,65.4c0,16.8,6.2,30.5,14,30.5"/>
</g>
<line class="st4" x1="158" y1="62.7" x2="143" y2="66.9"/>
<line class="st4" x1="137" y1="69.3" x2="124.7" y2="73"/>
<path class="st4" d="M158,62.7c0,5.2-2.1,9.4-4.7,9.4"/>
<path class="st4" d="M143.9,67c0,2.8,4.2,5.1,9.4,5.1"/>
<path class="st4" d="M136.4,69.5c0,3.6-0.7,6.6-1.6,6.6"/>
<path class="st4" d="M124.7,73c0,2.1,4.2,3.9,9.5,3.9"/>
<path class="st4" d="M154.1,64.5c0.2,0.7,0.3,1.4,0.1,2.1s-0.6,1.3-1.3,1.6c-0.4,0.2-0.9,0.2-1.4,0.3c-0.7,0.1-1.5,0.1-2.2-0.2
	c-0.9-0.4-1.6-1.3-1.8-2.2"/>
<path class="st4" d="M133.8,70.8c0.3,0.5,0.2,1.1,0.1,1.7c-0.1,0.3-0.1,0.5-0.3,0.8c-0.4,0.7-1.1,1.2-1.9,1.3s-1.6-0.1-2.2-0.6
	c-0.6-0.4-1-0.9-1.3-1.5"/>
<path class="st4" d="M153.5,64.6c0.1,0.5,0.3,1,0.2,1.4c-0.1,0.7-0.7,1.3-1.4,1.6c-0.7,0.3-1.5,0.2-2.2-0.1
	c-0.7-0.3-1.3-0.7-1.8-1.2c-0.1-0.1-0.2-0.2-0.3-0.4c0.3,0.5,0.6,1,1.1,1.3s1.1,0.4,1.6,0.1c0.3-0.2,0.4-0.4,0.6-0.7
	c0.2-0.3,0.5-0.7,0.7-1c0.1-0.1,0.2-0.3,0.3-0.3c0.2-0.1,0.5,0.1,0.6,0.3c0.3,0.3,0.5,0.7,0.4,1.1c-0.1,0.5-0.5,1-1.1,1.1
	c-0.5,0.1-1.1-0.1-1.6-0.4c-0.2-0.1-0.3-0.2-0.5-0.4c-0.2-0.3-0.3-0.7-0.2-1.1c0.1-0.4,0.3-0.7,0.6-1c0.1-0.1,0.1-0.1,0.2-0.2
	c0.1,0,0.2,0,0.3,0.1c0.5,0.3,0.8,0.8,0.9,1.3c0,0.2,0,0.6-0.2,0.6c-0.1-0.4-0.3-0.8-0.3-1.2c0-0.4,0.2-0.9,0.6-1
	c0.4-0.2,1,0.1,1.2,0.5c0.1,0.3,0.1,0.7-0.2,0.9c-0.4,0.3-0.9,0-1.3-0.3c-0.3-0.2-0.5-0.6-0.4-0.9c0.5,0.3,1,0.6,1.4,1
	c0.1,0.1,0.2,0.2,0.2,0.3s0,0.3-0.1,0.3c-0.5-0.7-0.5-1.6,0-2.3c0.1-0.2,0.4-0.4,0.6-0.3c0.1,0,0.2,0.2,0.3,0.3
	c0.3,0.5,0.3,1.1,0.2,1.6c-0.1,0.3-0.3,0.6-0.5,0.5c-0.2,0-0.3-0.2-0.4-0.3c-0.3-0.5-0.3-1.1,0-1.6c0.2,0.6,0.2,1.2-0.1,1.8
	c-0.3,0.5-0.9,0.8-1.6,0.8c-0.3,0-0.7-0.1-0.9-0.3c-0.2-0.2-0.4-0.6-0.3-0.9c0-0.1,0.1-0.3,0.2-0.4c0.3-0.5,1-0.7,1.6-0.5
	c0.6,0.2,1,0.8,0.9,1.4c0,0.2,0,0.3-0.1,0.5c-0.2,0.3-0.6,0.4-1,0.4c-0.4,0-0.8-0.3-0.9-0.7c-0.2-0.6,0.3-1.1,0.8-1.4
	c0.2-0.1,0.6-0.2,0.8,0c0.1,0.1,0.1,0.2,0.1,0.3c0,0.4-0.2,0.8-0.5,1.1c-0.3,0.2-0.8,0.3-1.2,0.2c-0.2,0-0.4-0.1-0.5-0.3
	c-0.1-0.2-0.1-0.5,0-0.7c0.1-0.2,0.3-0.3,0.5-0.4c0.2-0.1,0.5-0.1,0.7,0c0.5,0.2,0.7,0.9,0.4,1.4s-1,0.6-1.5,0.5
	c-0.3-0.1-0.6-0.3-0.6-0.6c-0.1-0.3,0.2-0.6,0.4-0.8c0.3-0.2,0.7-0.3,1-0.3c0.4,0.1,0.7,0.4,0.7,0.7c0.1,0.6-0.4,1-1,1.2
	c-0.4,0.1-0.8,0.2-1.2,0.2c-0.3,0-0.5-0.1-0.7-0.3c-0.4-0.4-0.3-1.1,0.1-1.4c0.4-0.3,1.1-0.2,1.5,0.2c0.1,0.1,0.2,0.3,0.2,0.4
	c0,0.3-0.2,0.5-0.5,0.6c-0.3,0.1-0.6,0-0.8-0.2c-0.3-0.1-0.5-0.3-0.6-0.6c-0.1-0.3,0.1-0.6,0.4-0.7c0.3,0,0.6,0.3,0.6,0.7
	c0,0.2,0,0.5-0.2,0.6c-0.2,0.1-0.4,0-0.5-0.1c-0.3-0.3-0.1-0.9,0.3-1.1s0.9,0.2,1,0.6c0.1,0.4-0.2,0.9-0.6,1
	c-0.4,0.1-0.9,0.1-1.1-0.3c-0.3-0.3-0.2-0.8,0.1-1.1"/>
<path class="st4" d="M132.7,73.4c-0.3,0.2-0.7,0-1-0.3c-0.2-0.3-0.2-0.7-0.1-1s0.4-0.6,0.7-0.8c0.2-0.2,0.4-0.3,0.7-0.3
	c0.3,0,0.5,0,0.7,0.2c0.3,0.3,0.2,0.8-0.1,1.2c-0.4,0.5-1.1,0.8-1.8,0.7c-0.3,0-0.6-0.2-0.6-0.5c0-0.1,0-0.2,0.1-0.3
	c0.3-0.5,0.8-0.9,1.4-1.1c0.1,0,0.2,0,0.3,0c0.1,0.1,0.1,0.2,0,0.3c-0.2,0.8-1,1.4-1.9,1.4c-0.3,0-0.7-0.1-0.8-0.4
	c-0.2-0.3,0.1-0.8,0.4-1c0.2-0.1,0.4-0.2,0.6-0.1c0.3,0.2,0.3,0.6,0.2,0.9c-0.2,0.4-0.5,0.7-1,0.8c-0.4,0.1-0.9-0.1-0.9-0.5
	c0-0.2,0.1-0.4,0.3-0.6c0.2-0.1,0.4-0.2,0.6-0.2c0.3-0.1,0.7,0,0.8,0.3c0.1,0.2,0,0.4-0.1,0.5c-0.1,0.1-0.3,0.2-0.5,0.2
	c-0.2,0-0.4,0-0.6,0c-0.3,0-0.6-0.2-0.6-0.5c0-0.3,0.4-0.4,0.7-0.4c0.3,0,0.6,0.2,0.7,0.4c0.2,0.4-0.2,0.8-0.6,1
	c-0.4,0.2-0.9,0.3-1.3,0.2c-0.3,0-0.5-0.2-0.6-0.4c-0.1-0.3,0.1-0.6,0.4-0.8c0.6-0.5,1.5-0.7,2.2-0.5c0.2,0,0.3,0.1,0.5,0.3
	c0.1,0.1,0.1,0.4,0,0.5c-0.1,0.1-0.3,0.1-0.5,0.1c-0.5-0.1-1-0.3-1.3-0.6c0,0-0.1-0.1-0.1-0.2c0-0.1,0.1-0.2,0.2-0.3
	c0.1,0,0.2,0,0.3,0c0.7,0.1,1.3,0.5,1.8,1c0.1,0.1,0.2,0.3,0.2,0.4c0,0.2-0.2,0.3-0.4,0.3c-0.5,0.2-1,0.1-1.5-0.1
	c-0.5-0.2-0.9-0.5-1.3-0.8c-0.1-0.1-0.3-0.2-0.3-0.4c0-0.1,0.1-0.2,0.1-0.2c0.2-0.3,0.6-0.4,1-0.4s0.7,0.1,1.1,0.3
	c0.3,0.1,0.7,0.4,0.7,0.8c0,0.3-0.4,0.5-0.7,0.6c-0.7,0.2-1.5,0.1-2.1-0.3c-0.1-0.1-0.2-0.1-0.2-0.2c-0.1-0.3,0.2-0.5,0.5-0.5
	c0.9-0.3,1.8-0.2,2.6,0.3c0.3,0.2,0.6,0.5,0.5,0.8c-0.1,0.3-0.4,0.4-0.7,0.3c-0.5,0-0.9-0.2-1.2-0.6c-0.1-0.1-0.3-0.4-0.2-0.6
	c0-0.1,0.1-0.1,0.2-0.2c0.4-0.3,0.9-0.5,1.5-0.5c0.2,0,0.5,0,0.6,0.2c0.1,0.1,0.1,0.2,0.1,0.3c0,0.5-0.5,1-1,1c-0.3,0-0.6,0-0.8-0.1
	c-0.2-0.2-0.3-0.5-0.2-0.7c0.1-0.3,0.4-0.3,0.7-0.4c0.4-0.1,1.3-0.5,1.6-0.1C133.2,72.4,133.2,73.2,132.7,73.4z"/>
<path class="st4" d="M125.3,69.9c0.1,0.5,0.2,1,0.4,1.4s0.5,0.9,0.9,1.1"/>
<path class="st4" d="M127.5,69.7c0.1,0.4,0.2,0.9,0.5,1.3c0.2,0.3,0.4,0.5,0.6,0.6"/>
<path class="st4" d="M130,69.1c0,0.6,0.2,1.1,0.4,1.6c0.1,0.1,0.2,0.3,0.3,0.3"/>
<path class="st4" d="M144.3,64c0.1,0.2,0.2,0.3,0.3,0.5c0.4,0.6,0.8,1.3,1.4,1.6"/>
<path class="st4" d="M146.6,63.4c0.2,0.8,0.7,1.5,1.3,2"/>
<path class="st4" d="M149.1,62.7c0.2,0.8,0.7,1.5,1.3,2"/>
<line class="st5" x1="121.9" y1="97.3" x2="129.8" y2="89.4"/>
<line class="st4" x1="132.2" y1="93.3" x2="124.2" y2="100.3"/>
<line class="st4" x1="128.2" y1="90.9" x2="129.2" y2="92"/>
<line class="st4" x1="126.5" y1="92.9" x2="127.2" y2="93.6"/>
<line class="st4" x1="124.7" y1="94.7" x2="125.3" y2="95.6"/>
<line class="st4" x1="123.3" y1="96.3" x2="123.8" y2="97"/>
<path class="st4" d="M129.3,89.8c0.2-0.9,2.2-1.2,4.5-0.8"/>
<path class="st4" d="M133.2,88.6c0.4,2.5,0,4.7-1,4.9"/>
<line class="st6" x1="123.3" y1="98.7" x2="127.1" y2="95"/>
<path class="st7" d="M140.3,93.4c0-5.4,11.6-9.8,25.9-9.8"/>
<path class="st7" d="M169.2,87.1c0-1.9-1.6-3.4-3.7-3.4"/>
<path class="st7" d="M169.2,87.1c0,4.7-5,8.5-11.2,8.5"/>
<path class="st7" d="M140.3,93.4c0,1.2,7.9,2.2,17.7,2.2"/>
<path class="st7" d="M157.4,95.2c0-4.2,5.1-7.6,11.4-7.6"/>
<line class="st4" x1="162.3" y1="47.9" x2="158.2" y2="57.4"/>
<line class="st4" x1="160" y1="47.3" x2="156.3" y2="56.4"/>
</svg>
