<?xml version="1.0" encoding="utf-8"?>
<!-- Generator: Adobe Illustrator 21.0.2, SVG Export Plug-In . SVG Version: 6.00 Build 0)  -->
<svg version="1.1" id="Layer_1" xmlns="http://www.w3.org/2000/svg" xmlns:xlink="http://www.w3.org/1999/xlink" x="0px" y="0px"
	 viewBox="0 0 64 64" style="enable-background:new 0 0 64 64;" xml:space="preserve">
<style type="text/css">
	.st0{fill:#F5F5F5;}
	.st1{fill:#055D8D;}
	.st2{fill:#072C58;}
	.st3{fill:#34C1AD;}
</style>
<title></title>
<g id="_17-R.I.P">
	<path class="st0" d="M32,1C19.3,1,9,11.3,9,24v31h46V24C55,11.3,44.7,1,32,1z"/>
	<path class="st1" d="M59,59v4H5v-4c0-2.2,1.8-4,4-4h46C57.2,55,59,56.8,59,59z"/>
	<path class="st2" d="M55,55v1.2c0,2.1-1.4,3.8-3.1,3.8H12.1C10.4,60,9,58.3,9,56.2V55c-2.2,0-4,1.8-4,4v4h54v-4
		C59,56.8,57.2,55,55,55z"/>
	<path class="st1" d="M25,20c0-2.8-2.2-5-5-5h-2c-0.6,0-1,0.4-1,1v14h2v-4.8l3.5,2.1c0.3,0.2,0.5,0.5,0.5,0.9V30h2v-1.9
		c0-1.1-0.6-2-1.5-2.6l-1.6-1c0.6-0.3,1.1-0.6,1.6-1.1C24.5,22.6,25,21.3,25,20z M22.1,22.1C21.6,22.7,20.8,23,20,23h-1v-6h1
		c1.7,0,3,1.3,3,3C23,20.8,22.7,21.6,22.1,22.1z"/>
	<rect x="31" y="15" class="st1" width="2" height="15"/>
	<path class="st1" d="M42,15h-2c-0.6,0-1,0.4-1,1v14h2v-5h1c2.8,0,5-2.2,5-5S44.8,15,42,15z M44.1,22.1C43.6,22.7,42.8,23,42,23h-1
		v-6h1c1.7,0,3,1.3,3,3C45,20.8,44.7,21.6,44.1,22.1z"/>
	<rect x="27" y="28" class="st1" width="2" height="2"/>
	<rect x="35" y="28" class="st1" width="2" height="2"/>
	<rect x="17" y="48" class="st1" width="14" height="2"/>
	<rect x="33" y="48" class="st1" width="14" height="2"/>
	<rect x="26" y="35" class="st3" width="12" height="8"/>
	<path class="st1" d="M11,24c0-11.6,9.4-21,21-21s21,9.4,21,21v31h2V24C55,11.3,44.7,1,32,1S9,11.3,9,24v31h2V24z"/>
	<rect x="53" y="51" class="st2" width="2" height="4"/>
	<rect x="9" y="51" class="st2" width="2" height="4"/>
</g>
</svg>
