<?xml version="1.0" encoding="utf-8"?>
<!-- Generator: Adobe Illustrator 21.0.2, SVG Export Plug-In . SVG Version: 6.00 Build 0)  -->
<svg version="1.1" id="Layer_1" xmlns="http://www.w3.org/2000/svg" xmlns:xlink="http://www.w3.org/1999/xlink" x="0px" y="0px"
	 viewBox="0 0 269 300" style="enable-background:new 0 0 269 300;" xml:space="preserve">
<style type="text/css">
	.st0{fill:#D1D3D4;}
	.st1{fill:#EF8181;}
	.st2{fill:#FFE0BD;}
	.st3{fill:#231F20;}
	.st4{fill:#595959;}
	.st5{fill:#D1D1D1;}
	.st6{fill:#FFFFFF;}
</style>
<g id="_193_health_flatline">
	<path class="st0" d="M262.8,153.9h-53.4c-0.3,0-0.5-0.2-0.5-0.5V88.8c0-0.3,0.2-0.5,0.5-0.5h53.4c0.3,0,0.5,0.2,0.5,0.5v64.6
		C263.3,153.6,263,153.9,262.8,153.9z M209.9,152.9h52.4V89.3h-52.4V152.9z"/>
	<path class="st1" d="M241.1,96.4H238v-3.2c0-0.5-0.4-0.8-0.9-0.8l0,0h-2c-0.5,0-0.9,0.4-0.9,0.8l0,0v3.2H231
		c-0.5,0-0.9,0.4-0.9,0.8l0,0v2c0,0.5,0.4,0.8,0.9,0.8l0,0h3.2v3.2c0,0.5,0.4,0.8,0.9,0.8l0,0h2c0.5,0,0.9-0.4,0.9-0.8l0,0V100h3.2
		c0.5,0,0.9-0.4,0.9-0.8l0,0v-2C242,96.8,241.6,96.4,241.1,96.4z"/>
	<path class="st0" d="M240.8,110.6h-25.5c-0.3,0-0.5-0.2-0.5-0.5s0.2-0.5,0.5-0.5h25.5c0.3,0,0.5,0.2,0.5,0.5
		S241.1,110.6,240.8,110.6z"/>
	<path class="st0" d="M256.8,110.6h-8.6c-0.3,0-0.5-0.2-0.5-0.5s0.2-0.5,0.5-0.5h8.6c0.3,0,0.5,0.2,0.5,0.5S257.1,110.6,256.8,110.6
		z"/>
	<path class="st0" d="M235,117.6h-19.7c-0.3,0-0.5-0.2-0.5-0.5s0.2-0.5,0.5-0.5H235c0.3,0,0.5,0.2,0.5,0.5S235.3,117.6,235,117.6z"
		/>
	<path class="st0" d="M255.9,117.6h-7.7c-0.3,0-0.5-0.2-0.5-0.5s0.2-0.5,0.5-0.5h7.7c0.3,0,0.5,0.2,0.5,0.5S256.2,117.6,255.9,117.6
		z"/>
	<path class="st0" d="M237.9,124.6h-22.6c-0.3,0-0.5-0.2-0.5-0.5s0.2-0.5,0.5-0.5h22.6c0.3,0,0.5,0.2,0.5,0.5
		S238.2,124.6,237.9,124.6z"/>
	<path class="st0" d="M256.8,124.6h-8.6c-0.3,0-0.5-0.2-0.5-0.5s0.2-0.5,0.5-0.5h8.6c0.3,0,0.5,0.2,0.5,0.5S257.1,124.6,256.8,124.6
		z"/>
	<path class="st0" d="M235,131.6h-19.7c-0.3,0-0.5-0.2-0.5-0.5s0.2-0.5,0.5-0.5H235c0.3,0,0.5,0.2,0.5,0.5S235.3,131.6,235,131.6z"
		/>
	<path class="st0" d="M255.4,131.6h-7.2c-0.3,0-0.5-0.2-0.5-0.5s0.2-0.5,0.5-0.5h7.2c0.3,0,0.5,0.2,0.5,0.5
		C255.9,131.4,255.7,131.6,255.4,131.6z"/>
	<path class="st0" d="M240.8,138.6h-25.5c-0.3,0-0.5-0.2-0.5-0.5s0.2-0.5,0.5-0.5h25.5c0.3,0,0.5,0.2,0.5,0.5
		C241.3,138.4,241.1,138.6,240.8,138.6z"/>
	<path class="st0" d="M256.8,138.6h-8.6c-0.3,0-0.5-0.2-0.5-0.5s0.2-0.5,0.5-0.5h8.6c0.3,0,0.5,0.2,0.5,0.5
		C257.3,138.4,257.1,138.6,256.8,138.6z"/>
	<path class="st0" d="M232.2,145.6h-16.9c-0.3,0-0.5-0.2-0.5-0.5s0.2-0.5,0.5-0.5h16.9c0.3,0,0.5,0.2,0.5,0.5
		S232.5,145.6,232.2,145.6z"/>
	<path class="st0" d="M256.8,145.6h-8.6c-0.3,0-0.5-0.2-0.5-0.5s0.2-0.5,0.5-0.5h8.6c0.3,0,0.5,0.2,0.5,0.5
		C257.3,145.4,257.1,145.6,256.8,145.6z"/>
	<path class="st2" d="M67.6,160.6c0-0.9-3.5-4.3-4.1-5c-1.3-1.6-3.6-2.8-4.1-4.9c-0.4-1.8,1-5.3,0.8-7.1c-0.2-1.4-0.5-2.7-1-4
		c-0.4-1.3-1.2-2.4-2.4-3.1c-0.5-0.3-1.2-0.2-1.6,0.2c-0.2,0.4-0.3,0.8-0.3,1.2c0.1,1.9,0.1,3.8-0.2,5.6c-2.3,11.5-15.3-0.4-20-3.9
		c-3.6-2.6-7.3-5.4-11.7-5.9c-0.7-0.1-1.4,0-2,0.3c-0.8,0.6-1.1,1.7-0.7,2.7c0.4,0.9,1,1.7,1.7,2.4c-0.7-0.7-1.4-1.2-2.3-1.5
		s-1.9-0.1-2.6,0.6c-0.5,0.8-0.5,1.9,0,2.7s1.2,1.4,2.1,1.9c-0.9-1.2-2.5-1.8-4-1.6c-1.2,1.8,0.4,4.1,1.9,5.6c2.7,2.8,5.9,5,9.4,6.6
		c3.4,1.4,6.7,2.6,9.7,4.9c7,5.4,13.1,12.1,18.7,19c1.9-3.4,4-6.6,6.5-9.6C63,165.5,67.6,162.9,67.6,160.6z"/>
	<path class="st3" d="M55,177.4c-0.1,0-0.3-0.1-0.4-0.2C48,169,42.1,163,36,158.3c-2.7-1.9-5.6-3.4-8.8-4.5l-0.8-0.3
		c-3.6-1.6-6.8-3.9-9.5-6.7c-0.9-0.8-3.6-3.7-2-6.2c0.1-0.1,0.2-0.2,0.3-0.2c0.5-0.1,1-0.1,1.4,0c-0.4-0.9-0.4-2,0.2-2.8
		c0.8-0.8,1.9-1.1,3-0.7h0.1c0-0.1-0.1-0.2-0.1-0.3c-0.5-1.1-0.1-2.5,0.9-3.2c0.7-0.4,1.5-0.5,2.3-0.4c4.3,0.5,7.9,3.1,11.4,5.7
		l0.5,0.4c0.6,0.4,1.3,1,2.1,1.6c4,3.1,10.7,8.3,14.4,6.9c1.4-0.5,2.3-2,2.8-4.3c0.3-1.7,0.3-3.5,0.2-5.3v-0.3
		c-0.1-0.5,0.1-1.1,0.4-1.5c0.6-0.6,1.5-0.7,2.2-0.3c1.3,0.7,2.3,2,2.6,3.4c0.5,1.3,0.8,2.7,1,4.1c0,1.2-0.1,2.3-0.4,3.4
		c-0.3,1.2-0.5,2.4-0.4,3.6c0.4,1.2,1.3,2.3,2.3,3.1c0.6,0.5,1.1,1.1,1.6,1.6c0.1,0.2,0.5,0.5,0.9,1c2.2,2.3,3.3,3.6,3.3,4.3l0,0
		c0,1.7-2,3.4-3.9,5c-0.8,0.6-1.6,1.3-2.3,2.1c-2.5,3-4.6,6.1-6.5,9.5C55.2,177.3,55.1,177.4,55,177.4L55,177.4z M15.6,141.4
		c-1,1.8,1.2,4.1,1.9,4.8c2.6,2.7,5.8,4.9,9.2,6.5l0.8,0.3c3.2,1.1,6.2,2.6,9,4.6c6,4.6,11.8,10.5,18.3,18.6c1.8-3.2,3.9-6.2,6.2-9
		c0.7-0.8,1.5-1.6,2.4-2.2c1.6-1.3,3.6-3,3.6-4.3c-0.1-0.6-2.2-2.8-3-3.7c-0.4-0.5-0.8-0.8-0.9-1c-0.5-0.6-1-1.1-1.5-1.5
		c-1.2-0.9-2.1-2.1-2.6-3.6c-0.1-1.3,0-2.7,0.4-4c0.3-1,0.4-2.1,0.4-3.2c-0.2-1.3-0.5-2.7-0.9-3.9c-0.3-1.2-1.1-2.2-2.2-2.9
		c-0.4-0.2-0.9-0.2-1.1,0.1s-0.2,0.6-0.2,0.9v0.2c0.1,1.8,0,3.7-0.2,5.5c-0.5,2.6-1.7,4.3-3.4,5c-4.3,1.6-10.9-3.6-15.3-7
		c-0.8-0.6-1.5-1.1-2.1-1.6l-0.5-0.4c-3.4-2.5-6.9-5-11-5.5c-0.6-0.1-1.2,0-1.7,0.2c-0.6,0.5-0.8,1.4-0.5,2.2
		c0.4,0.9,0.9,1.6,1.6,2.2c0.2,0.2,0.1,0.5-0.1,0.6s-0.4,0.1-0.6,0c-0.6-0.6-1.3-1.1-2.2-1.4c-0.8-0.4-1.8-0.1-2.2,0.7
		c-0.3,0.6-0.2,1.4,0.2,1.9c0.1,0.2,0.2,0.4,0.4,0.5c0.6,0.3,1.2,0.8,1.6,1.3c0.1,0.2,0.1,0.4,0,0.6c-0.2,0.2-0.4,0.2-0.6,0.1
		c-0.6-0.4-1.1-0.8-1.6-1.2C16.9,141.4,16.3,141.3,15.6,141.4z"/>
	<path class="st4" d="M184.4,61.6c-0.5-0.3-0.9-0.6-0.9-0.6c-1-5.5-6.1-8.4-11.2-8.5c-6.2-0.2-12.2,0.8-17.8-2.5
		c-2.3-1.4-4.7-2.8-7.3-2.7c-3,0.2-5.5,2.6-6.6,5.4c-3.2,7.5,0.8,17.7,6.5,23c2.4,2.1,4.9,3.9,7.7,5.6l5.7,3.6
		c5.8,3.7,13.8,7.2,20.8,4.6c5.4-2,7.8-8.3,8.4-13.5c0.4-2.9,0.1-5.9-0.7-8.7c-0.3-1.3-0.9-2.5-1.6-3.6
		C186.3,62.9,185.4,62.2,184.4,61.6z"/>
	<path class="st3" d="M176,90.9c-5.8,0-11.6-2.8-15.9-5.6l-5.7-3.6c-2.7-1.6-5.3-3.5-7.7-5.6c-5.7-5.3-9.9-15.8-6.6-23.5
		c1.4-3.3,4.1-5.5,7.1-5.7c2.7-0.2,5.2,1.3,7.5,2.7l0.1,0.1c4.3,2.6,8.9,2.5,13.7,2.5c1.2,0,2.5,0,3.8,0c5,0.1,10.6,2.9,11.7,8.7
		l0.7,0.4l-0.2,0.5l0.3-0.4c1.1,0.6,2.1,1.3,3,2.1c0.8,1.2,1.4,2.4,1.7,3.8c0.9,2.9,1.1,5.9,0.8,8.9c-0.6,5.4-3.3,11.9-8.8,13.9
		C179.6,90.6,177.8,90.9,176,90.9z M147.6,47.8h-0.4c-2.5,0.2-5,2.2-6.2,5.1c-3.1,7.3,0.9,17.3,6.4,22.4c2.4,2.1,4.9,3.9,7.6,5.5
		l5.7,3.6c5.4,3.5,13.4,7.1,20.3,4.5c5.1-1.9,7.5-8,8.1-13.1c0.4-2.9,0.1-5.8-0.7-8.5c-0.3-1.2-0.9-2.4-1.6-3.5
		c-0.9-0.7-1.8-1.3-2.8-1.9l0,0l0.3-0.4L184,62c-1-0.7-1-0.7-1.1-0.9c-0.9-5.4-6.1-8-10.8-8.1c-1.3,0-2.5,0-3.8,0
		c-5,0-9.7,0.1-14.2-2.6l-0.1-0.1C152,49.1,149.9,47.8,147.6,47.8z"/>
	<path class="st5" d="M203.8,158l19.6-8.8c-0.7-1.4-12.1-27.9-22.6-34.5c-9-7.5-27.1-8.2-47.5-9c0,0-9.4,0.8-19.4,1.9
		c-11,1.2-21.4,11.7-21.4,11.7l3.4,41.7c0,0-1.9,33.8-5.1,76.4H206C205.9,237.5,203.3,164.1,203.8,158z"/>
	<polygon class="st6" points="148.7,118.6 155.1,191.8 175.2,116.4 	"/>
	<circle class="st3" cx="175.8" cy="147.8" r="4.4"/>
	<path class="st3" d="M175.8,152.6c-2.7,0-4.8-2.1-4.8-4.8s2.1-4.8,4.8-4.8s4.8,2.1,4.8,4.8l0,0
		C180.6,150.4,178.4,152.6,175.8,152.6z M175.8,143.8c-2.2,0-3.9,1.8-3.9,3.9s1.8,3.9,3.9,3.9s3.9-1.8,3.9-3.9l0,0
		C179.7,145.6,177.9,143.8,175.8,143.8z"/>
	<circle class="st3" cx="177.7" cy="146.5" r="3.5"/>
	<path class="st3" d="M177.7,150.4c-2.2,0-3.9-1.8-3.9-3.9s1.8-3.9,3.9-3.9c2.2,0,3.9,1.8,3.9,3.9l0,0
		C181.7,148.6,179.9,150.4,177.7,150.4z M177.7,143.4c-1.7,0-3,1.3-3,3s1.3,3,3,3s3-1.3,3-3S179.4,143.4,177.7,143.4L177.7,143.4z"
		/>
	<path class="st3" d="M142.5,135.5L142.5,135.5c-0.3,0-0.5-0.2-0.5-0.5c0.1-1.1,2.9-25.9,14.4-28.3c0.2,0,0.5,0.1,0.5,0.3
		c0,0.2-0.1,0.5-0.4,0.5l0,0c-10.9,2.2-13.7,27.3-13.7,27.5C142.9,135.3,142.7,135.5,142.5,135.5z"/>
	<path class="st3" d="M176.6,146L176.6,146c-0.3,0-0.5-0.3-0.5-0.6l0,0c2.9-26.1-0.8-36.3-0.8-36.4c-0.1-0.2,0-0.5,0.2-0.7
		c0.2-0.1,0.5,0,0.7,0.2v0.1c0.2,0.4,3.9,10.5,0.9,36.9C177.1,145.8,176.8,146,176.6,146z"/>
	<path class="st3" d="M149.8,164c-0.3,0-0.5-0.2-0.5-0.5s0.2-0.5,0.5-0.5c1.5,0,2.8-1.2,2.8-2.8v-15.4c0-5.1-4.2-9.3-9.3-9.3h-1.7
		c-5.1,0-9.3,4.2-9.3,9.3v15.4c0,1.5,1.2,2.8,2.8,2.8c0.3,0,0.5,0.2,0.5,0.5s-0.2,0.5-0.5,0.5c-2.1,0-3.8-1.7-3.8-3.8v-15.4
		c0-5.7,4.6-10.3,10.3-10.3h1.7c5.7,0,10.3,4.6,10.3,10.3v15.4C153.6,162.3,151.9,164,149.8,164L149.8,164z"/>
	<path class="st3" d="M136.2,161.1L136.2,161.1c0.5,0,0.8,0.4,0.8,0.8v3.2c0,0.5-0.4,0.8-0.8,0.8l0,0c-0.5,0-0.8-0.4-0.8-0.8v-3.2
		C135.3,161.5,135.7,161.1,136.2,161.1z"/>
	<path class="st3" d="M136.2,166.4c-0.7,0-1.3-0.6-1.3-1.3v-3.2c0-0.7,0.6-1.3,1.3-1.3s1.3,0.6,1.3,1.3v3.2
		C137.4,165.9,136.9,166.4,136.2,166.4z M136.2,161.5c-0.2,0-0.4,0.2-0.4,0.4v3.2c0,0.2,0.2,0.4,0.4,0.4s0.4-0.2,0.4-0.4v-3.2
		C136.6,161.7,136.4,161.5,136.2,161.5L136.2,161.5z"/>
	<path class="st3" d="M149.5,161.1L149.5,161.1c0.5,0,0.8,0.4,0.8,0.8v3.2c0,0.5-0.4,0.8-0.8,0.8l0,0c-0.5,0-0.8-0.4-0.8-0.8v-3.2
		C148.6,161.5,149,161.1,149.5,161.1z"/>
	<path class="st3" d="M149.5,166.4c-0.7,0-1.3-0.6-1.3-1.3v-3.2c0-0.7,0.6-1.3,1.3-1.3s1.3,0.6,1.3,1.3v3.2
		C150.8,165.9,150.2,166.4,149.5,166.4z M149.5,161.5c-0.2,0-0.4,0.2-0.4,0.4v3.2c0,0.2,0.2,0.4,0.4,0.4s0.4-0.2,0.4-0.4v-3.2
		C149.9,161.7,149.7,161.5,149.5,161.5L149.5,161.5z"/>
	<path class="st6" d="M177.7,150.4L177.7,150.4c-1.9-0.3-3.1-1-3.7-2.1c-0.9-1.9,0.4-4.1,0.5-4.2c0.1-0.2,0.4-0.3,0.7-0.2l0,0
		c0.2,0.1,0.3,0.4,0.2,0.7c0,0-1.1,1.9-0.4,3.3c0.4,0.8,1.4,1.4,2.9,1.6c0.3,0,0.5,0.3,0.5,0.5S178,150.5,177.7,150.4L177.7,150.4z"
		/>
	<path class="st2" d="M150.1,102.1l-1.4,16.5c0,0,1.5,9.2,11.8,7.7c6.1-1,11.5-4.6,14.7-10l2.5-28.3c0,0-7.1-4.7-3.4-20.6
		c-8.5,2.8-17.7,3.2-26.4,1.2c0,0-6.2,17.1-5.7,25C142.3,98,145.7,101.6,150.1,102.1z"/>
	<path class="st3" d="M158.3,127c-8.6,0-10.1-8.2-10.1-8.3v-0.1l1.3-16c-4.4-0.7-7.8-4.4-7.9-8.9c-0.5-7.9,5.5-24.5,5.7-25.2
		c0.1-0.2,0.3-0.4,0.6-0.3c8.7,1.9,17.7,1.5,26.1-1.2c0.3-0.1,0.5,0,0.6,0.3c0,0.1,0,0.2,0,0.3c-3.6,15.4,3.1,20,3.2,20.1
		c0.2,0.1,0.2,0.3,0.2,0.5l-2.5,28.3c0,0.1,0,0.1-0.1,0.2c-3.2,5.5-8.7,9.3-15,10.2C159.8,127,159.1,127,158.3,127z M149.2,118.6
		c0.1,0.8,1.8,8.6,11.2,7.2c5.9-0.9,11.2-4.5,14.2-9.6l2.5-28c-1.2-1-6.5-6.2-3.5-20.1c-8.3,2.4-17,2.8-25.4,1
		c-0.9,2.7-5.9,17.4-5.5,24.4c0.1,4.2,3.3,7.6,7.5,8c0.3,0,0.5,0.3,0.5,0.5l0,0L149.2,118.6z"/>
	<path class="st3" d="M149.2,112.3c3.7-1,7.1-2.8,10.1-5.2c4.8-3.8,4.7-6.4,4.7-6.4s-7.5,3.2-14,1.3L149.2,112.3z"/>
	<path class="st3" d="M149.2,112.8c-0.1,0-0.2,0-0.3-0.1s-0.2-0.3-0.2-0.4l0.8-10.2c0-0.2,0.1-0.3,0.2-0.4c0.1-0.1,0.3-0.1,0.4-0.1
		c6.2,1.9,13.5-1.3,13.6-1.3c0.1-0.1,0.3-0.1,0.5,0c0.1,0.1,0.2,0.2,0.2,0.4c0,0.1,0.1,2.8-4.9,6.8
		C156.4,109.9,152.9,111.7,149.2,112.8L149.2,112.8z M150.5,102.8l-0.7,8.9c3.3-1.1,6.5-2.7,9.2-4.9c3-2.4,4-4.2,4.3-5.2
		C161.2,102.3,155.7,104,150.5,102.8L150.5,102.8z"/>
	<path class="st5" d="M112.4,119.4l-23.3,48.8l-25.5-14.9l-17.2,18.3c0,0,31.5,41.3,48.4,32.6s30.8-38.2,30.8-38.2L112.4,119.4z"/>
	<path class="st3" d="M112.1,219.4L112.1,219.4c-0.3,0-0.5-0.2-0.5-0.5l0,0c1.2-28.5,7.4-84.4,7.4-84.9c0-0.3,0.2-0.5,0.5-0.4l0,0
		c0.3,0,0.5,0.3,0.4,0.6c-0.1,0.6-6.2,56.3-7.4,84.9C112.6,219.2,112.4,219.4,112.1,219.4L112.1,219.4z"/>
	<polygon class="st6" points="162,180.6 180.7,243.3 128.5,243.2 110.3,181.8 	"/>
	<path class="st3" d="M180.7,243.8L180.7,243.8l-52.2-0.2c-0.2,0-0.4-0.1-0.4-0.3L110,181.9c0-0.1,0-0.3,0.1-0.4
		c0.1-0.1,0.2-0.2,0.4-0.2l51.7-1.3l0,0c0.2,0,0.4,0.1,0.4,0.3l18.6,62.8C181.2,243.5,181,243.7,180.7,243.8L180.7,243.8
		L180.7,243.8z M128.8,242.7l51.3,0.1L161.7,181l-50.8,1.2L128.8,242.7z"/>
	<path class="st2" d="M203.8,214.1c-6.9,0.9-14.5-0.4-21,1.8c-6.8,2.3-14.2,4.2-21.3,2c-3.3-1-8.9-14.2-3.5-15
		c3.5-0.6,10.6-0.7,10.6-0.7l-2.1-7.9c0,0,4.5,4.5,9.6,4.7s22.4-0.6,22.4-0.6"/>
	<path class="st3" d="M168.2,219.4c-2.3,0-4.6-0.3-6.9-1c-2.7-0.9-6.4-8.4-6.1-12.6c0.2-2.4,1.5-3.1,2.6-3.3c3-0.5,8.3-0.7,10-0.7
		l-1.9-7.4c0-0.2,0-0.4,0.2-0.5s0.4-0.1,0.6,0.1c0,0,4.5,4.4,9.3,4.5c5,0.1,22.2-0.5,22.4-0.5s0.4,0.1,0.5,0.4c0,0,0,0,0,0.1
		c0,0.3-0.2,0.5-0.4,0.5l0,0c-0.2,0-17.3,0.7-22.4,0.5c-3.7-0.1-7.1-2.4-8.8-3.8l1.7,6.5c0,0.1,0,0.3-0.1,0.4
		c-0.1,0.1-0.2,0.2-0.4,0.2c-0.1,0-7,0.2-10.5,0.7c-1.1,0.2-1.7,1-1.8,2.5c-0.3,4,3.3,11,5.4,11.7c6.9,2.1,14.2,0.3,21-2
		c4.1-1.4,8.7-1.4,13.1-1.5c2.7,0,5.3-0.1,8-0.4c0.2,0,0.5,0.2,0.5,0.4s-0.1,0.5-0.4,0.5l0,0c-2.7,0.3-5.4,0.4-8.1,0.4
		c-4.4,0-8.9,0.1-12.9,1.4C178.1,218,173.1,219.4,168.2,219.4z"/>
	<polygon class="st3" points="125.5,179.4 129,187.6 151.1,186.8 148,178.8 	"/>
	<path class="st3" d="M129,188c-0.2,0-0.3-0.1-0.4-0.3l-3.4-8.1c-0.1-0.2,0-0.5,0.2-0.6c0.1,0,0.1,0,0.2,0l22.5-0.7
		c0.2,0,0.4,0.1,0.4,0.3l3.1,8c0.1,0.1,0.1,0.3,0,0.4c-0.1,0.1-0.2,0.2-0.4,0.2L129,188z M126.2,179.8l3.1,7.3l21.2-0.8l-2.7-7.1
		L126.2,179.8z"/>
	<path class="st3" d="M137.6,175.2c-0.8-0.3-1.8-0.4-2.6-0.1c-1.2,0.5-2.1,1.6-2.3,2.9c-0.1,0.8,0.1,1.5,0.4,2.2
		c0.2,0.7,0.6,1.4,1.2,1.9c1.8,1.7,6.4,1.5,6.6-2.1c0-0.9-0.2-1.9-0.7-2.7C139.6,176.3,138.7,175.6,137.6,175.2z"/>
	<path class="st3" d="M137.1,183.6c-1.2,0-2.3-0.4-3.2-1.1c-0.6-0.6-1-1.3-1.3-2.1s-0.5-1.6-0.4-2.4c0.2-1.5,1.2-2.7,2.6-3.2
		c1-0.3,2-0.3,2.9,0.1c1.2,0.4,2.2,1.2,2.8,2.3c0.5,0.9,0.7,1.9,0.7,2.9c-0.1,1.4-1,2.7-2.4,3.2
		C138.4,183.5,137.7,183.6,137.1,183.6z M136.1,175.4c-0.3,0-0.7,0.1-1,0.2c-1.1,0.4-1.8,1.4-2,2.5c-0.1,0.7,0,1.4,0.3,2
		c0.6,2,2.7,3.1,4.7,2.6c0.2-0.1,0.4-0.1,0.5-0.2c1-0.4,1.7-1.4,1.7-2.5c0-0.9-0.2-1.7-0.6-2.5c-0.5-0.9-1.3-1.6-2.4-1.9l0,0
		C137,175.5,136.6,175.4,136.1,175.4L136.1,175.4z"/>
	<path class="st6" d="M17.8,105.8l2.8,41.4c0.2,2.9,8.3,4.7,18.2,4.1s17.7-3.6,17.5-6.4l-2.8-41.4L17.8,105.8z"/>
	<path class="st3" d="M52.6,104.5l2.7,40.4c0,0.7-1.3,1.9-4.3,3.1c-3.9,1.3-8.1,2.1-12.2,2.3c-1.3,0.1-2.6,0.1-3.9,0.1
		c-8.5,0-13.1-1.9-13.2-3.3L19,106.7L52.6,104.5 M53.5,103.4l-35.6,2.4l2.8,41.4c0.2,2.5,6.2,4.2,14.2,4.2c1.3,0,2.6,0,4-0.1
		c9.8-0.7,17.7-3.6,17.5-6.4L53.5,103.4L53.5,103.4z"/>
	
		<ellipse transform="matrix(0.9977 -6.715041e-02 6.715041e-02 0.9977 -6.943 2.6333)" class="st3" cx="35.7" cy="104.6" rx="17.8" ry="5.3"/>
	<path class="st3" d="M39.3,100.2L39.3,100.2c8.5,0,13.1,1.9,13.2,3.3s-5.5,4.7-16.5,5.4c-1.3,0.1-2.7,0.1-3.9,0.1
		c-8.5,0-13.1-1.9-13.2-3.3c0-0.7,1.3-1.9,4.3-3.1c3.9-1.3,8.1-2.1,12.2-2.3C36.7,100.2,38,100.2,39.3,100.2 M39.3,99.2
		c-1.3,0-2.6,0.1-4,0.1c-9.8,0.7-17.7,3.6-17.5,6.5C18,108.3,24,110,32,110c1.3,0,2.6,0,4-0.1c9.8-0.7,17.7-3.6,17.5-6.4
		C53.3,100.9,47.2,99.2,39.3,99.2L39.3,99.2z"/>
	<path class="st6" d="M54.2,113.4l1.5,22.2c0.2,2.9-7.6,5.8-17.5,6.5s-18-1.2-18.2-4.1l-1.5-22.2c0.2,2.9,8.3,4.7,18.2,4.1
		S54.3,116.3,54.2,113.4z"/>
	<path class="st3" d="M53.4,116.4l1.3,19.2c0,0.7-1.3,1.9-4.3,3.1c-3.9,1.3-8.1,2.1-12.2,2.3c-1.3,0.1-2.6,0.1-3.9,0.1
		c-8.5,0-13.1-1.9-13.2-3.3l-1.3-19.2c2.9,1.7,8.2,2.3,13,2.3c1.3,0,2.7,0,4.1-0.1C43.5,120.4,50.3,118.8,53.4,116.4 M54.2,113.4
		c0.2,2.9-7.6,5.8-17.4,6.5c-1.4,0.1-2.7,0.1-4,0.1c-8,0-14-1.7-14.2-4.2l1.4,22.1c0.2,2.5,6.2,4.2,14.2,4.2c1.3,0,2.6,0,4-0.1
		c9.8-0.7,17.7-3.6,17.5-6.5L54.2,113.4L54.2,113.4z"/>
	<path class="st1" d="M43.9,126.8l-3.6,0.2l-0.2-3.6c0-0.7-0.7-1.2-1.4-1.2l-2.5,0.2c-0.7,0-1.2,0.6-1.2,1.3l0,0l0.2,3.6l-3.6,0.2
		c-0.7,0-1.2,0.6-1.2,1.3l0,0l0.2,2.5c0,0.7,0.6,1.2,1.3,1.2l0,0l3.6-0.2l0.2,3.6c0,0.7,0.6,1.2,1.3,1.2l0,0l2.5-0.2
		c0.7,0,1.2-0.7,1.2-1.4l-0.2-3.6l3.6-0.2c0.7,0,1.2-0.7,1.2-1.4l-0.2-2.5C45.2,127.2,44.6,126.7,43.9,126.8z"/>
	<path class="st0" d="M45.8,136.1c-0.3,0-0.5-0.2-0.5-0.5s0.2-0.5,0.5-0.5c2.3-0.1,4.5-0.8,6.4-2.1c0.2-0.2,0.5-0.1,0.7,0.1
		c0.2,0.2,0.1,0.5-0.1,0.7l0,0C50.7,135.2,48.3,135.9,45.8,136.1L45.8,136.1z"/>
	<path class="st3" d="M142.5,85.9c-2.1,0-3.9-1.7-4-3.8l-0.2-3.4c-0.1-2.2,1.5-4.1,3.7-4.3l7.6-0.5c2.2-0.1,4.2,1.5,4.3,3.8l0.2,3.4
		c0.1,2.2-1.5,4.2-3.8,4.3l-7.6,0.5H142.5z M149.9,74.9h-0.2l-7.6,0.5c-1.7,0.1-3,1.6-2.9,3.2l0.2,3.4c0.1,1.7,1.6,3,3.3,2.8
		l7.6-0.5l0,0c1.7-0.1,3-1.6,2.9-3.3l0,0l-0.2-3.4C152.8,76.1,151.5,74.9,149.9,74.9z"/>
	<path class="st3" d="M159.6,84.8c-2.1,0-3.9-1.7-4-3.8l-0.2-3.4c-0.1-2.2,1.5-4.2,3.8-4.3l7.6-0.5c2.2-0.1,4.1,1.6,4.3,3.8l0.2,3.4
		c0.1,2.2-1.5,4.2-3.8,4.3l-7.6,0.5H159.6z M167,73.7h-0.2l-7.6,0.5c-1.7,0.1-3,1.6-2.8,3.2l0,0l0.2,3.4c0.1,1.7,1.5,2.9,3.1,2.8
		h0.1l7.6-0.5l0,0c1.7-0.1,2.9-1.6,2.8-3.2l-0.2-3.5C169.9,74.9,168.6,73.7,167,73.7z"/>
	<path class="st3" d="M153.5,79.4c-0.3,0-0.5-0.2-0.5-0.5s0.2-0.5,0.5-0.5l2-0.1c0.3,0,0.5,0.2,0.5,0.5s-0.2,0.5-0.5,0.5L153.5,79.4
		L153.5,79.4z"/>
	<path class="st6" d="M17.1,88.6c-1.1,1-1.2,2.7-0.2,3.8l0,0l8.8,9.9c1,1.1,2.7,1.1,3.8,0.1c1-1,1.1-2.5,0.2-3.6l-8.8-9.9
		C19.8,87.7,18.2,87.6,17.1,88.6z"/>
	<path class="st3" d="M18.8,87.9c0.8,0,1.5,0.3,2,0.9l8.8,9.9c0.9,1.1,0.8,2.8-0.4,3.8c-1.1,0.9-2.6,0.8-3.6-0.2l-8.8-9.9
		c-1-1.1-0.9-2.8,0.2-3.8C17.5,88.2,18.2,87.9,18.8,87.9 M18.8,86.9c-0.9,0-1.8,0.3-2.4,0.9c-0.7,0.6-1.2,1.6-1.2,2.5
		c-0.1,1,0.3,1.9,0.9,2.6l8.8,9.9c1.3,1.5,3.7,1.7,5.2,0.3l0,0c1.5-1.3,1.7-3.6,0.3-5.2l0,0l-8.7-9.8C20.9,87.4,19.9,86.9,18.8,86.9
		L18.8,86.9z"/>
	<path class="st1" d="M25.2,93.7c0,0,0,1-1.5,2.3c-0.7,0.7-1.6,1.2-2.5,1.3l4.4,4.9c1,1.1,2.7,1.1,3.8,0.1c1-1,1.1-2.5,0.2-3.6
		L25.2,93.7z"/>
	<path class="st6" d="M45.6,63.8c-1.4-0.6-2.9,0.1-3.5,1.4l0,0L37,77.4c-0.6,1.4,0.1,2.9,1.4,3.5l0,0c0.7,0.3,1.4,0.3,2.1,0
		s1.2-0.8,1.5-1.4l5.2-12.1C47.7,66,47,64.4,45.6,63.8z"/>
	<path class="st3" d="M44.6,63.6c0.3,0,0.7,0.1,1,0.2c1.4,0.6,2,2.2,1.4,3.5l-5.1,12.1c-0.3,0.7-0.8,1.2-1.5,1.4
		c-0.3,0.1-0.7,0.2-1,0.2c-0.4,0-0.7-0.1-1.1-0.2c-1.4-0.6-2-2.2-1.4-3.5l5.2-12.1C42.6,64.2,43.6,63.6,44.6,63.6 M44.6,62.6
		c-1.5,0-2.8,0.9-3.4,2.2L36,77c-0.8,1.9,0.1,4,2,4.8l0,0c0.5,0.2,0.9,0.3,1.4,0.3s0.9-0.1,1.4-0.3c0.9-0.4,1.6-1.1,2-2L48,67.7
		c0.8-1.9-0.1-4-2-4.8l0,0C45.5,62.7,45.1,62.6,44.6,62.6L44.6,62.6z"/>
	<path class="st1" d="M44.5,73.4c-0.9,0.2-1.9,0.1-2.7-0.4c-0.9-0.3-1.7-0.9-2.2-1.7l-2.5,6.1c-0.6,1.4,0.1,2.9,1.4,3.5l0,0
		c0.7,0.3,1.4,0.3,2.1,0s1.2-0.8,1.5-1.4L44.5,73.4z"/>
	<path class="st6" d="M36.3,60.9c-1.2,0.8-2.9,0.5-3.7-0.7l0,0l-7.4-11c-0.8-1.3-0.4-2.9,0.8-3.7c0.6-0.4,1.3-0.5,1.9-0.4
		c0.7,0.1,1.3,0.5,1.7,1.1l7.4,11C37.9,58.4,37.6,60,36.3,60.9L36.3,60.9z"/>
	<path class="st3" d="M27.5,45c0.2,0,0.3,0,0.5,0c0.7,0.1,1.3,0.6,1.7,1.2l7.4,11c0.8,1.2,0.5,2.9-0.7,3.7c-0.4,0.3-1,0.4-1.5,0.5
		c-0.2,0-0.3,0-0.5,0c-0.7-0.1-1.3-0.5-1.7-1.1l-7.4-11c-0.8-1.2-0.5-2.9,0.8-3.7C26.4,45.2,26.9,45,27.5,45 M27.5,44L27.5,44
		c-2,0-3.7,1.7-3.6,3.7c0,0.7,0.2,1.4,0.6,2l7.3,11c0.5,0.8,1.4,1.4,2.3,1.6c0.2,0,0.5,0.1,0.7,0.1c2,0,3.7-1.7,3.7-3.7
		c0-0.7-0.2-1.4-0.6-2l-7.4-11c-0.5-0.8-1.4-1.4-2.3-1.6C28,44,27.8,44,27.5,44L27.5,44z"/>
	<path class="st1" d="M33.4,51.7c-0.9-0.1-1.9,0.2-2.6,0.9c-0.9,0.5-1.5,1.2-1.9,2.1l-3.7-5.5c-0.8-1.2-0.5-2.9,0.7-3.7
		c0.6-0.4,1.3-0.5,2-0.4s1.3,0.5,1.7,1.1L33.4,51.7z"/>
	<path class="st6" d="M15.9,70.8l-0.7,2.4c-0.4,1.3,2.2,3.2,5.7,4.2s6.7,0.8,7-0.6l0.7-2.4L15.9,70.8z"/>
	<path class="st3" d="M15.9,70.8l12.8,3.6L28,76.8c-0.2,0.8-1.4,1.2-3,1.2c-1.4,0-2.7-0.2-4-0.6c-3.5-1-6.1-2.9-5.7-4.2L15.9,70.8
		 M16,69.8c-0.5,0-0.9,0.3-1,0.7l-0.7,2.4c-0.2,0.8-0.1,1.9,1.8,3.3c1.4,1,3,1.7,4.6,2.1c1.4,0.4,2.8,0.6,4.3,0.7c3,0,3.8-1.2,4-1.9
		l0.7-2.4c0.1-0.3,0-0.5-0.1-0.8c-0.1-0.2-0.3-0.4-0.6-0.5l-12.8-3.6C16.1,69.9,16,69.9,16,69.8L16,69.8z"/>
	<ellipse transform="matrix(0.2733 -0.9619 0.9619 0.2733 -53.7171 74.1451)" class="st6" cx="22.2" cy="72.6" rx="2.5" ry="6.6"/>
	<path class="st3" d="M18.9,69.7c1.4,0,2.7,0.2,4,0.6c3.5,1,6.1,2.9,5.7,4.2c-0.2,0.8-1.4,1.2-3,1.2c-1.4,0-2.7-0.2-4-0.6
		c-3.5-1-6.1-2.9-5.7-4.2C16.2,70.1,17.3,69.7,18.9,69.7 M18.9,68.7L18.9,68.7c-3,0-3.8,1.2-4,1.9s-0.1,1.9,1.8,3.3
		c1.4,1,3,1.7,4.6,2.1c1.4,0.4,2.8,0.6,4.3,0.7c3,0,3.8-1.2,4-1.9s0.1-1.9-1.8-3.3c-1.4-1-3-1.7-4.6-2.1
		C21.8,68.9,20.4,68.7,18.9,68.7L18.9,68.7z"/>
	<path class="st3" d="M17.2,74.1c-0.2,0-0.4-0.2-0.5-0.4c-0.1-0.3,0.1-0.5,0.4-0.6l0,0l8.9-2.2c0.3-0.1,0.5,0.1,0.6,0.4l0,0
		c0.1,0.3-0.1,0.5-0.4,0.6l0,0L17.2,74.1L17.2,74.1z"/>
	<path class="st6" d="M50.6,77l0.6-2.4c0.3-1.3,3.5-1.7,7-0.8c3.5,0.9,6.2,2.6,5.9,4l-0.6,2.4L50.6,77z"/>
	<path class="st3" d="M54.6,73.3c1.2,0,2.4,0.2,3.6,0.5c3.6,0.9,6.2,2.6,5.9,4l-0.6,2.4L50.6,77l0.6-2.4
		C51.4,73.8,52.7,73.3,54.6,73.3 M54.6,72.3L54.6,72.3c-2.5,0-4.1,0.7-4.4,2.1l-0.6,2.4c-0.1,0.5,0.2,1.1,0.7,1.2l12.9,3.1h0.2
		c0.2,0,0.4-0.1,0.5-0.2c0.2-0.1,0.4-0.4,0.4-0.6l0.6-2.4c0.6-2.3-3-4.3-6.6-5.2C57.2,72.4,55.9,72.3,54.6,72.3L54.6,72.3z"/>
	<ellipse transform="matrix(0.2353 -0.9719 0.9719 0.2353 -32.7278 115.4832)" class="st3" cx="57" cy="78.5" rx="2.5" ry="6.6"/>
	<path class="st3" d="M54,75.7c1.2,0,2.4,0.2,3.6,0.5c3.6,0.9,6.2,2.6,5.9,4c-0.2,0.8-1.6,1.3-3.4,1.3c-1.2,0-2.4-0.2-3.6-0.5
		c-3.6-0.9-6.2-2.6-5.9-4C50.8,76.1,52.1,75.7,54,75.7 M54,74.7c-2.5,0-4.1,0.7-4.4,2.1c-0.2,0.8,0,1.9,1.9,3.2c1.4,0.9,3,1.6,4.7,2
		c1.3,0.3,2.5,0.5,3.8,0.5c2.5,0,4.1-0.7,4.4-2.1c0.2-0.8,0-1.9-1.9-3.2c-1.4-0.9-3-1.6-4.7-2C56.6,74.8,55.3,74.7,54,74.7z"/>
	<path class="st3" d="M59.7,82.1c-0.1,0-0.3,0-0.3-0.1l-6.7-6.3c-0.2-0.2-0.2-0.5,0-0.7l0,0c0.2-0.2,0.5-0.2,0.7,0l0,0l6.7,6.3
		c0.2,0.2,0.2,0.5,0,0.7C60,82,59.9,82.1,59.7,82.1L59.7,82.1z"/>
	<path class="st6" d="M35.7,103.4l1.1,2.2c0.6,1.2,3.8,0.8,7-0.8s5.4-4,4.8-5.2l-1.1-2.2L35.7,103.4z"/>
	<path class="st3" d="M47.5,97.3l1.1,2.2c0.6,1.2-1.5,3.6-4.8,5.2c-1.6,0.9-3.4,1.4-5.2,1.6c-0.9,0-1.5-0.2-1.8-0.7l-1.1-2.2
		L47.5,97.3 M47.5,96.3c-0.2,0-0.3,0-0.5,0.1l-11.8,6.1c-0.2,0.1-0.4,0.3-0.5,0.6c-0.1,0.3-0.1,0.5,0.1,0.8l1.1,2.2
		c0.6,0.9,1.6,1.4,2.7,1.3c2-0.1,3.9-0.7,5.7-1.7c1.5-0.8,2.9-1.8,4.1-3c1.5-1.7,1.4-2.9,1.1-3.6l-1.1-2.2c-0.1-0.2-0.3-0.4-0.6-0.5
		C47.7,96.4,47.6,96.4,47.5,96.3L47.5,96.3z"/>
	<ellipse transform="matrix(0.8892 -0.4576 0.4576 0.8892 -41.3343 30.1704)" class="st6" cx="41.6" cy="100.4" rx="6.6" ry="2.5"/>
	<path class="st3" d="M45.7,96.6c0.9,0,1.5,0.2,1.8,0.7c0.6,1.2-1.5,3.6-4.8,5.2c-1.6,0.9-3.4,1.4-5.2,1.6c-0.9,0-1.5-0.2-1.8-0.7
		c-0.6-1.2,1.5-3.6,4.8-5.2C42.1,97.3,43.9,96.7,45.7,96.6 M45.7,95.6L45.7,95.6c-2,0.1-3.9,0.7-5.7,1.7c-3.3,1.7-6.3,4.5-5.2,6.6
		c0.3,0.6,1,1.2,2.7,1.2c2-0.1,3.9-0.7,5.7-1.7c3.3-1.7,6.3-4.4,5.2-6.6C48.1,96.3,47.4,95.6,45.7,95.6z"/>
	<path class="st3" d="M38.5,105c-0.1,0-0.2,0-0.3-0.1c-0.2-0.2-0.3-0.5-0.1-0.7l5-7.7c0.1-0.2,0.5-0.3,0.7-0.2
		c0.2,0.2,0.3,0.5,0.2,0.7l-5,7.7C38.8,104.9,38.7,105,38.5,105z"/>
	<path class="st6" d="M42.1,38l-3.2,8.7C38,49.3,44.3,54,53.1,57.2s16.6,3.7,17.6,1.1l3.2-8.7L42.1,38z"/>
	<path class="st3" d="M42.7,39.2l29.9,10.9l-2.8,7.7c-0.2,0.5-1.2,1-3.6,1c-4.3-0.2-8.6-1.1-12.7-2.7c-3.7-1.3-7.2-3.1-10.5-5.3
		c-2.8-2.1-3.3-3.4-3.1-3.9L42.7,39.2 M42.1,38l-3.2,8.7C38,49.3,44.3,54,53.1,57.2c4.2,1.6,8.5,2.6,13,2.8c2.5,0,4.2-0.5,4.6-1.7
		l3.2-8.7L42.1,38L42.1,38z"/>
	<ellipse transform="matrix(0.344 -0.939 0.939 0.344 -3.1684 83.1574)" class="st6" cx="57.9" cy="43.8" rx="5" ry="16.9"/>
	<path class="st3" d="M46.6,37.3c4.3,0.2,8.6,1.1,12.7,2.7c3.7,1.3,7.2,3.1,10.5,5.3c2.8,2.1,3.3,3.4,3.1,3.9s-1.2,1-3.6,1
		c-4.3-0.2-8.6-1.1-12.7-2.7c-3.7-1.3-7.2-3.1-10.5-5.3c-2.8-2.1-3.3-3.4-3.1-3.9S44.2,37.3,46.6,37.3 M46.6,36.3
		c-2.5,0-4.2,0.5-4.6,1.7c-1,2.6,5.4,7.3,14.2,10.5c4.2,1.6,8.5,2.6,13,2.8c2.5,0,4.2-0.5,4.6-1.7c0.9-2.6-5.4-7.3-14.2-10.5
		C55.5,37.4,51.1,36.5,46.6,36.3z"/>
	<path class="st0" d="M42.4,49.7c-0.1,0-0.1,0-0.2,0c-0.3-0.1-0.4-0.4-0.3-0.6l2-5.8c0.1-0.3,0.4-0.4,0.6-0.3
		c0.3,0.1,0.4,0.4,0.3,0.6l0,0l-2,5.8C42.8,49.6,42.6,49.7,42.4,49.7z"/>
	<path class="st0" d="M45.5,52.1c-0.1,0-0.1,0-0.2,0C45,52,44.9,51.7,45,51.5l0,0l2.2-5.8c0.1-0.3,0.4-0.4,0.6-0.3l0,0
		c0.3,0.1,0.4,0.4,0.3,0.6l0,0l-2.2,5.8C45.8,52,45.7,52.1,45.5,52.1z"/>
	<path class="st0" d="M49.3,54h-0.2c-0.3-0.1-0.4-0.4-0.3-0.6l0,0l2.2-5.8c0.1-0.3,0.4-0.4,0.6-0.3s0.4,0.4,0.3,0.6c0,0,0,0,0,0.1
		l-2.2,5.8C49.7,53.9,49.5,54,49.3,54z"/>
	<path class="st0" d="M53.2,55.5c-0.1,0-0.1,0-0.2,0c-0.3-0.1-0.4-0.4-0.3-0.7L55,49c0.1-0.3,0.4-0.4,0.6-0.3
		c0.3,0.1,0.4,0.4,0.3,0.6l0,0l-2.2,5.8C53.6,55.4,53.4,55.5,53.2,55.5z"/>
	<path class="st0" d="M57.5,57c-0.1,0-0.1,0-0.2,0c-0.3-0.1-0.4-0.4-0.3-0.6l0,0l2.2-5.8c0.1-0.3,0.4-0.4,0.6-0.3
		c0.3,0.1,0.4,0.4,0.3,0.6l-2.2,5.8C57.9,56.9,57.7,57,57.5,57z"/>
	<path class="st0" d="M61.6,58.1c-0.1,0-0.1,0-0.2,0c-0.3-0.1-0.4-0.4-0.3-0.6l0,0l2.2-5.8c0.1-0.3,0.4-0.4,0.6-0.3
		c0.3,0.1,0.4,0.4,0.3,0.6l0,0L62,57.8C62,58,61.8,58.1,61.6,58.1z"/>
	<path class="st0" d="M66.1,58.5c-0.1,0-0.1,0-0.2,0c-0.3-0.1-0.4-0.4-0.3-0.7l2.2-5.8c0.1-0.3,0.4-0.4,0.6-0.3l0,0
		c0.3,0.1,0.4,0.4,0.3,0.7l-2.2,5.8C66.4,58.4,66.3,58.5,66.1,58.5z"/>
	<path class="st3" d="M100.4,175.5c-0.1,0-0.2,0-0.2-0.1L67.1,156c-0.2-0.1-0.3-0.4-0.2-0.7l0,0c0.1-0.2,0.4-0.3,0.7-0.2l33.1,19.4
		c0.2,0.1,0.3,0.4,0.2,0.7C100.7,175.4,100.6,175.5,100.4,175.5z"/>
	
		<ellipse transform="matrix(4.292003e-02 -0.9991 0.9991 4.292003e-02 79.8952 240.4608)" class="st3" cx="165.5" cy="78.5" rx="1.8" ry="1.3"/>
	<ellipse transform="matrix(0.9945 -0.105 0.105 0.9945 -7.4907 16.1142)" class="st3" cx="149.3" cy="79.2" rx="1.3" ry="1.8"/>
	<path class="st3" d="M155.1,95.2c-3-0.1-5.9-0.8-8.6-2c-0.2-0.1-0.3-0.4-0.2-0.7c0.1-0.2,0.4-0.4,0.7-0.2l0,0c0.1,0,9,4.2,14.4-0.1
		c0.2-0.2,0.5-0.1,0.7,0.1s0.1,0.5-0.1,0.7C160,94.5,157.6,95.2,155.1,95.2z"/>
	<path class="st2" d="M154.8,80.2c0,0-3.7,6.3-2.6,7.8s4.7,1.1,4.7,1.1"/>
	<path class="st3" d="M155.6,89.7c-1.3,0-3.1-0.2-3.9-1.3c-1.2-1.7,1.7-6.8,2.6-8.3c0.1-0.2,0.4-0.3,0.7-0.2
		c0.2,0.1,0.3,0.4,0.2,0.7l0,0c-1.7,2.9-3.2,6.5-2.7,7.3c0.7,1,3.3,1,4.2,0.9c0.3,0,0.5,0.2,0.6,0.4c0,0.3-0.2,0.5-0.4,0.6l0,0
		C156.5,89.7,156.1,89.7,155.6,89.7z"/>
	<path class="st3" d="M180.1,84.7c-0.1,0-0.1,0-0.2,0l-9.4-4.3c-0.2-0.1-0.4-0.4-0.2-0.6l0,0c0.1-0.2,0.4-0.4,0.6-0.3l0,0l9.4,4.3
		c0.2,0.1,0.4,0.4,0.3,0.6l0,0C180.5,84.6,180.3,84.7,180.1,84.7z"/>
	<path class="st2" d="M173.3,84.9c0.5-1.3,1.4-2.5,2.6-3.3c1.7-1.2,3.9-1.8,6-1.5c2,0.4,3.2,2.6,3.4,4.6c0.1,1.8-0.4,3.6-1.5,5.1
		c-2.5,3.4-6.8,4.9-10.6,2.7"/>
	<path class="st3" d="M176.9,93.9c-1.4,0-2.8-0.4-4-1.1c-0.2-0.1-0.3-0.5-0.2-0.7s0.4-0.3,0.6-0.2c3.4,1.9,7.5,0.8,10-2.6
		c1-1.4,1.5-3,1.4-4.7c-0.1-1.8-1.2-3.8-3-4.1c-2-0.3-4.1,0.2-5.7,1.4c-1.1,0.7-1.9,1.8-2.4,3c-0.1,0.3-0.4,0.4-0.6,0.3
		c-0.3-0.1-0.4-0.4-0.3-0.6c0.5-1.4,1.5-2.7,2.7-3.6c1.8-1.3,4.1-1.9,6.4-1.6c2.3,0.4,3.6,2.9,3.8,5c0.1,2-0.4,3.9-1.6,5.5
		C182.5,92.4,179.8,93.9,176.9,93.9z"/>
	<path class="st5" d="M223.4,149.3c0,0,29.8,51.6,22.5,59.2s-52.6,10.4-52.6,10.4l-7.9-24.7l25.7-2.4l-15.5-35.1L223.4,149.3z"/>
	<path class="st3" d="M185.3,194.7c-0.3,0-0.5-0.2-0.5-0.5s0.2-0.5,0.5-0.5l24.9-2.4L188.7,149c-0.1-0.2,0-0.5,0.2-0.7
		c0.2-0.1,0.5,0,0.7,0.2l21.8,43c0.1,0.1,0.1,0.3,0,0.5c-0.1,0.1-0.2,0.2-0.4,0.2L185.3,194.7L185.3,194.7z"/>
	<path class="st3" d="M193.2,219.4c-0.3,0-0.5-0.2-0.5-0.5s0.2-0.5,0.5-0.5s33.1-1.6,42.7-5.9c0.2-0.1,0.5,0,0.7,0.2s0,0.5-0.2,0.7
		c0,0,0,0-0.1,0C226.6,217.8,194.6,219.3,193.2,219.4L193.2,219.4z"/>
</g>
</svg>
