<?xml version="1.0" encoding="utf-8"?>
<!-- Generator: Adobe Illustrator 21.0.2, SVG Export Plug-In . SVG Version: 6.00 Build 0)  -->
<svg version="1.1" id="Layer_1" xmlns="http://www.w3.org/2000/svg" xmlns:xlink="http://www.w3.org/1999/xlink" x="0px" y="0px"
	 viewBox="0 0 64 64" style="enable-background:new 0 0 64 64;" xml:space="preserve">
<style type="text/css">
	.st0{fill:none;}
	.st1{fill:#F5F5F5;}
	.st2{fill:#5E3616;}
	.st3{fill:#F2C4B2;}
	.st4{fill:#F2B59D;}
	.st5{fill:#34C1AD;}
	.st6{fill:#21ABAB;}
	.st7{fill:#ED9776;}
	.st8{fill:#E3E3E3;}
	.st9{fill:#F2A283;}
	.st10{fill:#3B220E;}
	.st11{fill:#D9896D;}
	.st12{fill:#D4D4D4;}
	.st13{fill:#BFBFBF;}
	.st14{fill:none;stroke:#FFAAAA;}
	.st15{fill:none;stroke:#FFFFFF;}
</style>
<title></title>
<g>
	<title>background</title>
	<rect id="canvas_background" x="-1" y="-1" class="st0" width="582" height="402"/>
</g>
<g>
	<title>Layer 1</title>
	<path id="svg_1" class="st1" d="M26,41.6c-1.6-0.8-3.1-2-4.2-3.5L22,38v-8c0,0,3-1,10-1s10,1,10,1v8l0.2,0.2
		c-1.1,1.4-2.6,2.6-4.2,3.5C34.2,43.5,29.8,43.5,26,41.6z"/>
	<ellipse id="svg_2" class="st2" cx="25" cy="25" rx="2" ry="3"/>
	<ellipse id="svg_3" class="st2" cx="39" cy="25" rx="2" ry="3"/>
	<path id="svg_4" class="st2" d="M36,12c-0.3,0.4-5.2,7-12,7v-6l-6,5v5h-2c-1.1,0-2,0.9-2,2v1c0,1.1,0.4,2.1,1,3c-0.3-0.1-5-2.1-5-7
		c0.1-3.1,1.6-6,4-8c-3.4,0.1-6.6-1.9-8-5c0,0,8-1,12-3s6-5,14-5c4-0.1,7.7,1.8,10,5c0.9-1.4,2.4-2.1,4-2c3,0,8,2,8,8v8.6
		c0,0.9-0.3,1.8-0.9,2.5L50,27l-0.1,0c0.1-0.3,0.1-0.7,0.1-1v-1c0-1.1-0.9-2-2-2h-2v-4c-5,0-5-8-5-8s-3,5-6,5L36,12z"/>
	<path id="svg_5" class="st3" d="M48,23h-2v-4c-5,0-5-8-5-8s-3,5-6,5l1-4c-0.3,0.4-5.2,7-12,7v-6l-6,5v5h-2c-1.1,0-2,0.9-2,2v1
		c0,1.1,0.4,2.1,1,3l0,0c1,1.4,2.4,2.5,4,3c0.4,2.2,1.4,4.4,2.8,6.2L22,38v-8c0,0,3-1,10-1s10,1,10,1v8l0.2,0.2
		c1.4-1.8,2.4-3.9,2.8-6.2c2.4-0.7,4.2-2.6,4.9-5c0.1-0.3,0.1-0.7,0.1-1v-1C50,23.9,49.1,23,48,23z M25,28c-1.1,0-2-1.3-2-3
		s0.9-3,2-3s2,1.3,2,3S26.1,28,25,28z M39,28c-1.1,0-2-1.3-2-3s0.9-3,2-3s2,1.3,2,3S40.1,28,39,28z"/>
	<path id="svg_6" class="st4" d="M38,46.4c0,0.7,0.3,1.3,0.9,1.7C38.5,48.6,36.4,51,32,51s-6.5-2.4-6.9-2.9c0.6-0.4,0.9-1,0.9-1.7
		v-4.8c3.8,1.8,8.2,1.8,12,0V46.4z"/>
	<path id="svg_7" class="st5" d="M59,57.7V62H5v-4.3c0-2.8,1.9-5.2,4.6-5.8l14.9-3.5c0.2-0.1,0.4-0.1,0.6-0.3
		c0.4,0.5,2.5,2.9,6.9,2.9s6.5-2.4,6.9-2.9c0.2,0.1,0.4,0.2,0.6,0.3l14.9,3.5C57.1,52.5,59,55,59,57.7z"/>
	<path id="svg_8" class="st6" d="M15,59.7c0-1,0.7-1.9,1.6-2.2l27.1-8.1l-4.2-1c-0.2-0.1-0.4-0.1-0.6-0.3C38.5,48.6,36.5,51,32,51
		s-6.5-2.4-6.9-2.9c-0.2,0.1-0.4,0.2-0.6,0.3L9.6,51.9C6.9,52.5,5,55,5,57.7V62h12.3C16,62,15,61,15,59.7z"/>
	<path id="svg_9" class="st7" d="M38,41.6c-3.8,1.8-8.2,1.8-12,0v4.8c0,0.7-0.3,1.3-0.9,1.7c0.6,0.8,1.4,1.4,2.3,1.8L38,43.3
		C38,43.3,38,41.6,38,41.6z"/>
	<path id="svg_10" class="st8" d="M39.5,48.4c-0.6-0.1-1-0.5-1.3-1c0,0,0,0-0.1,0.1s0,0-0.1,0.1c-0.2,0.3-2,2.5-6.1,2.5
		s-5.9-2.2-6.1-2.5c0,0,0,0-0.1-0.1s0,0-0.1-0.1c-0.3,0.5-0.7,0.9-1.3,1l-0.4,0.1c0.1,0.1,0.1,0.2,0.2,0.3c0.5,0.6,2.8,3.2,7.7,3.2
		s7.2-2.6,7.7-3.2c0.1-0.1,0.2-0.2,0.2-0.3C39.9,48.5,39.5,48.4,39.5,48.4z"/>
	<path id="svg_11" class="st9" d="M18,25h-1c-0.6,0-1,0.4-1,1v1c0,1.1,0.9,3,2,3l0,0V25z"/>
	<path id="svg_12" class="st9" d="M46,25h1c0.6,0,1,0.4,1,1v1c0,1.1-0.9,3-2,3l0,0V25z"/>
	<path id="svg_13" class="st10" d="M14,14c-2.4,2-3.9,4.9-4,8c0,4.8,4.7,6.9,5,7c-0.6-0.9-1-1.9-1-3v-1c0-1.1,0.9-2,2-2h2v-5l-6,2
		C11.9,17.8,12.6,15.7,14,14z"/>
	<path id="svg_14" class="st10" d="M46,19v4h2c1.1,0,2,0.9,2,2v-4L46,19z"/>
	<polygon id="svg_15" class="st11" points="24,13 18,18 18,19 18,20 24,15 	"/>
	<path id="svg_16" class="st11" d="M41,13c0,0,0,8,5,8v-2c-5,0-5-8-5-8s-2.7,4.4-5.5,4.9L35,18C38,18,41,13,41,13z"/>
	<path id="svg_17" class="st11" d="M35.3,14.9L36,12c-0.3,0.4-5.2,7-12,7v2C29.4,21,33.6,16.8,35.3,14.9z"/>
	<path id="svg_18" class="st11" d="M33,29L33,29c0-1.1-0.4-2-1-2s-1,0.9-1,2v0c0.3,0,0.7,0,1,0C32.3,29,32.7,29,33,29z"/>
	<path id="svg_19" class="st12" d="M32,41c-0.7,0-1.4-0.1-2.1-0.2c-2.3-0.5-3.9-2.5-3.9-4.9v-6.6c-1.4,0.1-2.7,0.3-4,0.7v8l-0.2,0.2
		c1.1,1.4,2.6,2.6,4.2,3.5c3.8,1.8,8.2,1.8,12,0c1.6-0.8,3.1-2,4.2-3.5L42,38C42,38,37,41,32,41z"/>
	<path id="svg_20" class="st12" d="M25,34.5c-0.3,0-0.5-0.2-0.5-0.5c0-0.2,0.1-0.4,0.3-0.5c4.7-1.4,9.6-1.4,14.3,0
		c0.3,0.1,0.4,0.4,0.3,0.6c-0.1,0.3-0.4,0.4-0.6,0.3c-4.5-1.3-9.2-1.3-13.7,0C25.1,34.5,25.1,34.5,25,34.5z"/>
	<path id="svg_21" class="st12" d="M25,38.5c-0.3,0-0.5-0.2-0.5-0.5c0-0.2,0.1-0.4,0.3-0.5c4.7-1.4,9.6-1.4,14.3,0
		c0.3,0.1,0.4,0.4,0.3,0.6c-0.1,0.3-0.4,0.4-0.6,0.3c-4.5-1.3-9.2-1.3-13.7,0C25.1,38.5,25.1,38.5,25,38.5z"/>
	<path id="svg_23" class="st5" d="M15,34h-2v-2c0-0.6-0.4-1-1-1s-1,0.4-1,1v2H9c-0.6,0-1,0.4-1,1s0.4,1,1,1h2v2c0,0.6,0.4,1,1,1
		s1-0.4,1-1v-2h2c0.6,0,1-0.4,1-1S15.6,34,15,34z"/>
	<path id="svg_24" class="st13" d="M46.2,22.6c-0.2-0.1-0.5-0.1-0.7,0.2c0,0,0,0,0,0l-3.8,6.7c-3.2-0.7-6.5-1-9.8-0.9
		c-3.3-0.1-6.6,0.2-9.8,0.9l-3.8-6.7c-0.1-0.2-0.4-0.3-0.7-0.2c-0.2,0.1-0.3,0.4-0.2,0.7l3.9,6.9V38c0,0.3,0.2,0.5,0.5,0.5
		c0,0,0,0,0.1,0c-0.1-0.1-0.2-0.2-0.3-0.3L22,38v-8c0,0,3-1,10-1s10,1,10,1v8l0.2,0.2c-0.1,0.1-0.2,0.2-0.3,0.3c0,0,0,0,0.1,0
		c0.3,0,0.5-0.2,0.5-0.5v-7.9l3.9-6.9C46.6,23,46.5,22.7,46.2,22.6C46.2,22.6,46.2,22.6,46.2,22.6z"/>
	<path id="svg_25" class="st10" d="M23.1,21.5C23.1,21.5,23.1,21.5,23.1,21.5c-0.4,0.1-0.6-0.4-0.6-0.7c0-0.1,0-2.2,3-2.2
		s3,2.2,3,2.2c0,0.3-0.1,0.5-0.3,0.7c-0.2,0.1-0.4,0-0.6-0.2c-0.1-0.1-0.1-0.2-0.2-0.3c-0.1-0.1-0.2-0.2-0.3-0.2
		c-0.3-0.2-0.5-0.3-0.8-0.4c-0.8-0.2-1.6,0-2.2,0.5C23.7,21.1,23.4,21.3,23.1,21.5z"/>
	<path id="svg_26" class="st10" d="M40.9,21.5C40.9,21.5,40.9,21.5,40.9,21.5c0.4,0.1,0.6-0.4,0.6-0.7c0-0.1,0-2.2-3-2.2
		s-3,2.2-3,2.2c0,0.3,0.1,0.5,0.3,0.7c0.2,0.1,0.4,0,0.6-0.2c0.1-0.1,0.1-0.2,0.2-0.3c0.1-0.1,0.2-0.2,0.3-0.2
		c0.3-0.2,0.5-0.3,0.8-0.4c0.8-0.2,1.6,0,2.2,0.5C40.3,21.1,40.6,21.3,40.9,21.5z"/>
	<g id="svg_40">
		<line id="svg_31" class="st14" x1="52.2" y1="47.5" x2="48.3" y2="36.8"/>
		<line id="svg_34" class="st14" x1="48.3" y1="37.4" x2="53" y2="35.6"/>
		<line id="svg_35" class="st14" x1="52.6" y1="35.7" x2="55.3" y2="38.8"/>
		<g id="svg_39" transform="rotate(37.98406219482422 55.98783111572268,43.19702529907225) ">
			<line id="svg_36" class="st14" x1="55.5" y1="49.2" x2="59.9" y2="38.4"/>
			<line id="svg_37" class="st14" x1="59.9" y1="39.1" x2="54.5" y2="37.2"/>
			<line id="svg_38" class="st14" x1="55.1" y1="37.3" x2="52.1" y2="40.4"/>
		</g>
	</g>
	<path id="svg_43" class="st14" d="M58.8,41.3L58.8,41.3c0-0.1,0-0.2,0-0.3c-0.1-0.1-0.2-0.2-0.3-0.2c-0.2-0.1-0.3-0.1-0.4-0.1
		c0,0,0,0-0.1,0.1s0,0.2,0,0.3c0.1,0.1,0.1,0.2,0.2,0.2c0.1,0,0.2,0,0.2,0c0.1,0,0.2,0,0.2,0c0.1-0.1,0.2-0.3,0.3-0.3
		c0.1,0,0.1,0,0.2-0.1s0-0.2,0-0.3c-0.1-0.1-0.1-0.2-0.2-0.3c0,0-0.1-0.2-0.1-0.3c-0.1-0.1-0.1-0.2-0.1-0.2c0-0.1-0.1-0.2-0.1-0.2
		c0-0.1,0,0-0.1-0.1s-0.1-0.1-0.1-0.1c0-0.1-0.1-0.1-0.1-0.2l-0.1-0.1c0,0.1,0.1,0.2,0.2,0.4c0.2,0.3,0.2,0.4,0.3,0.5
		s0.1,0.1,0.2,0.2s0.1,0.2,0.1,0.3c0.1,0.3,0.4,0.3,0.4,0.5c0,0.1,0.1,0.1,0.1,0.2c0,0,0.1,0,0.1,0.1c0,0,0,0.1,0.1,0.2
		s0.1,0,0.2,0.1c0,0,0.2,0,0.1,0.1c0,0.1-0.3,0-0.6,0.1C59.2,41.9,59,42,58.9,42s-0.3,0-0.5,0c-0.2-0.1-0.3-0.2-0.3-0.2
		c-0.1-0.1-0.1-0.1-0.2-0.2s-0.1-0.1-0.1-0.2c-0.1-0.1-0.2-0.2-0.2-0.4s0-0.3,0-0.4c0.1-0.1,0.2-0.2,0.3-0.4L58,40
		c0.1-0.1,0.2-0.2,0.2-0.3s0.1-0.1,0.1-0.2c0,0,0-0.1,0.1-0.2c0-0.1,0-0.1,0-0.2l0.1-0.1c0,0,0,0.1,0.1,0.3c0.1,0.3,0.3,0.5,0.4,0.7
		c0.2,0.3,0.4,0.5,0.4,0.6c0,0.1,0,0.1,0,0.2s0,0.1,0,0.2c0,0,0,0.1,0,0.2c-0.1,0.1-0.1,0.1-0.2,0.2c0,0-0.1,0.1-0.2,0.3
		c-0.1,0.1-0.3,0.2-0.3,0.2c-0.1,0.1-0.1,0.2-0.2,0.3s-0.2,0.1-0.4,0.2c-0.1,0.1-0.2,0.3-0.3,0.3c-0.1,0-0.2,0-0.3,0.1
		c-0.1,0.1-0.1,0.2-0.2,0.2c-0.1,0-0.1,0.2-0.2,0.2c-0.1,0-0.3,0-0.3,0.1c0,0.1-0.2,0.2-0.3,0.2c-0.1,0-0.2,0.1-0.2,0.1
		s0.2-0.1,0.3-0.2c0.3-0.2,0.5-0.3,0.9-0.6c0.2-0.1,0.4-0.2,0.5-0.3s0.2-0.2,0.2-0.2c0.1-0.1,0.2-0.1,0.2-0.1
		c0.1-0.1,0.3-0.3,0.3-0.3c0.1-0.1,0.2-0.1,0.3-0.1h0.1c0.1-0.1,0.2-0.1,0.2-0.1c0.1,0,0.1,0,0.2,0s0.1,0,0.1,0c0,0.1,0,0.2,0,0.3
		c-0.1,0.1-0.2,0.2-0.4,0.4c-0.2,0.1-0.3,0.3-0.4,0.3c-0.1,0-0.1,0-0.2,0.1S58.4,43,58.3,43c-0.2,0.1-0.4,0.2-0.5,0.2
		c-0.2,0.1-0.2,0.1-0.4,0.1c-0.2,0.1-0.3,0.1-0.5,0.1c-0.2,0.1-0.3,0.1-0.4,0.1s-0.2,0.1-0.3,0.1s-0.2,0.1-0.2,0.1
		c-0.1,0-0.2,0-0.4,0.1c-0.1,0.1-0.1,0.1-0.2,0.1c-0.1,0.1-0.2,0.2-0.3,0.2c-0.2,0.1-0.2,0.1-0.4,0.2l-0.1,0.1
		c-0.1,0.1-0.2,0.2-0.3,0.2s-0.2,0.2-0.3,0.2c-0.1,0-0.3,0.1-0.6,0.3c-0.1,0.1-0.3,0.3-0.4,0.3c-0.1,0-0.1,0.1-0.1,0.1
		c-0.1,0-0.1,0-0.1,0.1c0,0,0,0,0,0.1V46c-0.1,0.1,0,0.1-0.1,0.2s-0.1,0.1,0,0.1h0.1c0.1,0,0.2,0,0.3-0.1c0.2-0.2,0.5-0.1,0.6-0.2
		s0.1-0.1,0.2-0.2c0,0,0,0,0.1-0.1s0-0.1,0.1-0.2c0,0,0.1,0,0.2-0.1c0.1,0,0.3,0,0.4-0.2c0.1-0.1,0.2-0.1,0.3-0.2
		c0.2-0.1,0.3-0.2,0.5-0.3c0.1-0.1,0.2-0.2,0.3-0.2c0.1-0.1,0.3-0.2,0.4-0.2c0.3-0.1,0.5-0.2,0.5-0.3c0-0.1,0.2-0.2,0.3-0.2
		c0.1-0.1,0.3-0.1,0.4-0.2s0-0.1-0.1-0.1c-0.3,0.1-0.4,0.4-0.7,0.5c-0.2,0.1-0.4,0.3-0.6,0.3c-0.1,0-0.2,0-0.3,0.1
		c0,0-0.1,0-0.4,0.2c-0.1,0.1-0.3,0.3-0.4,0.3c-0.1,0-0.2,0.2-0.4,0.2c-0.1,0-0.3,0.1-0.4,0.1c0,0,0,0-0.1,0s-0.1,0.1-0.3,0.1
		c-0.1,0-0.3,0.1-0.4,0.1s-0.2,0-0.3,0c0,0-0.1,0.1-0.2,0.1s-0.2,0-0.2,0s0,0-0.1,0c0,0,0,0,0-0.1c-0.1-0.1-0.1-0.2-0.1-0.3
		s-0.1-0.1-0.1-0.3L52,44.6v-0.1c-0.1-0.1-0.1-0.2-0.1-0.2c-0.1,0-0.1-0.1-0.1-0.1c-0.1-0.2-0.1-0.2-0.2-0.3v-0.1c0-0.1,0-0.2,0-0.2
		c0-0.1-0.1-0.2-0.1-0.2c0-0.1,0-0.2,0-0.3L51.4,43c0-0.1,0-0.2,0-0.3c0,0,0,0-0.1-0.1s0-0.2-0.1-0.2c0,0,0.1-0.1,0-0.2
		S51,42.1,51,42c0,0-0.1-0.1-0.1-0.2s-0.1-0.1-0.1-0.2s0-0.2-0.1-0.3c0-0.1,0-0.1,0-0.2c0,0,0-0.1,0-0.2c0,0,0-0.1-0.1-0.2
		c0,0,0-0.1,0-0.2c-0.1-0.1-0.1-0.1-0.1-0.2s0-0.1,0-0.2s0-0.2,0-0.2s-0.1-0.1-0.1-0.2c0,0-0.1-0.1-0.1-0.2l-0.1-0.1
		c0-0.1-0.1-0.2-0.1-0.2c0-0.1-0.1-0.2-0.1-0.2c-0.1-0.1-0.1-0.2-0.1-0.2c-0.1-0.1-0.2-0.1-0.2-0.2c-0.1-0.1-0.2-0.2-0.3-0.3
		c-0.1-0.2-0.1-0.2-0.1-0.3v-0.1c0-0.1,0-0.1,0.1-0.2s0.1-0.3,0.2-0.3c0.1,0,0.3-0.1,0.4-0.1c0.2,0,0.4-0.1,0.5-0.1
		c0.1-0.1,0.2-0.1,0.2-0.1c0.1,0,0.2,0,0.3-0.1c0.1,0,0.2,0,0.3,0s0.2-0.1,0.2-0.1s0,0,0.1-0.1s0.2,0.2,0.3,0.3
		c0.2,0.2,0.3,0.3,0.4,0.4c0.2,0.1,0.3,0.2,0.4,0.3s0.2,0.3,0.3,0.3s0.1,0.2,0.2,0.2c0.1,0,0.2,0.1,0.2,0.1c0.1,0.1,0.3,0.1,0.4,0.2
		c0.1,0.1,0.1,0.1,0.1,0.1c0.1,0.1,0.2,0.2,0.3,0.2c0.1,0,0.2,0.1,0.4,0.1c0.1,0,0.3,0.1,0.4,0.1c0.2,0,0.3,0,0.6,0
		c0.2,0,0.5,0,0.6,0s0.2,0,0.3,0s0.2,0,0.3,0s0.2,0,0.4,0c0.1,0,0.1-0.1,0.1-0.1c0.1,0,0.2,0,0.3,0s0.1,0,0.1,0.1l0,0"/>
	<path id="svg_44" class="st14" d="M53.1,38.1c0-0.1,0-0.2,0-0.2c0-0.2,0-0.3,0-0.4c-0.1-0.1-0.1-0.1-0.2-0.2s-0.1-0.1-0.1-0.1
		c0-0.1,0-0.1-0.1-0.2l-0.1-0.1c0,0-0.1,0-0.2-0.1s-0.1-0.1-0.2-0.2h-0.1C52,36.5,52,36.5,52,36.5c0.1,0.1,0.3,0.2,0.4,0.3
		c0.2,0.1,0.6,0.2,0.9,0.4c0.3,0.1,0.4,0.3,0.6,0.5c0.2,0.1,0.3,0.3,0.3,0.4c0.1,0.1,0.1,0.1,0,0.1c-0.3-0.1-0.5-0.5-0.6-0.5
		c-0.1,0-0.2-0.1-0.3-0.2s0-0.1-0.1-0.2s-0.1,0-0.1,0c-0.1-0.1-0.1-0.1-0.2-0.1c-0.2,0.1-0.6,0.3-0.9,0.5c-0.5,0.3-0.7,0.3-1,0.4
		c-0.1,0.1-0.2,0.1-0.3,0.1s-0.2,0-0.4-0.1c-0.1-0.1-0.3-0.1-0.3-0.1c-0.1,0-0.1,0.1-0.1,0.3c0,0.3,0.1,0.4,0.2,0.5s0.2,0.2,0.2,0.3
		c0.1,0.1,0.1,0.2,0.1,0.2c0.1,0.1,0.1,0.2,0.1,0.2c0,0.2,0,0.2,0.1,0.3c0,0,0,0,0.1,0.1s0.1,0.2,0.1,0.3c0.1,0.2,0.2,0.4,0.3,0.6
		s0.1,0.3,0.2,0.4c0.1,0.2,0.3,0.3,0.3,0.5c0,0.1,0.3,0.4,0.3,0.5c0.1,0.2,0,0.4,0.1,0.5s0.1,0.2,0.1,0.3c0.1,0.2,0.1,0.3,0.1,0.4
		c0.1,0.2,0.1,0.3,0.1,0.4s0,0.1,0,0.1c0,0.1,0,0.1,0,0.2c0.1,0.1,0.1,0.1,0.1,0.3c0,0.1,0,0.2,0,0.3c0,0,0.1,0.1,0.1,0.2
		s0,0.1,0,0.3v0.1c0,0.1,0.1,0.1,0,0.2s-0.1,0-0.1,0s-0.1,0-0.2,0c0,0-0.1,0.1-0.2,0s0.2-0.3,0.7-0.6c0.6-0.4,1.1-0.7,1.4-0.9
		c0.3-0.2,0.5-0.4,0.7-0.5c0.2-0.2,0.4-0.3,0.6-0.4c0.2-0.2,0.4-0.3,0.5-0.4c0.2-0.1,0.3-0.3,0.4-0.3c0.2-0.1,0.3-0.2,0.4-0.2
		c0.1,0,0.3-0.2,0.5-0.3c0.3-0.2,0.4-0.3,0.5-0.4c0.1-0.2,0.2-0.3,0.2-0.4c0-0.1,0-0.2,0-0.4c0-0.1,0-0.2,0-0.2
		c0.1-0.1,0.1,0,0.2,0.2c0.1,0.3,0.1,0.6,0.2,0.8c0.1,0.1,0.1,0.2,0.2,0.2s0.2,0,0.4,0s0.3,0.1,0.3,0.1c0.1,0,0.1,0,0.2,0
		c0,0-0.1,0,0,0.1s0.1,0,0.1,0c0.1,0,0.2,0,0.2,0C60,42,60,42,60,42l0.1-0.1v-0.1v-0.1c0-0.1,0-0.1,0-0.2S60,41.2,60,41.2
		c-0.1-0.1-0.2-0.1-0.2-0.2c0-0.1-0.1-0.1-0.2-0.2s-0.1-0.2-0.1-0.2c-0.1-0.1-0.1-0.1-0.2-0.2s-0.3-0.3-0.4-0.3
		c-0.1,0-0.2-0.2-0.3-0.2c-0.1,0-0.2-0.1-0.4-0.2c0,0-0.1,0-0.2,0s-0.2-0.1-0.4-0.1s-0.4,0-0.5-0.1h-0.1c-0.1,0-0.2,0.2-0.3,0.4
		c-0.1,0.3-0.3,0.5-0.3,0.7c0,0.1,0,0.2,0,0.4s0,0.2,0,0.3c0,0,0.1,0.1,0.4,0c0.4-0.2,0.7-0.4,1-0.6c0.2-0.2,0.2-0.4,0.3-0.6
		c0,0,0-0.1,0,0c0,0.3-0.1,0.7-0.2,1c-0.2,0.4-0.3,0.9-0.4,0.8c-0.1,0,0-0.3,0-0.6c0-0.2,0-0.4,0-0.5s-0.1,0.1-0.3,0.4
		c-0.1,0.3-0.5,0.6-0.5,0.8c0,0.1,0,0,0-0.3s0-0.6,0-0.9c0-0.4,0.1-0.6,0.1-0.7c0,0-0.1,0.2-0.3,0.5c-0.4,0.7-0.8,1.3-1.1,1.8
		c-0.3,0.4-0.4,0.8-0.5,0.8s-0.1,0.1-0.2,0.1c-0.3,0.1-0.4,0.2-0.5,0.3s-0.3,0.2-0.4,0.3s-0.2,0.1-0.3,0.2s-0.2,0.2-0.3,0.3
		c-0.1,0.2-0.3,0.2-0.2,0.3s0.4-0.6,0.8-1.1s0.7-1,1.1-1.7c0.3-0.4,0.7-0.8,0.8-1c0-0.1,0.1-0.2,0.1-0.3c0.1-0.1,0.2-0.2,0.2-0.2
		c0.1-0.2,0.2-0.2,0.2-0.3c0-0.1,0.1-0.2,0.1-0.3c0,0,0.1,0,0.1-0.1s0.1-0.2,0-0.2s0,0.3-0.1,0.7c-0.2,0.6-0.7,1.2-1.1,1.8
		c-0.4,0.6-0.7,1.1-0.8,1.2c-0.1,0.1,0,0.1,0.2,0c0.3-0.2,0.9-0.5,1.4-0.9c0.5-0.3,0.8-0.7,0.9-0.9c0.1-0.1,0-0.2,0.1-0.3
		s0.1,0,0.1,0.1c0,0-0.1,0.2-0.3,0.4s-0.6,0.6-1.1,0.9c-0.5,0.3-0.9,0.7-1.2,0.8c-0.1,0-0.1-0.1,0.1-0.4c0.3-0.3,0.6-0.9,0.8-1.2
		c0.2-0.2,0.3-0.4,0.5-0.6c0.1-0.2,0.2-0.4,0.3-0.6c0.1-0.1,0.2-0.3,0.3-0.4s0.2-0.2,0.4-0.4c0.1-0.1,0.2-0.3,0.3-0.4
		c0,0-0.1,0,0-0.1s0.1,0,0.2-0.1s0,0-0.1,0.2c-0.3,0.6-0.8,1-1.2,1.5c-0.5,0.6-1,1.4-1.8,2.2c-0.3,0.3-0.5,0.6-0.6,0.7
		s-0.1,0.3-0.1,0.3c0,0.1-0.1,0.1-0.1,0.2c-0.1,0.1-0.1,0.1-0.2,0.2S53,44.4,53,44.4c-0.1,0-0.2,0.1-0.4,0.2l-0.1,0.1
		c-0.1,0-0.2,0.1-0.2,0.1c-0.1,0-0.1,0-0.1,0c-0.1,0-0.1-0.3,0-0.5c0.1-0.3,0.2-0.6,0.4-0.9c0.3-0.4,0.4-0.7,0.6-0.9
		s0.4-0.3,0.5-0.6c0.1-0.2,0.1-0.3,0.2-0.4c0.1-0.2,0.2-0.3,0.3-0.4c0.1-0.2,0.1-0.3,0.2-0.3c0.1-0.1,0.2-0.2,0.3-0.3
		s0.2-0.1,0.2-0.2c0.1-0.1,0.2-0.1,0.3-0.2s0.2-0.1,0.2-0.2c0-0.1,0.1-0.2,0.1-0.2c0-0.1,0,0.1-0.2,0.4c-0.3,0.6-0.8,1.1-1.2,1.7
		c-0.4,0.6-0.6,1.1-0.9,1.3c-0.2,0.2-0.2,0.2-0.3,0.4c-0.1,0.1-0.3,0.3-0.3,0.3c-0.1,0.1-0.2,0.2-0.3,0.3s-0.2,0.2-0.2,0.2
		C52,44.3,52,44.1,52,43.9c0-0.4,0-0.9,0-1.2c0.1-0.4,0.1-0.6,0.2-0.8c0.1-0.3,0.2-0.5,0.4-0.7c0.1-0.2,0.3-0.5,0.5-0.6
		c0.2-0.2,0.4-0.3,0.6-0.5c0.2-0.1,0.4-0.3,0.6-0.3c0.2,0,0.4-0.2,0.7-0.2c0.2,0,0.5-0.1,0.4-0.1s0,0.3-0.3,0.6
		c-0.4,0.5-0.8,0.6-1.2,0.9c-0.3,0.2-0.5,0.3-0.7,0.5c-0.1,0.1-0.1,0.2-0.2,0.3s-0.1,0.1-0.2,0.2c-0.1,0.1,0,0.3-0.2,0.4
		c-0.1,0.1-0.2,0.2-0.2,0.2c-0.1,0-0.2-0.2-0.3-0.5C52,41.7,52,41.4,52,41.1c0-0.2,0.1-0.3,0.3-0.6c0.1-0.2,0.3-0.4,0.5-0.5
		c0.1-0.1,0.2-0.2,0.3-0.3c0.2-0.1,0.3-0.2,0.3-0.2s0.2,0,0.2-0.1c0.1-0.1,0.2-0.1,0.2-0.1s0.1-0.1-0.1,0c-0.1,0.1-0.3,0.2-0.5,0.4
		c-0.2,0.1-0.5,0.3-0.8,0.5c-0.2,0.2-0.4,0.2-0.5,0.3s-0.2,0.1-0.3,0.2s-0.1,0.1-0.2,0.1c-0.1,0.1-0.2,0.2-0.2,0.2
		C51,41,51,40.8,51,40.6s0.2-0.4,0.2-0.6c0-0.2,0.1-0.4,0.2-0.5c0.2-0.1,0.3-0.2,0.5-0.3c0.2-0.2,0.5-0.3,0.9-0.4
		c0.2-0.1,0.5-0.2,0.9-0.2c0.2,0,0.3,0,0.3,0c-0.1,0-0.3-0.1-0.5,0c-0.1,0.1-0.3,0.1-0.6,0.2c-0.2,0.1-0.4,0.1-0.7,0.2
		c-0.2,0.1-0.4,0.2-0.6,0.3c-0.1,0.1-0.3,0.2-0.4,0.3c-0.2,0.1-0.3,0.1-0.5,0.2c-0.2,0.1-0.2,0.3-0.3,0.3c-0.1,0-0.1,0-0.1-0.1
		c0.1-0.2,0.4-0.4,0.4-0.5c0.1-0.2,0.2-0.3,0.3-0.4c0.2-0.1,0.4-0.3,0.6-0.4s0.5-0.3,0.8-0.3c0.2,0,0.3-0.1,0.3-0.1s0.1-0.1,0-0.2
		c-0.1-0.1-0.2,0-0.3,0c-0.2,0-0.5,0-0.9,0.1s-0.6,0.2-0.8,0.2c0,0-0.1,0-0.2,0.1c-0.1,0-0.2,0-0.4,0s-0.4,0-0.5,0h-0.1
		c0.1-0.2,0.2-0.2,0.2-0.3c0.1-0.2,0.4-0.1,0.7-0.2c0.2-0.1,0.4-0.2,0.5-0.2c0.2-0.1,0.3-0.1,0.4-0.1c0.1-0.1,0.1-0.1,0.2-0.1
		s0.2,0,0.2-0.1h0.1l0.2-0.1c0,0,0.1,0,0.1,0.1c0,0.4,0.1,0.9,0,1.4c-0.1,0.5-0.1,0.8-0.1,1s0,0.4,0,0.5c0,0,0.1,0.2,0,0.1
		s-0.2-0.3-0.3-0.4s-0.1-0.2-0.1-0.3v-0.1c0,0.3-0.2,0.7-0.2,1c0,0.3-0.1,0.5-0.1,0.7s0,0.6,0,0.8c0,0.1,0.1,0.3,0.1,0.5
		c0,0.2,0,0.3,0.1,0.4c0,0.1,0,0.2,0,0.2c0.1,0.1,0.1,0.1,0.1,0.2c0.1,0.1,0.1,0.1,0.1,0.1c0.1,0.1,0.2,0.3,0.2,0.4h0.1l0,0l0.1,0.1
		"/>
	<path id="svg_45" class="st14" d="M49.5,39c0,0,0.1,0.2,0.2,0.4c0.3,0.4,0.7,0.8,1,1c0.3,0.2,0.5,0.4,0.5,0.4c0.1,0,0.1,0,0.3,0
		l0.2-0.1l0,0"/>
	<path id="svg_46" class="st14" d="M60,41.4c0.1,0,0.1,0.1,0.2,0.1c0.1,0.1,0.1,0.2,0.2,0.3l0.1,0.1c0,0.1,0.1,0.1,0.1,0.1
		s0,0,0,0.1h0.1l0,0"/>
	<path id="svg_47" class="st15" d="M59.1,41.4c-0.1,0-0.2,0.1-0.4,0.2c-0.2,0.2-0.4,0.3-0.4,0.4c0,0.1,0,0.2,0.1,0.2
		c0,0,0.2,0,0.3,0s0.3,0.1,0.4-0.1c0.1-0.1,0.1-0.1,0.1-0.2s0-0.2,0-0.4c0-0.1,0-0.2-0.1-0.3c0-0.1-0.1-0.2-0.1-0.2
		c-0.1,0-0.1,0-0.2,0.2c-0.1,0.1-0.2,0.3-0.2,0.3c0,0.1,0,0.2,0,0.3s0,0.1,0.1,0.2c0,0,0,0,0.1,0.1c0.1,0.1,0.1,0,0.2,0.1
		c0.1,0,0.2,0,0.2-0.2c0-0.1,0.1-0.2,0.1-0.3c0-0.2,0-0.3,0-0.4v-0.1h-0.1h-0.1c-0.1,0-0.2,0-0.2,0c-0.1,0-0.2,0-0.2,0
		c-0.1,0-0.1,0.1-0.1,0.1c-0.1,0-0.1,0-0.2,0c0,0-0.1,0.1-0.1,0.2c0,0-0.1,0.1-0.1,0.2c0,0,0,0,0,0.1c0,0-0.1,0,0,0.1s0.1,0,0.1,0.1
		h0.1c0,0.1,0.1,0.1,0.1,0.1l0,0h0.1l0,0"/>
	<path id="svg_49" class="st15" d="M56.6,43.4c-0.1,0.1-0.2,0.1-0.4,0.3s-0.2,0.4-0.3,0.4c-0.1,0-0.2,0-0.3,0.1s-0.3,0.2-0.4,0.2
		C55,44.5,55,44.6,55,44.6c-0.2,0.1-0.2,0.1-0.2,0.1c-0.1,0-0.1,0-0.2,0.1c-0.1,0-0.2,0-0.3,0c-0.1,0.1-0.2,0.1-0.3,0.1
		s-0.2,0.1-0.2,0.1c-0.2,0-0.2,0-0.3,0c-0.2,0.1-0.2,0.1-0.3,0.1s-0.2,0-0.2,0l0,0"/>
</g>
</svg>
