<?xml version="1.0" encoding="utf-8"?>
<!-- Generator: Adobe Illustrator 21.0.2, SVG Export Plug-In . SVG Version: 6.00 Build 0)  -->
<svg version="1.1" id="Layer_1" xmlns="http://www.w3.org/2000/svg" xmlns:xlink="http://www.w3.org/1999/xlink" x="0px" y="0px"
	 viewBox="0 0 104.2 104.1" style="enable-background:new 0 0 104.2 104.1;" xml:space="preserve">
<style type="text/css">
	.st0{fill:#231F20;}
</style>
<g id="Page-1">
	<g id="_x30_02---Virus" transform="translate(-1)">
		<path id="Shape" class="st0" d="M32.6,53.9c-1,0-1.9,0.8-1.9,1.9s0.8,1.9,1.9,1.9c1,0,1.9-0.8,1.9-1.9S33.7,53.9,32.6,53.9z"/>
		<path id="Shape_1_" class="st0" d="M79,90.6c-1.3-0.6-2.3-1.6-3-2.9c-1-2-2.4-4.9-3.8-8.2c-1.5,1.1-3.2,2-4.9,2.8
			c2.4,3.1,4.3,6,5.3,7.5c0.7,1.1,1,2.5,0.9,3.8c-0.1,1.6,0.8,3.1,2.3,3.7s3.2,0.2,4.2-1s1.2-2.9,0.4-4.3C80.1,91.5,79.6,91,79,90.6
			L79,90.6z"/>
		<path id="Shape_2_" class="st0" d="M30.1,87.9c-0.6,1.2-1.6,2.1-2.8,2.7c-1.4,0.7-2.2,2.3-2,3.8c0.2,1.6,1.4,2.8,3,3.2
			c1.6,0.3,3.1-0.4,3.9-1.8c0.3-0.6,0.5-1.3,0.5-2c-0.1-1.4,0.2-2.9,1-4.1c1.2-1.9,3-4.6,5.2-7.4c-1.7-0.8-3.3-1.7-4.9-2.8
			C32.6,82.9,31.2,85.9,30.1,87.9L30.1,87.9z"/>
		<path id="Shape_3_" class="st0" d="M27.1,13.5c1.3,0.6,2.4,1.6,3.1,2.9c1,2,2.4,4.9,3.8,8.2c1.5-1.1,3.2-2,4.9-2.8
			c-2.3-2.9-4.1-5.7-5.3-7.5c-0.7-1.1-1-2.5-0.9-3.8c0.1-1.6-0.8-3.1-2.3-3.7s-3.2-0.2-4.2,1s-1.2,2.9-0.4,4.3
			C26,12.6,26.6,13.1,27.1,13.5z"/>
		<path id="Shape_4_" class="st0" d="M76.1,16.2c0.6-1.2,1.6-2.1,2.8-2.7c1.4-0.7,2.2-2.3,2-3.8c-0.2-1.6-1.4-2.8-3-3.2
			c-1.6-0.3-3.1,0.4-3.9,1.8c-0.3,0.6-0.5,1.3-0.5,2c0.1,1.4-0.2,2.9-1,4.1c-1.2,1.9-3,4.6-5.2,7.4c1.7,0.8,3.3,1.7,4.9,2.8
			C73.6,21.2,75,18.2,76.1,16.2z"/>
		<circle id="Oval" class="st0" cx="47.5" cy="40.9" r="5.6"/>
		<path id="Shape_5_" class="st0" d="M19.7,54.9c-0.1-0.9-0.1-1.9-0.1-2.8c0-0.9,0-1.9,0.1-2.8c-3.7,0.5-6.9,0.7-9.2,0.8
			c-1.3,0-2.7-0.3-3.8-1.1c-1.5-1.1-3.6-0.8-4.9,0.6c-1.2,1.4-1.2,3.5,0,4.9s3.2,1.7,4.8,0.8c1.2-0.8,2.6-1.2,4-1.2
			C13,54.2,16.2,54.4,19.7,54.9L19.7,54.9z"/>
		<circle id="Oval_1_" class="st0" cx="68" cy="46.5" r="1.9"/>
		<path id="Shape_6_" class="st0" d="M104.3,49.6c-1.2-1.4-3.2-1.7-4.8-0.8c-1.2,0.8-2.6,1.2-4,1.2c-2.2-0.1-5.4-0.3-9-0.8
			c0.1,0.9,0.1,1.9,0.1,2.8s0,1.9-0.1,2.8c3.9-0.5,7.3-0.7,9.2-0.8c1.3,0,2.7,0.3,3.8,1.1c1.5,1.1,3.6,0.8,4.9-0.6
			C105.5,53.1,105.5,51.1,104.3,49.6L104.3,49.6z"/>
		<path id="Shape_7_" class="st0" d="M96.8,73c-0.6-0.4-1.3-0.5-2-0.5c-1.4,0.1-2.8-0.2-4-1c-2.9-1.9-5.7-3.9-8.3-5.9
			c-1.2-1-1.7-2.6-1.2-4.1c2.1-6.1,2.1-12.7,0-18.9c-0.5-1.5,0-3.2,1.2-4.1c3.3-2.6,6.4-4.7,8.4-6c1.1-0.7,2.5-1,3.8-0.9
			c1,0,1.9-0.3,2.7-0.9c1.1-1,1.5-2.5,1.1-3.9s-1.7-2.4-3.2-2.5s-2.9,0.6-3.6,1.9c-0.6,1.3-1.6,2.3-2.9,3c-1.9,1-6.6,3-9.2,4.1
			c-1.5,0.6-3.2,0.2-4.3-1c-4.3-4.8-10-8.1-16.3-9.4c-1.6-0.3-2.8-1.6-3-3.2c-0.3-2.9-0.9-8.1-1-10.2c0-1.3,0.3-2.6,1.1-3.7
			c1-1.4,0.9-3.1-0.1-4.4c-1-1.2-2.6-1.7-4.1-1.2s-2.5,1.9-2.5,3.5c0,0.7,0.2,1.4,0.5,2c0.8,1.2,1.2,2.6,1.2,4
			c-0.1,2.1-0.7,7.2-1,10c-0.2,1.6-1.4,2.9-3,3.2c-6.3,1.3-12,4.6-16.3,9.4c-1.1,1.2-2.8,1.6-4.3,1c-2.7-1.2-7.4-3.2-9.3-4.2
			c-1.2-0.6-2.1-1.6-2.7-2.8c-0.6-1.1-1.6-1.9-2.9-2c-1.2-0.2-2.5,0.3-3.3,1.2c-0.7,0.8-1.1,2-0.9,3.1s0.9,2.1,1.8,2.6
			c0.6,0.3,1.3,0.5,2,0.5c1.4-0.1,2.8,0.2,4,1c2.9,1.9,5.7,3.9,8.3,5.9c1.2,1,1.7,2.6,1.2,4.1c-2.1,6.1-2.1,12.7,0,18.9
			c0.5,1.5,0,3.2-1.2,4.1c-3.3,2.6-6.4,4.7-8.4,6c-1.1,0.7-2.5,1-3.8,0.9c-1,0-1.9,0.3-2.7,0.9c-1.4,1.3-1.7,3.4-0.5,4.9
			s3.2,2,4.9,1.1c0.6-0.3,1.1-0.9,1.4-1.5c0.6-1.3,1.6-2.3,2.9-3c1.9-1,6.6-3,9.2-4.1c0.5-0.2,1-0.3,1.5-0.3c1.1,0,2.1,0.5,2.8,1.3
			c4.3,4.8,10,8.1,16.3,9.4c1.6,0.3,2.8,1.6,3,3.2c0.3,2.9,0.9,8,1,10.2c0,1.3-0.3,2.6-1.1,3.7c-0.9,1.3-0.8,3.1,0.2,4.3
			c1,1.3,2.6,1.8,4.1,1.3s2.5-1.9,2.5-3.5c0-0.7-0.2-1.4-0.5-2c-0.8-1.2-1.2-2.6-1.2-4c0.1-2.7,0.4-6.9,1.2-11.4
			c0.1-0.8,0.7-1.5,1.5-1.6c6.8-1.1,13-4.5,17.5-9.6c1.1-1.2,2.8-1.6,4.3-1c2.7,1.2,7.4,3.3,9.3,4.2c1.2,0.6,2.1,1.6,2.7,2.8
			c0.6,1.1,1.6,1.9,2.9,2s2.5-0.3,3.3-1.2c0.7-0.8,1.1-2,0.9-3.1C98.4,74.5,97.8,73.5,96.8,73L96.8,73z M32.6,61.3
			c-3.1,0-5.6-2.5-5.6-5.6s2.5-5.6,5.6-5.6s5.6,2.5,5.6,5.6C38.2,58.8,35.7,61.3,32.6,61.3z M38.2,40.9c0-5.1,4.2-9.3,9.3-9.3
			s9.3,4.2,9.3,9.3s-4.2,9.3-9.3,9.3S38.2,46,38.2,40.9z M54.9,76.2c-6.2,0-11.2-5-11.2-11.2s5-11.2,11.2-11.2s11.2,5,11.2,11.2
			S61.1,76.2,54.9,76.2z M68,52c-3.1,0-5.6-2.5-5.6-5.6s2.5-5.6,5.6-5.6s5.6,2.5,5.6,5.6C73.5,49.5,71,52,68,52z"/>
		<path id="Shape_8_" class="st0" d="M54.9,57.6c-4.1,0-7.4,3.3-7.4,7.4s3.3,7.4,7.4,7.4s7.4-3.3,7.4-7.4S59.1,57.6,54.9,57.6z"/>
	</g>
</g>
</svg>
