<?xml version="1.0" encoding="utf-8"?>
<!-- Generator: Adobe Illustrator 21.0.2, SVG Export Plug-In . SVG Version: 6.00 Build 0)  -->
<svg version="1.1" id="Layer_1" xmlns="http://www.w3.org/2000/svg" xmlns:xlink="http://www.w3.org/1999/xlink" x="0px" y="0px"
	 viewBox="0 0 512 512" style="enable-background:new 0 0 512 512;" xml:space="preserve">
<style type="text/css">
	.st0{fill:#FFFFFF;}
</style>
<g id="Page-1">
	<g id="_x30_02---Virus" transform="translate(-1)">
		<path id="Shape" class="st0" d="M156.4,265.1c-5,0-9.1,4.1-9.1,9.1c0,5,4.1,9.1,9.1,9.1s9.1-4.1,9.1-9.1
			C165.6,269.2,161.5,265.1,156.4,265.1z"/>
		<path id="Shape_1_" class="st0" d="M384.6,445.8c-6.4-3.1-11.6-8.1-15-14.3c-5-9.8-11.9-24.1-18.7-40.4
			c-7.5,5.3-15.5,9.9-23.9,13.8c11.8,15.4,21.1,29.4,26,37.1c3.5,5.6,5.1,12.2,4.5,18.8c-0.5,7.8,4.1,15,11.3,18
			c7.2,3,15.5,1,20.7-4.9c5.1-5.9,6-14.4,2.1-21.1C390,449.8,387.6,447.4,384.6,445.8L384.6,445.8z"/>
		<path id="Shape_2_" class="st0" d="M144,432.2c-3.1,5.8-8,10.5-14,13.3c-7,3.5-11,11.1-9.9,18.8c1.1,7.7,6.9,14,14.6,15.5
			c7.7,1.5,15.4-2,19.4-8.7c1.7-2.9,2.6-6.3,2.5-9.6c-0.5-7.1,1.2-14.1,4.9-20.1c6-9.2,14.9-22.4,25.6-36.4
			c-8.3-3.9-16.3-8.5-23.9-13.8C156.1,407.9,149.1,422.4,144,432.2L144,432.2z"/>
		<path id="Shape_3_" class="st0" d="M129.4,66.2c6.3,3.1,11.6,8.1,15,14.3c5,9.8,11.9,24.1,18.7,40.4c7.6-5.3,15.5-9.9,23.9-13.8
			c-11.1-14.5-20.1-27.9-26.1-37.1c-3.5-5.6-5.1-12.2-4.5-18.7c0.5-7.8-4.1-15-11.3-18c-7.2-3-15.5-1-20.7,4.9
			c-5.1,5.9-6,14.4-2.1,21.2C124,62.2,126.5,64.6,129.4,66.2z"/>
		<path id="Shape_4_" class="st0" d="M370,79.8c3.1-5.8,8.1-10.5,14-13.3c7-3.5,11-11.1,9.9-18.8c-1.1-7.7-6.9-14-14.6-15.5
			c-7.7-1.5-15.4,2-19.4,8.7c-1.7,2.9-2.6,6.3-2.5,9.6c0.5,7.1-1.2,14.1-4.9,20.1c-6,9.2-14.9,22.4-25.6,36.4
			c8.3,3.9,16.3,8.5,23.9,13.8C357.9,104.1,364.9,89.6,370,79.8z"/>
		<circle id="Oval" class="st0" cx="229.6" cy="201.1" r="27.4"/>
		<path id="Shape_5_" class="st0" d="M93,269.8c-0.4-4.6-0.6-9.1-0.6-13.8c0-4.6,0.2-9.2,0.6-13.8c-18.1,2.4-34.1,3.5-45.1,4
			c-6.6,0.2-13.1-1.7-18.5-5.5c-7.6-5.2-17.9-4-24,2.9s-6.1,17.3,0,24.2c5.9,6.7,15.8,8.3,23.6,3.7c5.9-3.9,12.8-6,19.9-5.8
			C59.7,266.4,75.6,267.5,93,269.8L93,269.8z"/>
		<circle id="Oval_1_" class="st0" cx="330.1" cy="228.6" r="9.1"/>
		<path id="Shape_6_" class="st0" d="M508.7,244.2c-6-6.7-15.8-8.3-23.6-3.7c-5.9,4-12.8,6-19.9,5.8c-11-0.6-26.8-1.7-44.3-4
			c0.4,4.6,0.6,9.2,0.6,13.8c0,4.6-0.2,9.2-0.6,13.8c19.3-2.5,36.1-3.6,45.1-4c6.6-0.2,13.1,1.7,18.5,5.5c7.6,5.2,17.8,3.9,23.9-3
			C514.6,261.4,514.7,251.1,508.7,244.2L508.7,244.2z"/>
		<path id="Shape_7_" class="st0" d="M472,359c-3-1.8-6.4-2.6-9.9-2.4c-6.9,0.5-13.9-1.2-19.8-4.9c-14.5-9.4-28.2-19.1-40.7-28.9
			c-6.1-4.8-8.4-13-5.9-20.3c10.1-30.1,10.1-62.7,0-92.9c-2.5-7.4-0.2-15.5,5.9-20.3c16.3-12.8,31.5-23,41.3-29.3
			c5.6-3.5,12.3-5.1,18.9-4.5c4.8,0.2,9.5-1.4,13.2-4.6c5.5-4.8,7.5-12.5,5.2-19.4c-2.3-6.9-8.5-11.8-15.8-12.5
			c-7.3-0.6-14.2,3.1-17.7,9.5c-3.1,6.3-8,11.5-14.2,14.8c-9.4,4.8-32.3,14.9-45.1,20.4c-7.3,3.1-15.8,1.2-21-4.8
			c-21-23.7-49.1-39.9-80-46.3c-7.8-1.5-13.8-7.9-14.7-15.8c-1.6-14.2-4.4-39.6-4.9-50.2c-0.2-6.5,1.7-12.9,5.5-18.3
			c4.3-6.5,4-15.1-0.8-21.2C266.7,1,258.5-1.5,251.1,1c-7.4,2.5-12.4,9.4-12.4,17.2c0,3.4,0.9,6.7,2.7,9.6c3.9,5.8,6,12.7,5.8,19.8
			c-0.5,10.5-3.3,35.3-4.9,49.2c-0.9,7.9-6.9,14.3-14.7,15.8c-31,6.3-59.1,22.6-80.1,46.3c-5.2,6-13.7,7.9-21,4.8
			c-13.1-5.7-36.4-15.9-45.8-20.8c-5.8-3.1-10.5-8-13.3-14c-2.8-5.4-8.1-9.1-14.1-9.8c-6-0.8-12.1,1.5-16.1,6.1
			c-3.6,4.1-5.2,9.7-4.3,15.1c0.9,5.4,4.2,10.1,9,12.8c3,1.7,6.4,2.6,9.8,2.4c6.9-0.5,13.9,1.2,19.8,4.9
			c14.5,9.4,28.2,19.1,40.7,28.9c6.1,4.8,8.4,13,5.9,20.4c-10.1,30.1-10.1,62.7,0,92.8c2.5,7.3,0.2,15.5-5.9,20.3
			c-16.3,12.8-31.5,23-41.3,29.3c-5.6,3.5-12.3,5-18.9,4.5c-4.8-0.2-9.5,1.4-13.2,4.6c-7,6.2-8.2,16.7-2.7,24.3
			c5.5,7.6,15.8,9.9,23.9,5.2c3-1.7,5.4-4.2,7-7.2c3.1-6.3,8-11.5,14.2-14.8c9.4-4.8,32.3-14.9,45.1-20.4c2.3-1,4.7-1.5,7.2-1.5
			c5.3,0,10.3,2.3,13.8,6.3c21,23.7,49.1,39.9,80.1,46.3c7.8,1.5,13.8,7.9,14.7,15.8c1.6,14.1,4.4,39.5,4.9,50.1
			c0.2,6.5-1.7,13-5.5,18.4c-4.3,6.5-4,15.1,0.8,21.2c4.8,6.2,12.9,8.7,20.4,6.2c7.4-2.5,12.4-9.4,12.4-17.3c0-3.4-0.9-6.8-2.7-9.6
			c-3.9-5.8-6-12.7-5.7-19.7c0.7-13.4,2.2-34.1,5.7-56.1c0.5-4,3.6-7.2,7.6-7.9c33.4-5.3,63.9-22,86.3-47.4c5.2-6,13.7-7.9,21-4.8
			c13.1,5.7,36.5,16,45.8,20.8c5.8,3.1,10.5,8,13.2,14c2.8,5.4,8.1,9.1,14.1,9.9c6,0.8,12.1-1.5,16.1-6.1c3.6-4.1,5.2-9.7,4.3-15.1
			C480,366.4,476.8,361.7,472,359L472,359z M156.4,301.7c-15.1,0-27.4-12.3-27.4-27.4c0-15.1,12.3-27.4,27.4-27.4
			c15.1,0,27.4,12.3,27.4,27.4C183.9,289.4,171.6,301.7,156.4,301.7z M183.9,201.1c0-25.2,20.5-45.7,45.7-45.7s45.7,20.5,45.7,45.7
			s-20.5,45.7-45.7,45.7C204.3,246.8,183.9,226.4,183.9,201.1z M266.1,374.9c-30.3,0-54.9-24.6-54.9-54.9
			c0-30.3,24.6-54.9,54.9-54.9c30.3,0,54.9,24.6,54.9,54.9C321,350.3,296.4,374.8,266.1,374.9z M330.1,256
			c-15.1,0-27.4-12.3-27.4-27.4c0-15.1,12.3-27.4,27.4-27.4c15.1,0,27.4,12.3,27.4,27.4C357.6,243.7,345.3,256,330.1,256z"/>
		<path id="Shape_8_" class="st0" d="M266.1,283.4c-20.2,0-36.6,16.4-36.6,36.6c0,20.2,16.4,36.6,36.6,36.6
			c20.2,0,36.6-16.4,36.6-36.6C302.7,299.8,286.3,283.4,266.1,283.4z"/>
	</g>
</g>
</svg>
