<?xml version="1.0" encoding="utf-8"?>
<!-- Generator: Adobe Illustrator 21.0.2, SVG Export Plug-In . SVG Version: 6.00 Build 0)  -->
<svg version="1.1" id="Layer_1" xmlns="http://www.w3.org/2000/svg" xmlns:xlink="http://www.w3.org/1999/xlink" x="0px" y="0px"
	 viewBox="0 0 414 282" style="enable-background:new 0 0 414 282;" xml:space="preserve">
<style type="text/css">
	.st0{fill:#FFFFFF;}
</style>
<g id="Page-1">
	<g id="_x30_02---Virus" transform="translate(-1)">
		<path id="Shape" class="st0" d="M298.2,146.1c-2.7,0-5,2.3-5,5s2.3,5,5,5c2.7,0,5-2.3,5-5C303.3,148.3,301,146.1,298.2,146.1z"/>
		<path id="Shape_1_" class="st0" d="M423.4,245.2c-3.5-1.7-6.4-4.4-8.2-7.8c-2.7-5.4-6.5-13.2-10.3-22.2c-4.1,2.9-8.5,5.4-13.1,7.6
			c6.5,8.5,11.6,16.1,14.3,20.4c1.9,3.1,2.8,6.7,2.5,10.3c-0.3,4.3,2.3,8.2,6.2,9.9s8.5,0.5,11.4-2.7c2.8-3.2,3.3-7.9,1.2-11.6
			C426.4,247.4,425.1,246.1,423.4,245.2L423.4,245.2z"/>
		<path id="Shape_2_" class="st0" d="M291.4,237.7c-1.7,3.2-4.4,5.8-7.7,7.3c-3.8,1.9-6,6.1-5.4,10.3c0.6,4.2,3.8,7.7,8,8.5
			c4.2,0.8,8.5-1.1,10.6-4.8c0.9-1.6,1.4-3.5,1.4-5.3c-0.3-3.9,0.7-7.7,2.7-11c3.3-5,8.2-12.3,14-20c-4.6-2.1-8.9-4.7-13.1-7.6
			C298,224.4,294.2,232.3,291.4,237.7L291.4,237.7z"/>
		<path id="Shape_3_" class="st0" d="M283.4,36.9c3.5,1.7,6.4,4.4,8.2,7.8c2.7,5.4,6.5,13.2,10.3,22.2c4.2-2.9,8.5-5.4,13.1-7.6
			c-6.1-8-11-15.3-14.3-20.4c-1.9-3.1-2.8-6.7-2.5-10.3c0.3-4.3-2.3-8.2-6.2-9.9c-4-1.6-8.5-0.5-11.4,2.7s-3.3,7.9-1.2,11.6
			C280.4,34.7,281.8,36,283.4,36.9z"/>
		<path id="Shape_4_" class="st0" d="M415.4,44.3c1.7-3.2,4.4-5.8,7.7-7.3c3.8-1.9,6-6.1,5.4-10.3s-3.8-7.7-8-8.5
			c-4.2-0.8-8.5,1.1-10.6,4.8c-0.9,1.6-1.4,3.5-1.4,5.3c0.3,3.9-0.7,7.7-2.7,11c-3.3,5-8.2,12.3-14,20c4.6,2.1,8.9,4.7,13.1,7.6
			C408.8,57.7,412.6,49.7,415.4,44.3z"/>
		<circle id="Oval" class="st0" cx="338.4" cy="111" r="15"/>
		<path id="Shape_5_" class="st0" d="M263.4,148.6c-0.2-2.5-0.3-5-0.3-7.6c0-2.5,0.1-5,0.3-7.6c-9.9,1.3-18.7,1.9-24.8,2.2
			c-3.6,0.1-7.2-0.9-10.2-3c-4.2-2.9-9.8-2.2-13.2,1.6c-3.3,3.8-3.3,9.5,0,13.3c3.2,3.7,8.7,4.6,13,2c3.2-2.1,7-3.3,10.9-3.2
			C245.1,146.7,253.9,147.3,263.4,148.6L263.4,148.6z"/>
		<circle id="Oval_1_" class="st0" cx="393.5" cy="126" r="5"/>
		<path id="Shape_6_" class="st0" d="M491.5,134.6c-3.3-3.7-8.7-4.6-13-2c-3.2,2.2-7,3.3-10.9,3.2c-6-0.3-14.7-0.9-24.3-2.2
			c0.2,2.5,0.3,5,0.3,7.6c0,2.5-0.1,5-0.3,7.6c10.6-1.4,19.8-2,24.8-2.2c3.6-0.1,7.2,0.9,10.2,3c4.2,2.9,9.8,2.1,13.1-1.6
			C494.7,144,494.8,138.3,491.5,134.6L491.5,134.6z"/>
		<path id="Shape_7_" class="st0" d="M471.4,197.6c-1.6-1-3.5-1.4-5.4-1.3c-3.8,0.3-7.6-0.7-10.9-2.7c-8-5.2-15.5-10.5-22.3-15.9
			c-3.3-2.6-4.6-7.1-3.2-11.1c5.5-16.5,5.5-34.4,0-51c-1.4-4.1-0.1-8.5,3.2-11.1c8.9-7,17.3-12.6,22.7-16.1
			c3.1-1.9,6.8-2.8,10.4-2.5c2.6,0.1,5.2-0.8,7.2-2.5c3-2.6,4.1-6.9,2.9-10.6s-4.7-6.5-8.7-6.9c-4-0.3-7.8,1.7-9.7,5.2
			c-1.7,3.5-4.4,6.3-7.8,8.1c-5.2,2.6-17.7,8.2-24.8,11.2c-4,1.7-8.7,0.7-11.5-2.6c-11.5-13-26.9-21.9-43.9-25.4
			c-4.3-0.8-7.6-4.3-8.1-8.7c-0.9-7.8-2.4-21.7-2.7-27.5c-0.1-3.6,0.9-7.1,3-10c2.4-3.6,2.2-8.3-0.4-11.6c-2.6-3.4-7.1-4.8-11.1-3.4
			s-6.8,5.2-6.8,9.4c0,1.9,0.5,3.7,1.5,5.3c2.1,3.2,3.3,7,3.2,10.9c-0.3,5.8-1.8,19.4-2.7,27c-0.5,4.3-3.8,7.8-8.1,8.7
			c-17,3.5-32.4,12.4-44,25.4c-2.9,3.3-7.5,4.3-11.5,2.6c-7.2-3.1-20-8.7-25.1-11.4c-3.2-1.7-5.8-4.4-7.3-7.7c-1.5-3-4.4-5-7.7-5.4
			c-3.3-0.4-6.6,0.8-8.8,3.3c-2,2.3-2.9,5.3-2.4,8.3c0.5,3,2.3,5.5,4.9,7c1.6,0.9,3.5,1.4,5.4,1.3c3.8-0.3,7.6,0.7,10.9,2.7
			c8,5.2,15.5,10.5,22.3,15.9c3.3,2.6,4.6,7.1,3.2,11.2c-5.5,16.5-5.5,34.4,0,50.9c1.4,4,0.1,8.5-3.2,11.1
			c-8.9,7-17.3,12.6-22.7,16.1c-3.1,1.9-6.8,2.7-10.4,2.5c-2.6-0.1-5.2,0.8-7.2,2.5c-3.8,3.4-4.5,9.2-1.5,13.3
			c3,4.2,8.7,5.4,13.1,2.9c1.6-0.9,3-2.3,3.8-4c1.7-3.5,4.4-6.3,7.8-8.1c5.2-2.6,17.7-8.2,24.8-11.2c1.3-0.5,2.6-0.8,4-0.8
			c2.9,0,5.7,1.3,7.6,3.5c11.5,13,26.9,21.9,44,25.4c4.3,0.8,7.6,4.3,8.1,8.7c0.9,7.7,2.4,21.7,2.7,27.5c0.1,3.6-0.9,7.1-3,10.1
			c-2.4,3.6-2.2,8.3,0.4,11.6c2.6,3.4,7.1,4.8,11.2,3.4c4.1-1.4,6.8-5.2,6.8-9.5c0-1.9-0.5-3.7-1.5-5.3c-2.1-3.2-3.3-7-3.1-10.8
			c0.4-7.4,1.2-18.7,3.1-30.8c0.3-2.2,2-4,4.2-4.3c18.3-2.9,35.1-12.1,47.4-26c2.9-3.3,7.5-4.3,11.5-2.6c7.2,3.1,20,8.8,25.1,11.4
			c3.2,1.7,5.8,4.4,7.2,7.7c1.5,3,4.4,5,7.7,5.4c3.3,0.4,6.6-0.8,8.8-3.3c2-2.3,2.9-5.3,2.4-8.3C475.8,201.6,474,199,471.4,197.6
			L471.4,197.6z M298.2,166.1c-8.3,0-15-6.8-15-15c0-8.3,6.8-15,15-15c8.3,0,15,6.8,15,15C313.3,159.4,306.5,166.1,298.2,166.1z
			 M313.3,111c0-13.8,11.3-25.1,25.1-25.1c13.8,0,25.1,11.3,25.1,25.1S352.2,136,338.4,136C324.5,136,313.3,124.8,313.3,111z
			 M358.4,206.3c-16.6,0-30.1-13.5-30.1-30.1s13.5-30.1,30.1-30.1c16.6,0,30.1,13.5,30.1,30.1S375,206.3,358.4,206.3z M393.5,141
			c-8.3,0-15-6.8-15-15s6.8-15,15-15s15,6.8,15,15C408.6,134.3,401.9,141,393.5,141z"/>
		<path id="Shape_8_" class="st0" d="M358.4,156.1c-11.1,0-20.1,9-20.1,20.1c0,11.1,9,20.1,20.1,20.1c11.1,0,20.1-9,20.1-20.1
			C378.5,165.1,369.5,156.1,358.4,156.1z"/>
	</g>
</g>
<g id="Page-1_1_">
	<g id="_x30_02---Virus_1_" transform="translate(-1)">
		<path id="Shape_17_" class="st0" d="M156.2,47.3c-0.9,0-1.6,0.7-1.6,1.6c0,0.9,0.7,1.6,1.6,1.6c0.9,0,1.6-0.7,1.6-1.6
			C157.8,48,157.1,47.3,156.2,47.3z"/>
		<path id="Shape_16_" class="st0" d="M196.2,79c-1.1-0.5-2-1.4-2.6-2.5c-0.9-1.7-2.1-4.2-3.3-7.1c-1.3,0.9-2.7,1.8-4.2,2.4
			c2.1,2.7,3.7,5.2,4.6,6.5c0.6,1,0.9,2.1,0.8,3.3c-0.1,1.4,0.7,2.6,2,3.1c1.3,0.5,2.7,0.2,3.6-0.9c0.9-1,1-2.5,0.4-3.7
			C197.2,79.7,196.7,79.2,196.2,79L196.2,79z"/>
		<path id="Shape_15_" class="st0" d="M154,76.6c-0.5,1-1.4,1.8-2.5,2.3c-1.2,0.6-1.9,1.9-1.8,3.3c0.2,1.4,1.2,2.5,2.5,2.7
			c1.3,0.3,2.7-0.3,3.4-1.5c0.3-0.5,0.4-1.1,0.4-1.7c-0.1-1.3,0.2-2.5,0.9-3.5c1-1.6,2.6-4,4.5-6.4c-1.5-0.7-2.9-1.5-4.2-2.4
			C156.2,72.3,155,74.8,154,76.6L154,76.6z"/>
		<path id="Shape_14_" class="st0" d="M151.5,12.4c1.1,0.5,2,1.4,2.6,2.5c0.9,1.7,2.1,4.2,3.3,7.1c1.3-0.9,2.7-1.8,4.2-2.4
			c-1.9-2.5-3.5-4.9-4.6-6.5c-0.6-1-0.9-2.1-0.8-3.3c0.1-1.4-0.7-2.6-2-3.1s-2.7-0.2-3.6,0.9c-0.9,1-1,2.5-0.4,3.7
			C150.6,11.7,151,12.2,151.5,12.4z"/>
		<path id="Shape_13_" class="st0" d="M193.7,14.8c0.5-1,1.4-1.8,2.5-2.3c1.2-0.6,1.9-1.9,1.8-3.3s-1.2-2.5-2.5-2.7
			c-1.3-0.3-2.7,0.3-3.4,1.5c-0.3,0.5-0.4,1.1-0.4,1.7c0.1,1.3-0.2,2.5-0.9,3.5c-1,1.6-2.6,4-4.5,6.4c1.5,0.7,2.9,1.5,4.2,2.4
			C191.5,19.1,192.8,16.6,193.7,14.8z"/>
		<circle id="Oval_3_" class="st0" cx="169.1" cy="36.1" r="4.8"/>
		<path id="Shape_12_" class="st0" d="M145.1,48.1c-0.1-0.8-0.1-1.6-0.1-2.4s0.1-1.6,0.1-2.4c-3.2,0.4-6,0.6-7.9,0.7
			c-1.2,0.1-2.3-0.3-3.2-1c-1.3-0.9-3.1-0.7-4.2,0.5c-1.1,1.2-1.1,3,0,4.2c1,1.2,2.7,1.4,4.1,0.7c1-0.7,2.3-1,3.5-1
			C139.3,47.5,142.1,47.7,145.1,48.1L145.1,48.1z"/>
		<circle id="Oval_2_" class="st0" cx="186.7" cy="40.9" r="1.6"/>
		<path id="Shape_11_" class="st0" d="M218,43.6c-1-1.2-2.7-1.4-4.1-0.7c-1,0.7-2.3,1-3.5,1c-1.9-0.1-4.7-0.3-7.7-0.7
			c0.1,0.8,0.1,1.6,0.1,2.4s-0.1,1.6-0.1,2.4c3.4-0.4,6.3-0.6,7.9-0.7c1.2-0.1,2.3,0.3,3.2,1c1.3,0.9,3.1,0.7,4.2-0.5
			C219,46.6,219,44.8,218,43.6L218,43.6z"/>
		<path id="Shape_10_" class="st0" d="M211.5,63.8c-0.5-0.3-1.1-0.4-1.7-0.4c-1.2,0.1-2.4-0.2-3.5-0.9c-2.5-1.6-4.9-3.3-7.1-5
			c-1-0.8-1.5-2.3-1-3.6c1.8-5.3,1.8-11,0-16.3c-0.4-1.3,0-2.7,1-3.6c2.9-2.3,5.5-4,7.2-5.2c1-0.6,2.1-0.9,3.3-0.8
			c0.8,0.1,1.6-0.3,2.3-0.8c0.9-0.8,1.3-2.2,0.9-3.4c-0.4-1.2-1.5-2.1-2.7-2.2s-2.5,0.5-3.1,1.6c-0.5,1.1-1.4,2-2.5,2.6
			c-1.6,0.8-5.7,2.6-7.9,3.6c-1.3,0.5-2.7,0.2-3.7-0.8c-3.7-4.2-8.6-7-14-8.1c-1.4-0.3-2.4-1.4-2.6-2.8c-0.3-2.5-0.8-6.9-0.9-8.8
			c-0.1-1.2,0.3-2.3,1-3.2c0.8-1.2,0.7-2.6-0.1-3.7s-2.3-1.5-3.6-1.1c-1.3,0.4-2.2,1.6-2.2,3c0,0.6,0.2,1.2,0.5,1.7
			c0.7,1,1,2.3,1,3.5c-0.1,1.9-0.5,6.2-0.9,8.6c-0.2,1.4-1.2,2.5-2.6,2.7c-5.4,1.1-10.4,4-14,8.1c-0.9,1-2.4,1.4-3.7,0.8
			c-2.4-0.8-6.4-2.6-8.1-3.5c-1-0.5-1.8-1.4-2.3-2.5c-0.5-0.9-1.4-1.6-2.5-1.7c-1-0.1-2.1,0.3-2.8,1c-0.7,0.7-0.9,1.7-0.8,2.6
			c0.2,0.9,0.7,1.8,1.6,2.3c0.5,0.3,1.1,0.4,1.7,0.4c1.2-0.1,2.4,0.2,3.5,0.9c2.5,1.6,4.9,3.3,7.1,5c1,0.8,1.5,2.3,1,3.6
			c-1.8,5.3-1.8,11,0,16.2c0.4,1.3,0,2.7-1,3.6c-2.9,2.3-5.5,4.1-7.2,5.2c-1,0.6-2.1,0.9-3.3,0.8c-0.8-0.1-1.6,0.2-2.3,0.8
			c-1.2,1.1-1.4,2.9-0.5,4.3c0.9,1.3,2.7,1.8,4.2,0.9c0.5-0.3,0.9-0.7,1.2-1.3c0.5-1.1,1.4-2,2.5-2.6c1.6-0.8,5.7-2.6,7.9-3.6
			c0.4-0.2,0.8-0.3,1.3-0.3c0.9,0,1.8,0.4,2.4,1.1c3.7,4.2,8.6,7,14,8.1c1.4,0.3,2.4,1.4,2.6,2.8c0.3,2.5,0.8,6.9,0.9,8.8
			c0.1,1.2-0.3,2.3-1,3.2c-0.8,1.2-0.7,2.6,0.1,3.7s2.3,1.5,3.6,1.1c1.3-0.4,2.2-1.6,2.2-3c0-0.6-0.2-1.2-0.5-1.7
			c-0.7-1-1-2.3-1-3.5c0.1-2.4,0.4-6,1-9.8c0.1-0.7,0.7-1.3,1.3-1.4c5.9-0.9,11.2-3.8,15.1-8.3c0.9-1,2.4-1.4,3.7-0.8
			c2.3,1,6.4,2.8,8,3.7c1,0.5,1.8,1.4,2.3,2.5c0.5,0.9,1.4,1.6,2.5,1.8c1,0.1,2.1-0.3,2.8-1c0.7-0.7,0.9-1.7,0.8-2.6
			C212.9,65.1,212.4,64.3,211.5,63.8L211.5,63.8z M156.2,53.7c-2.6,0-4.8-2.1-4.8-4.8c0-2.6,2.1-4.8,4.8-4.8c2.6,0,4.8,2.1,4.8,4.8
			S158.9,53.7,156.2,53.7z M161.1,36.1c0-4.4,3.6-8,8-8s8,3.6,8,8s-3.6,8-8,8C164.6,44.1,161.1,40.5,161.1,36.1z M175.4,66.6
			c-5.3,0-9.6-4.3-9.6-9.6s4.3-9.6,9.6-9.6s9.6,4.3,9.6,9.6C185,62.2,180.8,66.5,175.4,66.6z M186.7,45.7c-2.6,0-4.8-2.1-4.8-4.8
			c0-2.6,2.1-4.8,4.8-4.8c2.7,0,4.8,2.1,4.8,4.8C191.5,43.6,189.3,45.7,186.7,45.7z"/>
		<path id="Shape_9_" class="st0" d="M175.4,50.5c-3.5,0-6.4,2.9-6.4,6.4c0,3.5,2.9,6.4,6.4,6.4s6.4-2.9,6.4-6.4
			S179,50.5,175.4,50.5z"/>
	</g>
</g>
<g id="Page-1_2_">
	<g id="_x30_02---Virus_2_" transform="translate(-1)">
		<path id="Shape_26_" class="st0" d="M197.7,240.3c-0.4,0-0.7,0.3-0.7,0.7c0,0.4,0.3,0.7,0.7,0.7s0.7-0.3,0.7-0.7
			C198.4,240.6,198.1,240.3,197.7,240.3z"/>
		<path id="Shape_25_" class="st0" d="M214.7,253.7c-0.5-0.2-0.9-0.6-1.1-1c-0.4-0.7-0.9-1.8-1.4-3c-0.5,0.4-1.2,0.7-1.8,1
			c0.9,1.2,1.6,2.2,1.9,2.7c0.3,0.4,0.4,0.9,0.3,1.4c-0.1,0.6,0.3,1.1,0.8,1.3c0.5,0.2,1.2,0.1,1.5-0.4c0.4-0.4,0.4-1,0.2-1.6
			C215.1,254,214.9,253.8,214.7,253.7L214.7,253.7z"/>
		<path id="Shape_24_" class="st0" d="M196.8,252.7c-0.2,0.4-0.6,0.8-1,1c-0.5,0.3-0.8,0.8-0.7,1.4c0.1,0.5,0.5,1,1.1,1.2
			c0.5,0.1,1.2-0.2,1.4-0.7c0.1-0.2,0.2-0.4,0.2-0.7c-0.1-0.5,0.1-1,0.4-1.5c0.4-0.7,1.1-1.6,1.9-2.7c-0.6-0.3-1.2-0.7-1.8-1
			C197.7,250.9,197.2,252,196.8,252.7L196.8,252.7z"/>
		<path id="Shape_23_" class="st0" d="M195.7,225.5c0.5,0.2,0.9,0.6,1.1,1c0.4,0.7,0.9,1.8,1.4,3c0.5-0.4,1.2-0.7,1.8-1
			c-0.8-1.1-1.5-2.1-1.9-2.7c-0.3-0.4-0.4-0.9-0.3-1.4c0.1-0.6-0.3-1.1-0.8-1.3c-0.5-0.2-1.2-0.1-1.5,0.4s-0.4,1-0.2,1.6
			C195.3,225.2,195.5,225.3,195.7,225.5z"/>
		<path id="Shape_22_" class="st0" d="M213.6,226.5c0.2-0.4,0.6-0.8,1-1c0.5-0.3,0.8-0.8,0.7-1.4c-0.1-0.5-0.5-1-1.1-1.2
			c-0.5-0.1-1.2,0.2-1.4,0.7c-0.1,0.2-0.2,0.4-0.2,0.7c0.1,0.5-0.1,1-0.4,1.5c-0.4,0.7-1.1,1.6-1.9,2.7c0.6,0.3,1.2,0.7,1.8,1
			C212.7,228.3,213.3,227.2,213.6,226.5z"/>
		<circle id="Oval_5_" class="st0" cx="203.2" cy="235.5" r="2"/>
		<path id="Shape_21_" class="st0" d="M193,240.6c-0.1-0.3-0.1-0.7-0.1-1s0-0.7,0.1-1c-1.4,0.2-2.5,0.3-3.3,0.3
			c-0.5,0-1-0.1-1.4-0.4c-0.5-0.4-1.3-0.3-1.8,0.2c-0.4,0.5-0.4,1.3,0,1.8c0.4,0.5,1.2,0.6,1.8,0.3c0.4-0.3,0.9-0.4,1.5-0.4
			C190.5,240.4,191.7,240.5,193,240.6L193,240.6z"/>
		<circle id="Oval_4_" class="st0" cx="210.7" cy="237.6" r="0.7"/>
		<path id="Shape_20_" class="st0" d="M224,238.7c-0.4-0.5-1.2-0.6-1.8-0.3c-0.4,0.3-0.9,0.4-1.5,0.4c-0.8-0.1-2-0.1-3.3-0.3
			c0.1,0.3,0.1,0.7,0.1,1c0,0.3,0,0.7-0.1,1c1.4-0.2,2.7-0.3,3.3-0.3c0.5,0,1,0.1,1.4,0.4c0.5,0.4,1.3,0.3,1.8-0.2
			C224.3,240.1,224.4,239.2,224,238.7L224,238.7z"/>
		<path id="Shape_19_" class="st0" d="M221.2,247.3c-0.2-0.1-0.5-0.2-0.7-0.2c-0.5,0.1-1-0.1-1.5-0.4c-1.1-0.7-2.1-1.4-3-2.1
			c-0.4-0.4-0.6-1-0.4-1.5c0.8-2.3,0.8-4.7,0-6.9c-0.2-0.5,0-1.2,0.4-1.5c1.2-0.9,2.4-1.7,3.1-2.2c0.4-0.3,0.9-0.4,1.4-0.3
			c0.4,0,0.7-0.1,1-0.3c0.4-0.4,0.5-0.9,0.4-1.4c-0.2-0.5-0.7-0.9-1.2-0.9c-0.5-0.1-1,0.2-1.3,0.7c-0.2,0.5-0.6,0.9-1,1.1
			c-0.7,0.3-2.4,1.1-3.3,1.5c-0.5,0.2-1.2,0.1-1.6-0.3c-1.5-1.8-3.7-3-6-3.5c-0.6-0.1-1-0.6-1.1-1.2c-0.1-1-0.3-3-0.4-3.7
			c0-0.5,0.1-1,0.4-1.4c0.3-0.5,0.3-1.1-0.1-1.6c-0.3-0.4-1-0.7-1.5-0.4c-0.5,0.2-0.9,0.7-0.9,1.3c0,0.3,0.1,0.5,0.2,0.7
			c0.3,0.4,0.4,0.9,0.4,1.5c-0.1,0.8-0.2,2.6-0.4,3.7c-0.1,0.6-0.5,1-1.1,1.2c-2.3,0.5-4.4,1.7-6,3.5c-0.4,0.4-1,0.6-1.5,0.4
			c-1-0.4-2.7-1.2-3.4-1.5c-0.4-0.2-0.8-0.6-1-1c-0.2-0.4-0.6-0.7-1-0.7c-0.4-0.1-0.9,0.1-1.2,0.4c-0.3,0.3-0.4,0.7-0.3,1.1
			c0.1,0.4,0.3,0.8,0.7,0.9c0.2,0.1,0.5,0.2,0.7,0.2c0.5-0.1,1,0.1,1.5,0.4c1.1,0.7,2.1,1.4,3,2.1c0.4,0.4,0.6,1,0.4,1.5
			c-0.8,2.3-0.8,4.7,0,6.9c0.2,0.5,0,1.2-0.4,1.5c-1.2,0.9-2.4,1.7-3.1,2.2c-0.4,0.3-0.9,0.4-1.4,0.3c-0.4,0-0.7,0.1-1,0.3
			c-0.5,0.4-0.6,1.3-0.2,1.8c0.4,0.5,1.2,0.7,1.8,0.4c0.2-0.1,0.4-0.3,0.5-0.5c0.2-0.5,0.6-0.9,1-1.1c0.7-0.3,2.4-1.1,3.3-1.5
			c0.2-0.1,0.3-0.1,0.5-0.1c0.4,0,0.8,0.2,1,0.5c1.5,1.8,3.7,3,6,3.5c0.6,0.1,1,0.6,1.1,1.2c0.1,1,0.3,3,0.4,3.7
			c0,0.5-0.1,1-0.4,1.4c-0.3,0.5-0.3,1.1,0.1,1.6c0.3,0.4,1,0.7,1.5,0.4s0.9-0.7,0.9-1.3c0-0.3-0.1-0.5-0.2-0.7
			c-0.3-0.4-0.4-0.9-0.4-1.5c0.1-1,0.2-2.5,0.4-4.2c0.1-0.3,0.3-0.5,0.5-0.6c2.5-0.4,4.8-1.6,6.4-3.5c0.4-0.4,1-0.6,1.6-0.4
			c1,0.4,2.7,1.2,3.4,1.5c0.4,0.2,0.8,0.6,1,1c0.2,0.4,0.6,0.7,1,0.7c0.4,0.1,0.9-0.1,1.2-0.4c0.3-0.3,0.4-0.7,0.3-1.1
			C221.8,247.8,221.5,247.4,221.2,247.3L221.2,247.3z M197.7,243c-1.2,0-2-0.9-2-2c0-1.2,0.9-2,2-2c1.2,0,2,0.9,2,2
			S198.8,243,197.7,243z M199.8,235.5c0-1.9,1.5-3.4,3.4-3.4c1.9,0,3.4,1.5,3.4,3.4c0,1.9-1.5,3.4-3.4,3.4
			C201.3,238.9,199.8,237.4,199.8,235.5z M205.9,248.4c-2.3,0-4.1-1.8-4.1-4.1s1.8-4.1,4.1-4.1s4.1,1.8,4.1,4.1
			C210,246.6,208.1,248.4,205.9,248.4z M210.7,239.6c-1.2,0-2-0.9-2-2c0-1.2,0.9-2,2-2s2,0.9,2,2S211.8,239.6,210.7,239.6z"/>
		<path id="Shape_18_" class="st0" d="M205.9,241.6c-1.5,0-2.7,1.2-2.7,2.7c0,1.5,1.2,2.7,2.7,2.7s2.7-1.2,2.7-2.7
			C208.6,242.8,207.4,241.6,205.9,241.6z"/>
	</g>
</g>
</svg>
