<?xml version="1.0" encoding="utf-8"?>
<!-- Generator: Adobe Illustrator 21.0.2, SVG Export Plug-In . SVG Version: 6.00 Build 0)  -->
<svg version="1.1" id="Layer_1" xmlns="http://www.w3.org/2000/svg" xmlns:xlink="http://www.w3.org/1999/xlink" x="0px" y="0px"
	 viewBox="0 0 400 300" style="enable-background:new 0 0 400 300;" xml:space="preserve">
<style type="text/css">
	.st0{fill:#8FB8F7;}
	.st1{fill:#FFFFFF;}
	.st2{fill:#231F20;}
	.st3{fill:#FFE0BD;}
	.st4{fill:#D1D3D4;}
</style>
<g id="_438_washing_hands_flatline">
	<path class="st0" d="M181.2,185.4c0.1,9.3,1.7,20.1-5.7,27.2c-2.1,2-4.8,3.4-6.8,5.5s-3.3,5.4-1.9,8c1.1,1.7,2.9,2.8,4.9,2.9
		c2,0.1,3.9-0.2,5.8-0.9c0.6-0.3,1.3-0.4,2-0.2c4.6,1.2,1.8,30.9,1.8,35.7v1.7h100.5v-63c0-8.5,8.5-3,9.4-9.1s-15.5-7-8.5-13.4
		s27.7-23.6,19.8-27.3s-26.3,7.5-26.7,2.5s6.2-9.3,0-10.8s-18.4,9.1-16.8,0.6s6.1-16.1,0-14.6s-10.7,6.1-10.7-2.4V94.4l-20.6-1.7
		c0,0,1.4,22.1,0,37.3s-17-4.9-22.1-7s-13.6-1.5-10.6,5.2c3.1,6.7-3.1,14.3-7.6,11.5s-24.7-12.2-24.1-4.9
		c0.6,7.3,14.3,7.6,15.8,11.1s-29.9,13.3-27.1,19.4S181.2,179.2,181.2,185.4z"/>
	<path class="st1" d="M291.7,39.9c0,1.3-0.4,2.4-6.2,2.4s-14.9-1.1-14.9-2.4s9.1-2.4,14.9-2.4S291.7,38.6,291.7,39.9z"/>
	<path class="st2" d="M285.6,42.8c-2.4,0-15.4-0.5-15.4-2.9s13-2.9,15.4-2.9c5.6,0,6.7,1,6.7,2.9S291.2,42.8,285.6,42.8z
		 M271.2,39.9c0.9,0.8,8,1.9,14.3,1.9c5.7,0,5.7-1,5.7-1.9s0-1.9-5.7-1.9C279.2,38,272.1,39.1,271.2,39.9z"/>
	<path class="st1" d="M248,39.9c0,1.3,0.4,2.4,6.2,2.4c5.8,0,14.8-1.1,14.8-2.4s-9.1-2.4-14.9-2.4S248,38.6,248,39.9z"/>
	<path class="st2" d="M254.1,42.8c-5.6,0-6.7-1-6.7-2.9s1-2.9,6.7-2.9c2.4,0,15.4,0.5,15.4,2.9S256.5,42.8,254.1,42.8z M254.1,38
		c-5.7,0-5.7,1-5.7,1.9s0,1.9,5.7,1.9c6.3,0,13.4-1.1,14.3-1.9C267.5,39.1,260.5,38,254.1,38L254.1,38z"/>
	<ellipse class="st1" cx="299.6" cy="80.2" rx="12.7" ry="32.9"/>
	<path class="st2" d="M299.6,113.6c-7.4,0-13.2-14.7-13.2-33.4s5.8-33.4,13.2-33.4s13.2,14.7,13.2,33.4S307.1,113.6,299.6,113.6z
		 M299.6,47.8c-6.7,0-12.2,14.5-12.2,32.4s5.5,32.4,12.2,32.4s12.2-14.5,12.2-32.4S306.4,47.8,299.6,47.8z"/>
	<path class="st2" d="M261.2,56.8h17.3c1.8,0,3.3,1.5,3.3,3.3v0.2c0,1.8-1.5,3.3-3.3,3.3h-17.3c-1.8,0-3.3-1.5-3.3-3.3v-0.2
		C257.9,58.3,259.4,56.8,261.2,56.8z"/>
	<path class="st2" d="M278.5,64.2h-17.3c-2.1,0-3.9-1.7-3.9-3.9v-0.2c0-2.1,1.7-3.9,3.9-3.9h17.3c2.1,0,3.9,1.7,3.9,3.9v0.2
		C282.4,62.5,280.6,64.2,278.5,64.2z M261.2,57.3c-1.6,0-2.8,1.3-2.8,2.8v0.2c0,1.6,1.3,2.8,2.8,2.8h17.3c1.6,0,2.8-1.3,2.8-2.8
		v-0.2c0-1.6-1.3-2.8-2.8-2.8H261.2z"/>
	<path class="st1" d="M227.7,87.7c0,0,1.4-21.3,7.8-25.3h64.7c0,0,2.8,0.8,2.8,8.5s-2.8,10.4-2.8,10.4s-48.1-2.1-50.2,0
		s-1.2,9.7-1.2,9.7L227.7,87.7z"/>
	<path class="st2" d="M248.8,91.5L248.8,91.5l-21.1-3.3c-0.3,0-0.4-0.3-0.4-0.5c0-0.9,1.5-21.6,8-25.7c0.1,0,0.2-0.1,0.3-0.1h64.7
		c0,0,0.1,0,0.1,0c0.3,0.1,3.2,1.1,3.2,9s-2.9,10.6-3,10.7c-0.1,0.1-0.2,0.1-0.4,0.1c-18.4-0.8-48.1-1.5-49.8-0.1
		c-1.5,1.5-1.3,7.3-1.1,9.3c0,0.2,0,0.3-0.1,0.4C249,91.4,248.9,91.5,248.8,91.5z M228.2,87.2l20,3.2c-0.2-2-0.4-7.6,1.4-9.5
		c2.1-2.1,41.8-0.5,50.4-0.2c0.5-0.6,2.5-3.4,2.5-9.8s-2.1-7.8-2.4-8h-64.5C230.1,66.5,228.5,84.2,228.2,87.2z"/>
	<path class="st3" d="M264.1,185.1c-6.4-2.1-36.9-9.1-36.9-9.1s43.9,7,45.7,2.4s-7.3-8.5-12.5-9.7s-45.5-10.4-43.6-11.9
		s24.6-4.9,29.5-9.1s3.9-8.8,0-9.4s-18.8,4.3-27.3,3.4s-18.6-3.4-25.6,2.1c-4.1,3.2-8.5,6.1-13.1,8.6l-90-24l-2.7,22.4v11.6
		l86.5,25.3c0,0,63.6,24.2,72.2,25.1s10.7-0.9,8.6-3.7s-33.2-14.7-33.2-14.7s45.7,15.9,44,7.6c-0.8-3.8-11.1-7-20.4-9.1
		c12.2,2.2,27.8,4.6,29.6,2.8C278.1,192.7,270.5,187.2,264.1,185.1z"/>
	<path class="st2" d="M250.3,213.6c-1.3,0-2.7-0.1-4-0.2c-8.6-0.9-69.7-24.2-72.3-25.2l-86.5-25.3c-0.2-0.1-0.4-0.3-0.4-0.5v-11.7
		l2.8-22.5c0-0.1,0.1-0.3,0.2-0.4c0.1-0.1,0.3-0.1,0.4-0.1l89.8,24c4.5-2.5,8.8-5.3,12.9-8.5c6.1-4.8,14.6-3.7,22-2.7
		c1.3,0.2,2.6,0.3,3.9,0.5c4.9,0.5,12-0.9,17.7-2c4.4-0.9,7.9-1.6,9.6-1.3c1.7,0.2,3.1,1.3,3.6,2.9c0.6,2.3-0.6,5-3.3,7.4
		c-3.2,2.8-13.1,5-21,6.8c-2.7,0.6-5.5,1.2-8.1,2.1c1.8,1,10.8,3.8,40.8,10.7l2.2,0.5c4.1,1,10.8,3.7,12.6,7.2
		c0.6,1,0.6,2.2,0.2,3.2c-1.4,3.4-20.9,1.4-34.5-0.4c9.4,2.2,21.6,5.2,25.4,6.5c5.1,1.7,11.1,5.6,11.9,8.8c0.2,1,0,2-0.8,2.6
		c-0.5,0.5-1.9,1.9-20-0.9c6.8,2.2,10.4,4.5,10.9,6.9c0.2,0.7-0.1,1.5-0.6,2c-0.8,0.7-3.3,2.9-24.1-2.9c-2-0.6-4-1.1-5.9-1.7
		c8.7,3.6,18.4,7.8,19.7,9.4c1.1,1.4,1,2.4,0.6,3C255.4,213,253.5,213.6,250.3,213.6z M88.1,162l86.2,25.2
		c0.7,0.2,63.7,24.2,72.1,25.1c7,0.7,8.4-0.4,8.7-1s-0.1-1.3-0.6-1.9c-1.5-1.9-20.6-9.7-33-14.5c-0.3-0.1-0.4-0.4-0.3-0.6
		c0.1-0.2,0.4-0.4,0.6-0.3c10.7,3.7,39.2,12.6,43.1,9.3c0.3-0.3,0.4-0.7,0.3-1.1c-0.3-1.6-3.4-4.9-20-8.8c-0.3-0.1-0.4-0.3-0.4-0.6
		c0.1-0.3,0.3-0.4,0.6-0.4c24.5,4.4,28.6,3.5,29.2,2.9c0.5-0.4,0.7-1.1,0.5-1.7c-0.7-2.8-6.4-6.5-11.2-8.1
		c-6.3-2.1-36.5-9.1-36.8-9.1c-0.3-0.1-0.5-0.3-0.4-0.6s0.3-0.5,0.6-0.4c24.8,4,44.2,5.1,45.1,2.8c0.3-0.8,0.3-1.7-0.2-2.4
		c-1.7-3.2-8.2-5.8-12-6.6l-2.2-0.5c-41.4-9.6-41.7-10.9-41.8-11.6c-0.1-0.2,0-0.5,0.2-0.6c0.8-0.6,3.6-1.3,8.9-2.5
		c7.4-1.7,17.6-4,20.6-6.6c2.4-2.1,3.6-4.5,3-6.3c-0.4-1.2-1.5-2.1-2.8-2.2c-1.6-0.2-5.1,0.5-9.3,1.3c-5.8,1.2-13,2.6-18,2.1
		c-1.3-0.1-2.6-0.3-3.9-0.5c-7.6-1-15.5-2-21.3,2.5c-4.1,3.3-8.5,6.2-13.2,8.7c-0.1,0-0.2,0-0.4,0l-89.3-23.8l-2.7,21.9L88.1,162z"
		/>
	<path class="st1" d="M170.8,163.6c-0.8-4.4,4-8.7,8.3-7.5c0.2-3.4,4-5.3,7.2-6.4l6-2.2c2.2-0.8,4.5-1.6,6.9-1.5s4.8,1.6,5.4,3.9
		c0.4,1.4,0.1,3.2,1.4,3.9c0.7,0.2,1.5,0.4,2.3,0.5c1.2,0.4,1.9,1.6,1.7,2.8c3.3-4.1,10.1-3.3,14.2,0c2,1.6,3.8,4.2,3.1,6.7
		c-0.4,1.3-1.4,2.6-0.9,3.9c2.5-0.1,4.5,1.9,4.6,4.3l11.2,2.4c2.5,0.5,5,1.1,7.1,2.6s3.5,4.2,2.7,6.6s-3.3,3.7-5.7,4.8
		c1.6,2.5,3.1,6.2,0.9,8.2c-1.2,1.1-3,1.2-4.2,2.4c-1.3,1.4-1.1,3.5-1.6,5.3c-0.8,2.9-3.4,4.9-6.2,5.8c-2.9,0.8-5.8,1-8.8,0.8
		c-3.3,5.5-10.2,8.1-16.6,7.7s-12.3-3.5-17.5-7.2c-1.1-0.8-2.2-2.2-1.3-3.2c-0.3,2.3-3,3.3-5.4,3.7c-5.8,1-11.9,1.6-17.6,0.1
		s-11.1-5.4-13-11c-1.7-5.3-0.2-11,3.9-14.8c-1.8-0.6-2.7-2.9-2.4-4.8c0.5-1.9,1.5-3.6,2.8-5c1.2-1.3,3.3-0.9,4-1.7s0.5-3.6,0.9-4.8
		C164.6,168.8,170.6,162.6,170.8,163.6z"/>
	<path class="st2" d="M211.2,219.1c-0.5,0-1,0-1.5-0.1c-5.6-0.4-11.5-2.8-17.8-7.3c-0.6-0.4-1.1-0.9-1.4-1.5c-1.3,1.2-3,2-4.8,2.2
		c-5.1,0.9-11.6,1.8-17.8,0.1c-6.4-1.7-11.6-6-13.3-11.4c-1.7-5.2-0.3-10.9,3.4-14.8c-1.6-1.1-2.3-3.1-2-5c0.5-2,1.5-3.9,3-5.3
		c0.7-0.7,1.7-1.2,2.7-1.3c0.4,0,0.9-0.2,1.2-0.4c0.3-0.8,0.5-1.6,0.5-2.4c0-0.8,0.2-1.5,0.4-2.2c0.2-0.6,4.7-5.6,6.5-6.5
		c-0.1-4.2,3.2-7.6,7.4-7.7c0.4,0,0.7,0,1.1,0.1c0.6-3.4,4.5-5.2,7.4-6.3l6-2.2c2.2-1,4.7-1.5,7.1-1.5c2.3,0.2,5.2,1.6,5.8,4.3
		c0.1,0.4,0.2,0.9,0.2,1.3c0.1,1,0.3,1.9,0.9,2.3c0.4,0.2,0.8,0.2,1.1,0.2c0.3,0,0.7,0.1,1,0.2c1,0.3,1.7,1.1,2,2.1
		c3.7-3.4,10.1-2.4,14.1,0.8c2.1,1.7,4,4.4,3.2,7.2c-0.1,0.4-0.3,0.9-0.5,1.3c-0.3,0.6-0.5,1.3-0.5,2c2.4,0.1,4.4,2,4.7,4.3
		l10.9,2.3c2.4,0.5,5.1,1.1,7.3,2.7c2,1.5,3.8,4.3,2.9,7.2c-0.8,2.4-3.1,3.8-5.4,4.8c1.4,2.3,2.9,6.1,0.5,8.3
		c-0.6,0.5-1.4,1-2.2,1.2c-0.7,0.2-1.4,0.6-2,1.1c-0.7,0.9-1.1,2.1-1.1,3.3c-0.1,0.6-0.2,1.2-0.3,1.8c-1,3-3.5,5.3-6.6,6.2
		c-2.8,0.8-5.8,1-8.7,0.8C223.6,216.1,217.7,219.1,211.2,219.1z M191.2,209.2c0.3,0.7,0.7,1.3,1.4,1.7c6.2,4.4,11.8,6.8,17.3,7.1
		c6.7,0.4,13.1-2.5,16.1-7.5c0.1-0.2,0.3-0.3,0.4-0.2c2.9,0.2,5.8-0.1,8.6-0.8c2.3-0.8,5.1-2.6,5.9-5.5c0.1-0.6,0.3-1.1,0.3-1.7
		c0.1-1.4,0.5-2.7,1.4-3.8c0.7-0.6,1.4-1.1,2.3-1.4c0.7-0.2,1.3-0.6,1.9-1c2.1-1.9,0.3-5.6-0.9-7.6c-0.1-0.1-0.1-0.3-0.1-0.4
		c0-0.1,0.1-0.2,0.3-0.3c2.3-1.1,4.7-2.3,5.4-4.5s-0.8-4.8-2.5-6c-2-1.4-4.6-2-6.9-2.5l-11.2-2.4c-0.2,0-0.4-0.3-0.4-0.5
		c-0.1-2.1-1.9-3.8-4.1-3.8c-0.2,0-0.4-0.1-0.5-0.3c-0.3-1.1-0.1-2.2,0.4-3.1c0.2-0.4,0.3-0.7,0.4-1.1c0.6-2.3-1.1-4.7-2.9-6.2
		c-3.9-3.1-10.4-3.9-13.6-0.1c-0.1,0.2-0.4,0.2-0.6,0.1c-0.2-0.1-0.3-0.3-0.3-0.6c0.2-1-0.4-1.9-1.4-2.2c-0.3-0.1-0.6-0.1-0.9-0.1
		c-0.5,0-1.1-0.1-1.6-0.4c-1.1-0.6-1.3-1.9-1.4-3.1c0-0.4-0.1-0.8-0.2-1.1c-0.5-2.1-2.9-3.4-4.9-3.5c-2.3-0.2-4.6,0.7-6.7,1.4
		l-6,2.2c-2.8,1-6.6,2.8-6.8,6c0,0.2-0.1,0.3-0.2,0.4c-0.1,0.1-0.3,0.1-0.4,0.1c-3.5-0.7-6.9,1.6-7.6,5.1c-0.1,0.6-0.2,1.2-0.1,1.9
		l0,0c0.1,0.3-0.1,0.5-0.4,0.6c0,0,0,0,0,0c-0.1,0-0.2,0-0.3,0c-2.2,1.7-4.2,3.8-5.9,6c-0.2,0.6-0.3,1.3-0.3,1.9
		c0.1,1-0.2,2.1-0.7,3c-0.5,0.4-1.1,0.7-1.8,0.8c-0.8,0.1-1.6,0.4-2.2,0.9c-1.3,1.3-2.3,3-2.7,4.8c-0.3,1.6,0.4,3.7,2.1,4.3
		c0.2,0.1,0.3,0.2,0.3,0.4c0,0.2,0,0.4-0.1,0.5c-3.9,3.6-5.3,9.2-3.7,14.3c1.7,5,6.5,9.1,12.6,10.7s12.4,0.7,17.4-0.2
		c1.8-0.3,3.8-1,4.6-2.3c0-0.5,0.1-0.9,0.4-1.2c0.1-0.2,0.4-0.2,0.6-0.1c0.2,0.1,0.3,0.3,0.3,0.5
		C191.4,208.6,191.3,208.9,191.2,209.2L191.2,209.2z"/>
	<path class="st3" d="M209.8,192.7c0,0,33.3-15,34.9-21.1s-26,3.7-39,7.7c0,0,36.5-13.1,33.3-18.9s-53.6,10.8-53.6,10.8
		s15.9-11.5,16.1-18.9s-10.2,0.2-14.2,3.9s-24.7,7-34.7,12.5S138,186,132.8,187.6c-3.9,1.2-32,1.6-45.2,1.8V234
		c10.5-3,49.9-14,55.2-14c6.1,0,29.6,2,47.5,0s51.6-19.9,52-24.4c0.4-4.1-19.2,2.9-22,3.9c3-1.1,25.3-9.6,26.1-14.5
		C247.1,179.7,226,186.6,209.8,192.7z"/>
	<path class="st2" d="M87.6,234.4c-0.1,0-0.2,0-0.3-0.1c-0.1-0.1-0.2-0.2-0.2-0.4v-44.6c0-0.3,0.2-0.5,0.5-0.5
		c12.2-0.1,41.2-0.6,45.1-1.7c2.2-0.6,4.4-3.5,7-6.8c3.2-4,7.1-9,12.7-12.1c5.1-2.8,13-5,19.9-7c6.6-1.9,12.8-3.7,14.7-5.4
		c0.1-0.1,9.4-8.7,13.4-6.9c1.1,0.5,1.6,1.6,1.6,3.4c-0.1,5.9-9.4,13.9-13.9,17.5c11.4-3.6,48.4-15.1,51.4-9.7
		c0.3,0.6,0.4,1.3,0.1,1.9c-1.4,3.6-11.3,8.6-20.1,12.3c12.9-4,23-6.6,25.3-4.5c0.5,0.5,0.6,1.2,0.4,1.8c-1.1,4.2-15.7,12-25.8,17
		c15.6-5.4,24.6-7.2,26.8-5.4c0.5,0.4,0.8,1.1,0.6,1.7c-0.2,1-1.8,4.3-14.4,10c4.4-1.1,8.4-1.8,9.7-0.8c0.4,0.3,0.6,0.8,0.6,1.3
		c-0.4,4.9-34.3,22.8-52.4,24.8c-13.6,1.6-30.4,0.8-40.5,0.3c-3.1-0.1-5.6-0.3-7.1-0.3c-4.1,0-31.1,7.2-55,14L87.6,234.4z
		 M88.1,189.8v43.5c12.3-3.5,49.5-13.9,54.7-13.9c1.5,0,4,0.1,7.1,0.3c10,0.5,26.8,1.3,40.3-0.3c7.8-0.9,19.9-5.1,32.4-11.2
		c11.8-5.8,19-11,19.2-12.7c0-0.2,0-0.3-0.2-0.4c-1.8-1.4-12.2,1.6-21.2,4.9c-0.3,0.1-0.5,0-0.6-0.3c-0.1-0.3,0-0.5,0.3-0.6l0,0
		c9.3-3.5,25.1-10.3,25.7-14.1c0.1-0.3,0-0.6-0.3-0.8c-2.3-1.9-15.3,1.4-35.6,9.1c-0.3,0.1-0.6,0-0.7-0.3s0-0.6,0.3-0.7
		c9.2-4.1,33.4-16,34.6-20.8c0.1-0.3,0.1-0.6-0.1-0.8c-2.5-2.4-21.2,3.7-32.4,7.3c-2.1,0.7-4.1,1.3-5.8,1.9
		c-0.3,0.1-0.5-0.1-0.6-0.3c-0.1-0.3,0.1-0.5,0.3-0.6c10.6-3.8,31.2-12.3,33.1-17.1c0.2-0.3,0.2-0.7,0-1.1c-2.2-4-33.7,4.7-53,11
		c-0.3,0.1-0.5-0.1-0.6-0.3c-0.1-0.2,0-0.4,0.2-0.6c0.2-0.1,15.8-11.4,15.9-18.5c0-1.3-0.3-2.1-1-2.5c-2.4-1.1-8.6,3.3-12.4,6.7
		c-2.1,1.9-8.1,3.6-15.1,5.6s-14.7,4.2-19.7,6.9c-5.4,2.9-9.3,7.9-12.4,11.8c-2.7,3.4-5,6.4-7.5,7.1
		C129.1,189.2,103.5,189.6,88.1,189.8L88.1,189.8z"/>
	<circle class="st1" cx="258.9" cy="157.8" r="5.5"/>
	<path class="st2" d="M258.9,163.8c-3.3,0-6-2.7-6-6s2.7-6,6-6c3.3,0,6,2.7,6,6S262.2,163.8,258.9,163.8z M258.9,152.8
		c-2.8,0-5,2.2-5,5s2.2,5,5,5s5-2.2,5-5C263.9,155,261.7,152.8,258.9,152.8L258.9,152.8z"/>
	<path class="st1" d="M211.2,234.3c1.5-6.2-5.5-12.6-11-8.2c-4,3.2-4.4,11.8,1.7,12.9C205.7,239.6,210.3,238,211.2,234.3z"/>
	<path class="st2" d="M203.5,239.6c-0.6,0-1.1,0-1.7-0.1c-2.4-0.3-4.3-2.1-4.8-4.4c-0.8-3.4,0.3-7,2.9-9.3c2.3-1.9,5.5-2.1,8-0.5
		c3.1,1.9,4.6,5.6,3.8,9.1l0,0C210.9,237.8,207.1,239.6,203.5,239.6z M204.2,225.1c-1.3,0-2.6,0.5-3.6,1.4c-2.3,2.1-3.3,5.2-2.6,8.2
		c0.4,2,2,3.4,4,3.7c3.6,0.6,7.9-0.9,8.8-4.3l0,0c0.6-3.1-0.7-6.3-3.4-8.1C206.4,225.5,205.3,225.1,204.2,225.1z"/>
	<path class="st1" d="M186.7,125.4c-0.7-1.5-3.2-2-4.2-0.6c1.1-1.7-7.2-4.1-7.6,1.3C174.5,133.5,189.8,131.7,186.7,125.4z"/>
	<path class="st2" d="M180.9,131.4c-1.2,0-2.4-0.2-3.5-0.7c-1.9-0.7-3.1-2.6-2.9-4.6c0-1.7,1.2-3.2,2.8-3.6c2.1-0.6,4.9,0.2,5.6,1.3
		l0,0c0.5-0.3,1.1-0.4,1.6-0.3c1.1,0.1,2.1,0.7,2.6,1.7l0,0c0.8,1.4,0.6,3.1-0.6,4.2C185,130.8,183,131.5,180.9,131.4z M178.9,123.3
		c-0.4,0-0.9,0.1-1.3,0.2c-1.2,0.3-2.1,1.4-2.1,2.7c-0.2,1.6,0.8,3.1,2.3,3.7c2.5,1.1,6.5,0.6,8.1-1.1c0.8-0.8,1-2.1,0.4-3.1l0,0
		c-0.4-0.7-1-1.1-1.8-1.1c-0.6-0.1-1.2,0.1-1.5,0.6l0,0c-0.2,0.2-0.5,0.3-0.7,0.1c0,0,0,0,0,0c-0.2-0.2-0.3-0.5-0.1-0.7l0,0
		c0,0,0,0,0-0.2C181.2,123.6,180.1,123.2,178.9,123.3L178.9,123.3z"/>
	<path class="st4" d="M190.9,211.2L190.9,211.2c-4.1-0.7-5-5.9-5.2-8.1c0-0.6-0.2-1.3-0.6-1.8c-0.2-0.2-0.5-0.3-0.8-0.2
		c-0.8,0.2-1.6,0.8-2,1.5l-0.3,0.5c-0.7,1.2-1.5,2.5-2.9,2.7c-1.4,0.1-2.7-0.7-3.3-2c-0.4-1.2-0.6-2.4-0.6-3.6v-13.4
		c-0.2,0.4-0.4,0.8-0.6,1.1c-1,1.6-2.9,2.4-4.8,1.9c-1.9-0.6-2.9-2.8-3-6.3c-0.1-5.2,0.3-10.4,1-15.6c0-0.3,0.3-0.5,0.6-0.4
		s0.5,0.3,0.4,0.6c-0.7,5.1-1.1,10.3-1,15.4c0,2.1,0.4,4.7,2.3,5.3c1.4,0.3,2.9-0.3,3.6-1.5c0.8-1.3,1.3-2.8,1.5-4.4
		c0-0.3,0.3-0.5,0.6-0.4s0.5,0.3,0.4,0.6v17c-0.1,1.1,0.1,2.2,0.5,3.2c0.4,0.9,1.2,1.5,2.2,1.5c1-0.2,1.6-1.2,2.2-2.2l0.3-0.6
		c0.6-1,1.5-1.7,2.7-2c0.6-0.1,1.2,0.1,1.6,0.4c0.6,0.7,1,1.5,0.9,2.5c0.2,1.9,0.9,6.3,3.9,7.1c1.2-2.8,1.4-6,1.6-9
		c0-0.7,0.1-1.3,0.1-2c0.5-6,1.8-11.9,3.9-17.5c0.3-0.9,0.8-1.8,1.5-2.5c0.6-0.5,1.3-0.8,2-1c0.4-0.1,0.7-0.3,1.1-0.4
		c1.6-1,2.7-2.7,2.9-4.6c0.2-2,0.1-4-0.3-5.9c0-0.3,0.1-0.5,0.4-0.6s0.5,0.1,0.6,0.4c0.4,2.1,0.5,4.2,0.3,6.2
		c-0.2,2.2-1.5,4.2-3.5,5.3c-0.4,0.2-0.8,0.3-1.2,0.5c-0.6,0.2-1.2,0.5-1.7,0.8c-0.6,0.6-1,1.3-1.2,2.1c-2,5.6-3.3,11.4-3.8,17.2
		l-0.1,1.9c-0.2,3.3-0.5,6.7-1.9,9.7C191.3,211,191.1,211.2,190.9,211.2z"/>
	<path class="st4" d="M161.3,163.4h-0.2c-1.5-0.2-2.6-1.3-3.1-2.7c-0.2-0.6-0.4-1.2-0.5-1.8c-0.1-0.6-0.3-1.2-0.6-1.8
		c0-0.2-0.1-0.3-0.3-0.4c-0.2-0.1-0.4,0-0.8,0.1c-0.2,0.1-0.4,0.1-0.6,0.2c-1.2,0.2-2.4-0.4-3-1.5c-0.5-0.9-0.8-2-0.8-3.1
		c-0.1-1.9-0.1-3.8,0.2-5.7c0-0.3,0.3-0.5,0.6-0.4c0,0,0,0,0,0c0.3,0,0.5,0.3,0.4,0.5c0,0,0,0,0,0c-0.2,1.8-0.3,3.7-0.2,5.5
		c0,0.9,0.2,1.8,0.6,2.6c0.4,0.7,1.2,1.1,1.9,1c0.2,0,0.3-0.1,0.4-0.1c0.5-0.3,1.1-0.3,1.7,0c0.3,0.2,0.5,0.5,0.7,0.9
		c0.2,0.6,0.4,1.3,0.6,2c0.1,0.6,0.3,1.1,0.5,1.6c0.3,1,1.2,1.8,2.2,2.1c1-0.1,1.9-0.6,2.5-1.3c2-2.1,3.3-4.9,3.6-7.8
		c0-0.3,0.3-0.5,0.5-0.5c0,0,0,0,0,0c0.3,0,0.5,0.3,0.4,0.6c-0.3,3.1-1.7,6.1-3.8,8.4C163.6,162.7,162.5,163.3,161.3,163.4z"/>
	<path class="st1" d="M227.7,87.7h19.5c2.8,0,5,2.2,5,5v0c0,2.8-2.2,5-5,5h-19.5c-2.8,0-5-2.2-5-5v0
		C222.7,89.9,224.9,87.7,227.7,87.7z"/>
	<path class="st2" d="M247.2,98.2h-19.4c-3,0.3-5.8-1.9-6.1-4.9s1.9-5.8,4.9-6.1c0.4,0,0.8,0,1.2,0h19.4c3-0.3,5.8,1.9,6.1,4.9
		s-1.9,5.8-4.9,6.1C247.9,98.2,247.5,98.2,247.2,98.2z M227.7,88.2c-2.5-0.3-4.7,1.5-5,4c-0.3,2.5,1.5,4.7,4,5c0.3,0,0.7,0,1,0h19.4
		c2.5,0.3,4.7-1.5,5-4c0.3-2.5-1.5-4.7-4-5c-0.3,0-0.7,0-1,0H227.7z"/>
	<rect x="264" y="51" class="st1" width="11.8" height="5.8"/>
	<path class="st2" d="M275.8,57.3H264c-0.3,0-0.5-0.2-0.5-0.5V51c0-0.3,0.2-0.5,0.5-0.5h11.8c0.3,0,0.5,0.2,0.5,0.5v5.8
		C276.3,57.1,276.1,57.3,275.8,57.3C275.8,57.3,275.8,57.3,275.8,57.3z M264.5,56.3h10.8v-4.8h-10.8V56.3z"/>
	<path class="st1" d="M269.9,34.9L269.9,34.9c1.7,0,3.1,1.4,3.1,3.1c0,0,0,0,0,0v13l0,0h-6.2l0,0V38
		C266.8,36.3,268.1,34.9,269.9,34.9z"/>
	<path class="st2" d="M273,51.5h-6.2c-0.3,0-0.5-0.2-0.5-0.5V38c0-2,1.6-3.6,3.6-3.6c2,0,3.6,1.6,3.6,3.6v13
		C273.5,51.3,273.3,51.5,273,51.5C273,51.5,273,51.5,273,51.5z M267.3,50.5h5.2V38c0-1.4-1.2-2.6-2.6-2.6c-1.4,0-2.6,1.2-2.6,2.6
		V50.5z"/>
	<path class="st0" d="M302.5,205.2c1.3,1.6,0.2,4.3-1.7,5.2s-4.1,0.6-6.2,0.1c-1.5-0.4-3.1-0.9-3.8-2.3c-1.2-2.1,0.8-4.9,3.1-5.4
		s4.8,0.3,7,1.2C303.4,204.9,300.8,203.1,302.5,205.2z"/>
	<path class="st1" d="M220.6,251.5c-0.3,0-0.5-0.2-0.5-0.5v-19.2c0-0.3,0.2-0.5,0.5-0.5s0.5,0.2,0.5,0.5V251
		C221.1,251.3,220.9,251.5,220.6,251.5C220.6,251.5,220.6,251.5,220.6,251.5z"/>
	<path class="st1" d="M243.4,243.8c-0.3,0-0.5-0.2-0.5-0.5v-19.5c0-0.3,0.2-0.5,0.5-0.5s0.5,0.2,0.5,0.5v19.5
		C243.9,243.6,243.7,243.8,243.4,243.8z"/>
	<path class="st1" d="M243.4,125.3c-0.3,0-0.5-0.2-0.5-0.5v-17.7c0-0.3,0.2-0.5,0.5-0.5s0.5,0.2,0.5,0.5v17.7
		C243.9,125.1,243.7,125.3,243.4,125.3z"/>
	<path class="st1" d="M234.9,130.2c-0.3,0-0.5-0.2-0.5-0.5v-12.2c0-0.3,0.2-0.5,0.5-0.5s0.5,0.2,0.5,0.5v12.2
		C235.4,130,235.1,130.2,234.9,130.2z"/>
	<path class="st1" d="M261.8,251.6c-0.3,0-0.5-0.2-0.5-0.5v-7.8c0-0.3,0.2-0.5,0.5-0.5s0.5,0.2,0.5,0.5v7.8
		C262.3,251.4,262,251.6,261.8,251.6z"/>
	<path class="st1" d="M197.2,253.6c-0.3,0-0.5-0.2-0.5-0.5v-9.8c0-0.3,0.2-0.5,0.5-0.5s0.5,0.2,0.5,0.5v9.8
		C197.7,253.4,197.5,253.6,197.2,253.6z"/>
	<polygon class="st2" points="87.6,239.2 132.1,228 123,184.6 87.6,184.1 	"/>
	<path class="st2" d="M87.6,239.7c-0.1,0-0.2,0-0.3-0.1c-0.1-0.1-0.2-0.3-0.2-0.4v-55.1c0-0.1,0.1-0.3,0.2-0.4
		c0.1-0.1,0.2-0.2,0.4-0.1L123,184c0.2,0,0.5,0.2,0.5,0.4l9.2,43.4c0.1,0.3-0.1,0.6-0.4,0.6l-44.5,11.2L87.6,239.7z M88.2,184.6
		v53.9l43.3-10.9l-9-42.5L88.2,184.6z"/>
	<polygon class="st2" points="88.8,118.2 87.6,123.1 87.6,168.8 135.5,180.1 145.6,136.5 	"/>
	<path class="st2" d="M135.5,180.7h-0.1l-47.8-11.3c-0.2-0.1-0.4-0.3-0.4-0.5v-45.7c0,0,0-0.1,0-0.1l1.2-4.9c0-0.1,0.1-0.3,0.3-0.3
		c0.1-0.1,0.3-0.1,0.4,0l56.8,18.2c0.3,0.1,0.4,0.4,0.4,0.6L136,180.3c0,0.1-0.1,0.3-0.2,0.3C135.7,180.7,135.6,180.7,135.5,180.7z
		 M88.2,168.4l46.9,11.1l9.9-42.6l-55.8-17.9l-1,4.2L88.2,168.4z"/>
</g>
</svg>
