<?xml version="1.0" standalone="no"?><svg xmlns="http://www.w3.org/2000/svg" viewBox="0 0 1440 320"><path fill="#000000" fill-opacity="0.85" d="M0,96L34.3,101.3C68.6,107,137,117,206,144C274.3,171,343,213,411,213.3C480,213,549,171,617,144C685.7,117,754,107,823,96C891.4,85,960,75,1029,96C1097.1,117,1166,171,1234,181.3C1302.9,192,1371,160,1406,144L1440,128L1440,0L1405.7,0C1371.4,0,1303,0,1234,0C1165.7,0,1097,0,1029,0C960,0,891,0,823,0C754.3,0,686,0,617,0C548.6,0,480,0,411,0C342.9,0,274,0,206,0C137.1,0,69,0,34,0L0,0Z"></path></svg>