<?xml version="1.0" encoding="utf-8"?>
<!-- Generator: Adobe Illustrator 21.0.2, SVG Export Plug-In . SVG Version: 6.00 Build 0)  -->
<svg version="1.1" id="Layer_1" xmlns="http://www.w3.org/2000/svg" xmlns:xlink="http://www.w3.org/1999/xlink" x="0px" y="0px"
	 viewBox="0 0 400 300" style="enable-background:new 0 0 400 300;" xml:space="preserve">
<style type="text/css">
	.st0{fill:#F493B6;}
	.st1{fill:#231F20;}
	.st2{fill:#666666;}
	.st3{fill:#FFE0BD;}
	.st4{fill:#B7E1DD;}
	.st5{fill:#82C88E;}
</style>
<g id="_444_wearing_a_mask_flatline">
	<path class="st0" d="M188,123.4c0,0-44.6,26.1-58.4,38.5s-17.4,78.4-17.4,104.1h175.6c0,0-3.7-79.2-12.4-96.2
		c-11.6-22.7-53.5-41.6-64.4-44.6S188,123.4,188,123.4z"/>
	<path class="st1" d="M287.8,266.4H112.2c-0.3,0-0.5-0.2-0.5-0.5c0-23,3.2-91.6,17.6-104.5c13.7-12.2,58-38.2,58.5-38.5
		c0.1,0,0.1-0.1,0.2-0.1c0.1,0,12.2-1.1,23.1,1.8c5,1.3,18.1,6.5,32.1,14.9c11.4,6.8,26.3,17.5,32.6,29.9
		c8.6,16.9,12.3,93.2,12.4,96.4c0,0.1,0,0.3-0.1,0.4C288.1,266.4,287.9,266.4,287.8,266.4z M112.7,265.4h174.6
		c-0.4-6.9-4.2-79.5-12.3-95.5c-11.2-22.1-52.5-41.2-64.1-44.3c-10.2-2.7-21.4-1.9-22.7-1.8c-2.3,1.4-45,26.5-58.2,38.3
		c-5.8,5.2-10.6,21.4-13.7,46.7C114,227.7,112.8,246.5,112.7,265.4L112.7,265.4z"/>
	<path class="st1" d="M181.6,134.7l18.4,19.2l16.3-18C216.3,135.9,193.6,137.2,181.6,134.7z"/>
	<path class="st1" d="M200,154.4c-0.1,0-0.3-0.1-0.4-0.1L181.2,135c-0.2-0.2-0.2-0.4-0.1-0.6c0.1-0.2,0.3-0.3,0.5-0.2
		c11.9,2.5,34.3,1.2,34.6,1.2c0.2,0,0.4,0.1,0.5,0.3s0.1,0.4-0.1,0.6l-16.3,18C200.2,154.3,200.1,154.4,200,154.4L200,154.4z
		 M183,135.4l17,17.7l15.1-16.7C210.4,136.6,193.6,137.3,183,135.4z"/>
	<path class="st2" d="M230.1,85.2c1.9-4.2,3.2-8.6,3.9-13.1c0.1-0.9,1.8-10.7-1.1-10.4c3.7-0.3,7.3-1.6,10.4-3.6
		c0.2-0.1,0.4-0.3,0.6-0.5c0.4-0.9-0.9-1.6-1.9-1.8c-4.2-0.9-7.9-3.3-10.3-6.9c-1.6-2.3-2.7-5.2-5.2-6.5c-2.9-1.5-6.5-0.2-9.5-1.6
		c-2-0.9-3.3-2.9-5-4.3c-3.9-3.2-9.9-2.9-14.4-0.7c-2,1-3.9,2.3-6.1,2c-1.5-0.2-2.8-1.1-4.2-1.6c-4.6-1.5-9,2.2-12.2,5.8
		c-2.4,2.7-2.4,5.1-3.7,8.1c-1.1,2.4-3.5,4-4.8,6.4c-2.6,5-2,11-0.3,16.2c0.4,1.2,9.9,18.3,6.9,18.1c8.8,0.5,17.7,1.3,26.6,1.2
		C207,92,226.3,93.5,230.1,85.2z"/>
	<path class="st1" d="M207.2,92.7c-1.4,0-2.6,0-3.8,0s-2.5,0-3.4,0c-7.2,0.1-14.6-0.4-21.6-0.8l-5.1-0.3c-0.3,0-0.5-0.3-0.5-0.5l0,0
		c0-0.3,0.2-0.5,0.5-0.5c0,0,0,0,0.1,0c0.6-0.8-1.5-5.8-6.1-14.8c-0.8-1.6-1.2-2.3-1.3-2.6c-1.5-4.4-2.7-11,0.3-16.6
		c0.7-1.2,1.5-2.2,2.4-3.2c1-0.9,1.7-2,2.4-3.2c0.4-0.9,0.7-1.8,1-2.8c0.5-2,1.4-3.9,2.8-5.5c4.6-5.2,8.9-7.2,12.7-6
		c0.6,0.2,1.2,0.4,1.7,0.7c0.7,0.4,1.5,0.7,2.4,0.8c1.6,0.2,3.2-0.6,4.8-1.4l1-0.5c4.4-2.2,10.7-2.8,15,0.7c0.6,0.5,1.3,1.1,1.8,1.7
		c0.9,1,1.9,1.9,3.1,2.5c1.4,0.5,2.9,0.8,4.4,0.7c1.7-0.1,3.4,0.2,5,0.9c2,1,3.2,3,4.3,4.9c0.4,0.6,0.7,1.2,1.1,1.8
		c2.3,3.4,5.9,5.8,10,6.7c0.9,0.1,1.7,0.6,2.2,1.4c0.2,0.4,0.2,0.8,0,1.1s-0.4,0.6-0.7,0.7c-2.8,1.8-5.9,3-9.1,3.5
		c1.2,2,0.6,7.1,0.1,10.1c-0.7,4.6-2.1,9.1-4,13.3C227.6,91.9,216,92.7,207.2,92.7z M200.8,91.6h2.6c8.1,0.1,23.1,0.3,26.2-6.6l0,0
		c1.9-4.1,3.2-8.5,3.9-13c0.8-5.1,0.8-8.7-0.1-9.7c-0.1-0.1-0.3-0.2-0.5-0.2l0,0c-0.3,0-0.5-0.2-0.6-0.5c0-0.3,0.2-0.5,0.5-0.6l0,0
		c3.6-0.3,7.1-1.5,10.1-3.5c0.1-0.1,0.3-0.2,0.4-0.3c0-0.1,0-0.2,0-0.2c-0.4-0.4-0.9-0.7-1.5-0.8c-4.3-0.9-8.2-3.4-10.6-7.1
		c-0.4-0.6-0.8-1.2-1.1-1.8c-1.1-1.9-2.1-3.6-3.9-4.5c-1.5-0.6-3-0.9-4.6-0.8c-1.7,0.1-3.3-0.2-4.9-0.8c-1.3-0.7-2.4-1.6-3.4-2.7
		c-0.5-0.6-1.1-1.1-1.7-1.7c-3.9-3.2-9.8-2.6-13.9-0.6c-0.3,0.2-0.6,0.3-1,0.5c-1.7,0.9-3.5,1.8-5.4,1.5c-0.9-0.2-1.8-0.5-2.7-0.9
		c-0.5-0.3-1-0.5-1.6-0.7c-4.3-1.4-8.7,2.3-11.7,5.7c-1.2,1.5-2.1,3.2-2.6,5.1c-0.3,0.9-0.6,1.8-1,2.9c-0.6,1.3-1.5,2.5-2.5,3.5
		c-0.9,0.9-1.7,1.9-2.3,3c-2.8,5.4-1.7,11.6-0.2,15.8c0.1,0.2,0.6,1.3,1.2,2.5c4,7.9,6.5,13.3,6.3,15.4l4,0.3
		c7.1,0.5,14.4,0.9,21.5,0.8L200.8,91.6z"/>
	<path class="st3" d="M221.7,87.9c1.9-9.6,18-11.4,16.8-0.1c-0.4,3.9-1.8,7.8-4.6,10.5s-7.3,3.9-10.8,2.1"/>
	<path class="st1" d="M226.6,101.8c-1.3,0-2.7-0.3-3.9-0.9c-0.3-0.1-0.4-0.4-0.2-0.7c0.1-0.3,0.4-0.4,0.7-0.2
		c3.1,1.5,7.3,0.7,10.2-2c3.1-3,4.2-7.2,4.5-10.2c0.4-4-1.4-6.6-4.9-7.2c-4.3-0.7-9.8,2.2-10.8,7.4c0,0.3-0.3,0.5-0.6,0.4
		c-0.3,0-0.5-0.3-0.4-0.6l0,0c1.1-5.7,7.2-8.9,12-8.2c3.2,0.5,6.4,2.9,5.8,8.3c-0.3,3.2-1.4,7.6-4.8,10.8
		C232.1,100.7,229.4,101.8,226.6,101.8z"/>
	<path class="st3" d="M181.8,86.5c-1.2-9.7-17.1-12.6-16.7-1.2c0.1,3.9,1.2,7.9,3.9,10.8s7,4.4,10.6,2.9"/>
	<path class="st1" d="M176.6,100c-3.1,0-6-1.4-8-3.6c-3.1-3.4-3.9-7.9-4-11.1c-0.2-5.4,3.2-7.6,6.4-7.9c4.8-0.4,10.6,3.2,11.4,9
		c0,0.3-0.2,0.5-0.4,0.6c-0.3,0-0.5-0.2-0.6-0.4c-0.6-5.2-5.9-8.5-10.3-8.1c-3.5,0.3-5.6,2.8-5.4,6.8c0.1,3,0.8,7.3,3.8,10.5
		c2.7,2.9,6.8,4.1,10.1,2.8c0.3-0.1,0.6,0,0.7,0.3c0.1,0.3,0,0.6-0.3,0.7l0,0C178.8,99.8,177.7,100,176.6,100z"/>
	<path class="st3" d="M181.6,134.7c0,0,7.4,3.8,20,4.2s14.7-3,14.7-3l-0.3-6.8l-0.7-15.7l-0.7-14.7l-28.8-1l-1.4,11.9l-0.4,3.9
		L181.6,134.7z"/>
	<path class="st1" d="M203.7,139.4h-2.1c-12.6-0.4-19.9-4.1-20.2-4.2c-0.2-0.1-0.3-0.3-0.3-0.5l4.2-36.9c0-0.3,0.3-0.5,0.5-0.4
		l28.8,1c0.3,0,0.5,0.2,0.5,0.5l1.7,37.1c0,0.1,0,0.2-0.1,0.3C216.6,136.3,214.5,139.4,203.7,139.4z M182.1,134.4
		c1.5,0.7,8.5,3.6,19.4,4c10.7,0.4,13.7-2.1,14.2-2.6l-1.6-36.4l-27.9-1L182.1,134.4z"/>
	<path class="st1" d="M184,113.6c2.1,3.6,5.6,6.4,9.2,8.6c6.1,3.7,15.2,7.8,22.8,6.9l-0.7-15.7c-5.5,0.5-11.1,0.3-16.6-0.5
		c-4.9-0.6-9.8-1.2-14.2-3.3L184,113.6z"/>
	<path class="st1" d="M213.8,129.7c-7.8,0-16.3-4.4-20.9-7.1c-4.4-2.6-7.5-5.6-9.4-8.8c0-0.1-0.1-0.2-0.1-0.3l0.4-3.9
		c0-0.2,0.1-0.3,0.2-0.4c0.1-0.1,0.3-0.1,0.5,0c4.4,2.1,9.6,2.7,14.1,3.2c5.5,0.8,11,1,16.5,0.5c0.1,0,0.3,0,0.4,0.1
		c0.1,0.1,0.2,0.2,0.2,0.4l0.7,15.7c0,0.3-0.2,0.5-0.4,0.5C215.3,129.7,214.5,129.7,213.8,129.7z M184.5,113.4
		c1.8,3,4.8,5.8,8.9,8.3c4.9,2.9,14.1,7.6,22,6.9l-0.6-14.7c-5.4,0.4-10.8,0.3-16.2-0.5c-4.4-0.5-9.3-1.1-13.8-3L184.5,113.4z"/>
	<path class="st3" d="M198.7,116.5l2.6,0.1c12.2,0.4,22.4-9.1,22.8-21.3v-1.1c0.1-4.1,0.3-8.2,0.4-12.3c0.1-2.6,1.4-7.6-1.9-8.9
		c-0.7-0.3-1.4-0.2-2.1-0.5c-0.9-0.5-1.6-1.2-2-2.1c-0.7-1.3-1.6-2.4-2.7-3.3c-2.5-2-4.5-0.1-7.1-0.8c-4.4-1.1-8.9-4.4-13.7-3.6
		c-0.9,0.3-1.8,0.4-2.8,0.3c-0.7-0.1-1.4-0.4-2-0.8c-1.4-0.8-2.8-1.8-4.1-2.8c0,2.2-0.9,4.2-2.5,5.6c-0.4,0.2-0.8,0.6-1,1
		c-0.3,0.7,0.1,1.5,0.1,2.3c0.1,1.7-1.5,2.9-2.6,4.2c-2.7,3.3-2.4,8.7-2.5,12.7l-0.3,8.4c-0.4,12.2,9.1,22.4,21.3,22.9
		C198.6,116.5,198.7,116.5,198.7,116.5z"/>
	<path class="st1" d="M202.1,117.2h-0.8l-2.6-0.1c-12.5-0.5-22.2-10.9-21.8-23.4l0.3-8.4c0-0.6,0-1.2,0-1.8
		c0.1-3.7,0.1-8.3,2.6-11.3c0.2-0.3,0.5-0.6,0.8-0.8c0.9-1,1.7-1.9,1.7-3c0-0.2-0.1-0.5-0.1-0.7c-0.2-0.6-0.2-1.2,0-1.8
		c0.2-0.5,0.6-0.8,1-1.1l0.1-0.1c1.5-1.3,2.4-3.2,2.4-5.2c0-0.2,0.1-0.4,0.3-0.5s0.4-0.1,0.6,0.1c1.3,1,2.6,1.9,4,2.8
		c0.5,0.4,1.1,0.6,1.8,0.7c0.6,0.1,1.3,0,1.9-0.2c0.2,0,0.5-0.1,0.7-0.1c3.3-0.6,6.4,0.7,9.4,2c1.4,0.6,2.9,1.2,4.4,1.6
		c0.9,0.2,1.8,0.2,2.7,0c1.6-0.4,3.3-0.1,4.6,0.9c1.1,1,2.1,2.1,2.9,3.4c0.4,1.2,1.5,2.1,2.8,2.2c0.4,0,0.8,0.1,1.1,0.3
		c3.1,1.2,2.7,5,2.4,7.8c-0.1,0.6-0.1,1.2-0.1,1.6v1.7c-0.1,3.5-0.2,7.1-0.3,10.6v1.1C224.2,107.5,214.3,117.1,202.1,117.2
		L202.1,117.2z M186.6,60.4c-0.2,1.9-1.2,3.7-2.7,5l-0.2,0.1c-0.3,0.2-0.5,0.4-0.7,0.7c-0.1,0.4-0.1,0.8,0,1.2
		c0.1,0.3,0.1,0.6,0.1,0.9c0.1,1.5-1,2.7-2,3.8c-0.2,0.3-0.5,0.5-0.7,0.8c-2.2,2.7-2.3,6.9-2.4,10.6c0,0.6,0,1.2,0,1.8l-0.3,8.4
		c-0.4,11.9,8.9,21.9,20.8,22.3l2.6,0.1c11.9,0.4,21.9-8.9,22.3-20.8l0,0v-1.1c0.1-3.5,0.2-7.1,0.3-10.6l0.1-1.7
		c0-0.5,0.1-1.1,0.1-1.7c0.2-2.6,0.6-5.8-1.8-6.7c-0.3-0.1-0.6-0.2-0.9-0.2c-0.4,0-0.8-0.1-1.2-0.3c-1-0.5-1.8-1.3-2.3-2.3
		c-0.7-1.2-1.6-2.3-2.6-3.2c-1.1-0.8-2.5-1.1-3.8-0.7c-1,0.2-2.1,0.2-3.1,0c-1.6-0.4-3.1-1-4.6-1.7c-2.8-1.2-5.8-2.4-8.8-1.9
		l-0.6,0.1c-0.7,0.2-1.5,0.3-2.3,0.2s-1.5-0.4-2.1-0.9C188.8,62,187.7,61.2,186.6,60.4z"/>
	<path class="st1" d="M201.3,97.3c-1.5,0-3-0.1-4.5-0.3c-0.3,0-0.5-0.3-0.4-0.6c0-0.3,0.3-0.5,0.6-0.4c2.1,0.3,4.2,0.3,6.3,0.2
		c0.1,0,0.2-0.1,0.3-0.2c1-1.6-1.5-8.9-3.2-13.2c-0.1-0.2-0.1-0.6,0.2-0.7c0.2-0.1,0.6-0.1,0.7,0.2c0,0,0,0.1,0.1,0.1
		c0.5,1.2,4.7,11.6,3.1,14.2c-0.2,0.4-0.6,0.6-1.1,0.7C202.6,97.2,201.9,97.3,201.3,97.3z"/>
	<path class="st4" d="M182.5,94.9l-0.7,12.4c0,0,4.9,9.5,20.1,9.3c11.3-0.2,16.3-7,17.3-9.3s0.7-12.6,0.7-12.6L182.5,94.9z"/>
	<path class="st1" d="M201.3,117.1c-14.9,0-19.9-9.4-20-9.5c0-0.1-0.1-0.2-0.1-0.3l0.7-12.4c0-0.3,0.2-0.5,0.5-0.5l37.4-0.2l0,0
		c0.3,0,0.5,0.2,0.5,0.5c0,0.4,0.2,10.5-0.8,12.8c-1.1,2.6-6.5,9.4-17.8,9.6H201.3z M182.3,107.2c0.6,1,5.6,8.9,19,8.9h0.6
		c10.7-0.2,15.8-6.5,16.8-9c0.7-1.7,0.8-8.7,0.7-11.9L183,95.4L182.3,107.2z"/>
	<path class="st1" d="M182.5,95.4c-0.2,0-0.4-0.2-0.5-0.4l-5.1-17c-0.1-0.3,0.1-0.6,0.4-0.6c0.3-0.1,0.6,0.1,0.6,0.4l5.1,17
		c0.1,0.3-0.1,0.6-0.4,0.6C182.6,95.4,182.6,95.4,182.5,95.4z"/>
	<path class="st1" d="M219.9,95.3h-0.2c-0.3-0.1-0.4-0.4-0.3-0.7l4.8-14.8c0.1-0.3,0.4-0.4,0.7-0.3s0.4,0.4,0.3,0.7l0,0L220.4,95
		C220.3,95.2,220.1,95.3,219.9,95.3z"/>
	
		<ellipse transform="matrix(2.998502e-02 -0.9996 0.9996 2.998502e-02 123.5558 287.6311)" class="st1" cx="210" cy="80.2" rx="3.8" ry="1.5"/>
	
		<ellipse transform="matrix(2.998502e-02 -0.9996 0.9996 2.998502e-02 105.554 267.6392)" class="st1" cx="190.7" cy="79.4" rx="3.8" ry="1.5"/>
	<path class="st5" d="M203.2,114h-0.1c-0.3-0.1-0.4-0.3-0.4-0.6l0,0c1.6-7.3,0-16.5,0-16.6c0-0.3,0.1-0.5,0.4-0.6l0,0
		c0.3,0,0.5,0.1,0.6,0.4c0.1,0.4,1.6,9.5,0,17C203.6,113.9,203.4,114,203.2,114z"/>
	<path class="st1" d="M146.1,266.4c-0.3,0-0.5-0.2-0.5-0.5l-5.9-92.1c0-0.3,0.2-0.5,0.5-0.5s0.5,0.2,0.5,0.5l5.9,92.1
		C146.6,266.2,146.4,266.4,146.1,266.4L146.1,266.4L146.1,266.4z"/>
	<path class="st1" d="M252.6,266.4L252.6,266.4c-0.3,0-0.5-0.3-0.5-0.5l0,0l8.3-86.4c0-0.3,0.3-0.5,0.5-0.4c0.3,0,0.5,0.3,0.4,0.5
		l0,0l-8.4,86.4C253.1,266.3,252.9,266.4,252.6,266.4z"/>
	<path class="st1" d="M200,266.4c-0.3,0-0.5-0.2-0.5-0.5v-112c0-0.3,0.2-0.5,0.5-0.5s0.5,0.2,0.5,0.5v112
		C200.5,266.2,200.3,266.4,200,266.4L200,266.4z"/>
	<path class="st1" d="M185.7,167c-0.2,0-0.3-0.1-0.4-0.2c-8.8-12.6-13.1-30.5-13.1-30.7c-0.1-0.3,0.1-0.5,0.4-0.6l0,0
		c0.3-0.1,0.5,0.1,0.6,0.4c0,0.2,4.1,17.3,12.5,29.7l8.7-15.2c0.1-0.2,0.4-0.3,0.7-0.2s0.3,0.4,0.2,0.7l-9.1,15.9
		C186,166.9,185.9,167,185.7,167L185.7,167z"/>
	<path class="st1" d="M218.3,166c-0.2,0-0.3-0.1-0.4-0.2l-11.6-16.3c-0.2-0.2-0.1-0.5,0.1-0.7c0.2-0.2,0.5-0.1,0.7,0.1l0,0
		l11.1,15.6c1.6-3.9,7.9-20.4,7.4-30.7c0-0.3,0.2-0.5,0.5-0.5l0,0c0.3,0,0.5,0.2,0.5,0.4l0,0c0.5,11.9-7.5,31.1-7.8,32
		C218.7,165.9,218.6,166,218.3,166L218.3,166z"/>
	<path class="st1" d="M230.1,235.2c-0.1,0-0.2,0-0.2-0.1l-19.1-10.7c-0.2-0.1-0.3-0.3-0.2-0.4v-29.4c0-0.3,0.2-0.5,0.5-0.5l0,0H244
		c0.3,0,0.5,0.2,0.5,0.5l0,0V224c0,0.2-0.1,0.3-0.2,0.4l-13.8,10.7C230.3,235.2,230.2,235.2,230.1,235.2z M211.5,223.7l18.5,10.4
		l13.4-10.3v-28.7h-31.9V223.7z"/>
</g>
</svg>
